<?xml version="1.0" encoding="UTF-8" standalone="no"?>
<svg width="89px" height="89px" viewBox="0 0 89 89" version="1.1" xmlns="http://www.w3.org/2000/svg" xmlns:xlink="http://www.w3.org/1999/xlink" xmlns:sketch="http://www.bohemiancoding.com/sketch/ns">
    <!-- Generator: Sketch 3.3.3 (12072) - http://www.bohemiancoding.com/sketch -->
    <title>Oval 1 + Incomeincrease Copy 5</title>
    <desc>Created with Sketch.</desc>
    <defs></defs>
    <g id="Page-1" stroke="none" stroke-width="1" fill="none" fill-rule="evenodd" sketch:type="MSPage">
        <g id="Faster-1" sketch:type="MSArtboardGroup" transform="translate(-340.000000, -326.000000)">
            <g id="Faster" sketch:type="MSLayerGroup" transform="translate(-36.000000, 93.000000)">
                <g id="Faster-2" transform="translate(267.000000, 230.000000)" sketch:type="MSShapeGroup">
                    <g id="graphic">
                        <g id="Oval-1-+-Oval-1-Copy-2" transform="translate(0.000000, 3.000000)">
                            <g id="Oval-1-+-Incomeincrease-Copy-5" transform="translate(109.962963, 0.104605)">
                                <g id="Oval-1" fill="#2A3456">
                                    <ellipse cx="44" cy="44.0130029" rx="44" ry="44.0130029"></ellipse>
                                </g>
                                <path d="M24.5555556,28.6973844 C24.5555556,31.8918374 27.119782,34.480988 30.2839698,34.480988 C33.4457839,34.480988 36.0117907,31.8918374 36.0117907,28.6973844 C36.0117907,28.1828775 35.5993543,27.7656937 35.0913752,27.7656937 C34.5839895,27.7656937 34.1715532,28.1828775 34.1715532,28.6973844 C34.1715532,30.8604498 32.4304191,32.6152329 30.2839698,32.6152329 C28.1351469,32.6152329 26.3963865,30.8604498 26.3963865,28.6973844 C26.3963865,26.5349125 28.1351469,24.7825032 30.2839698,24.7825032 C30.7913555,24.7825032 31.2043853,24.3629456 31.2043853,23.8478453 C31.2043853,23.3333384 30.7913555,22.9161546 30.2839698,22.9161546 C27.119782,22.9161546 24.5555556,25.5035249 24.5555556,28.6973844 L24.5555556,28.6973844 Z M24.5555556,44.9568709 C24.5555556,48.1513238 27.119782,50.7381008 30.2839698,50.7381008 C33.4457839,50.7381008 36.0117907,48.1513238 36.0117907,44.9568709 C36.0117907,44.4399902 35.5993543,44.0228064 35.0913752,44.0228064 C34.5839895,44.0228064 34.1715532,44.4399902 34.1715532,44.9568709 C34.1715532,47.1193428 32.4304191,48.8717522 30.2839698,48.8717522 C28.1351469,48.8717522 26.3963865,47.1193428 26.3963865,44.9568709 C26.3963865,42.7938055 28.1351469,41.0390224 30.2839698,41.0390224 C30.7913555,41.0390224 31.2043853,40.6218386 31.2043853,40.1073317 C31.2043853,39.5904511 30.7913555,39.1732673 30.2839698,39.1732673 C27.119782,39.1732673 24.5555556,41.762418 24.5555556,44.9568709 L24.5555556,44.9568709 Z M36.0117907,60.2561818 C36.0117907,57.0617289 33.4457839,54.4725782 30.2839698,54.4725782 C27.119782,54.4725782 24.5555556,57.0617289 24.5555556,60.2561818 C24.5555556,63.4506348 27.119782,66.0374117 30.2839698,66.0374117 C33.4457839,66.0374117 36.0117907,63.4506348 36.0117907,60.2561818 L36.0117907,60.2561818 Z M26.3963865,60.2561818 C26.3963865,58.0931165 28.1351469,56.3383334 30.2839698,56.3383334 C32.4304191,56.3383334 34.1715532,58.0931165 34.1715532,60.2561818 C34.1715532,62.4192472 32.4304191,64.1740303 30.2839698,64.1740303 C28.1351469,64.1740303 26.3963865,62.4192472 26.3963865,60.2561818 L26.3963865,60.2561818 Z M61.6036135,29.9958171 C62.6213521,29.9958171 63.4444444,29.4136588 63.4444444,28.6973844 C63.4444444,27.9811101 62.6213521,27.4019189 61.6036135,27.4019189 L41.3224277,27.4019189 C40.3046891,27.4019189 39.4821902,27.9811101 39.4821902,28.6973844 C39.4821902,29.4136588 40.3046891,29.9958171 41.3224277,29.9958171 L61.6036135,29.9958171 Z M61.6036135,46.2523364 C62.6213521,46.2523364 63.4444444,45.6731452 63.4444444,44.9568709 C63.4444444,44.2405966 62.6213521,43.6584382 61.6036135,43.6584382 L41.3224277,43.6584382 C40.3046891,43.6584382 39.4821902,44.2405966 39.4821902,44.9568709 C39.4821902,45.6731452 40.3046891,46.2523364 41.3224277,46.2523364 L61.6036135,46.2523364 Z M61.6036135,61.5522408 C62.6213521,61.5522408 63.4444444,60.9724562 63.4444444,60.2561818 C63.4444444,59.5399075 62.6213521,58.9601229 61.6036135,58.9601229 L41.3224277,58.9601229 C40.3046891,58.9601229 39.4821902,59.5399075 39.4821902,60.2561818 C39.4821902,60.9724562 40.3046891,61.5522408 41.3224277,61.5522408 L61.6036135,61.5522408 Z M30.0727075,30.0349837 L30.8008505,30.7376091 L31.4287032,29.9424081 L36.5262976,23.4769493 C36.8437845,23.0763816 36.7791003,22.4871021 36.3826867,22.1672414 C35.9838993,21.845007 35.4047081,21.9102847 35.0866277,22.3138195 L30.6174795,27.9858576 L29.4353598,26.8452783 C29.0692113,26.4886247 28.4846792,26.5046474 28.1351469,26.8755434 C27.7850211,27.2488131 27.79867,27.8398729 28.1648185,28.1947462 L30.0727075,30.0349837 Z M30.0727075,46.2570838 L30.8008505,46.9597092 L31.4287032,46.1645082 L36.5262976,39.6990494 C36.8437845,39.2984818 36.7791003,38.7092022 36.3826867,38.3893415 C35.9838993,38.0671071 35.4047081,38.1323848 35.0866277,38.5353262 L30.6174795,44.2079577 L29.4353598,43.0673784 C29.0692113,42.7107248 28.4846792,42.7267475 28.1351469,43.0976435 C27.7850211,43.4709132 27.79867,44.0619731 28.1648185,44.4168463 L30.0727075,46.2570838 Z" id="Imported-Layers" fill="#FFFFFF"></path>
                            </g>
                        </g>
                    </g>
                </g>
            </g>
        </g>
    </g>
</svg>