<?xml version="1.0" encoding="UTF-8" standalone="no"?>
<svg width="89px" height="89px" viewBox="0 0 89 89" version="1.1" xmlns="http://www.w3.org/2000/svg" xmlns:xlink="http://www.w3.org/1999/xlink" xmlns:sketch="http://www.bohemiancoding.com/sketch/ns">
    <!-- Generator: Sketch 3.3.3 (12072) - http://www.bohemiancoding.com/sketch -->
    <title>Oval 1 + Incomeincrease Copy 8</title>
    <desc>Created with Sketch.</desc>
    <defs></defs>
    <g id="Page-1" stroke="none" stroke-width="1" fill="none" fill-rule="evenodd" sketch:type="MSPage">
        <g id="Faster-1" sketch:type="MSArtboardGroup" transform="translate(-616.000000, -327.000000)">
            <g id="Faster" sketch:type="MSLayerGroup" transform="translate(-36.000000, 93.000000)">
                <g id="Faster-2" transform="translate(267.000000, 230.000000)" sketch:type="MSShapeGroup">
                    <g id="graphic">
                        <g id="Oval-1-+-Oval-1-Copy-2" transform="translate(0.000000, 3.000000)">
                            <g id="Oval-1-+-Incomeincrease-Copy-8" transform="translate(385.888889, 1.604605)">
                                <g id="Oval-1" fill="#2A3456">
                                    <ellipse cx="44" cy="44.0130029" rx="44" ry="44.0130029"></ellipse>
                                </g>
                                <g id="Imported-Layers-Copy" transform="translate(21.966578, 31.541557)" fill="#FFFFFF">
                                    <path d="M17.3709615,0.439539701 L18.9942568,0.439539701 C19.0658134,0.463392026 19.1355691,0.497145001 19.2089266,0.510195874 C20.6364553,0.766268959 21.6967503,1.57139159 22.548226,2.70864403 C21.6602964,3.19873845 20.7894675,3.6676805 19.9294405,4.15687448 C18.6774272,4.8688388 17.4123648,5.5614509 16.1909547,6.32336976 C14.8300331,7.1721459 14.2400297,8.43360909 14.4614498,10.0357538 C14.7724287,12.2850565 16.902919,14.2634344 19.5158539,13.0856782 C20.7143125,12.5456293 21.8844171,11.9421252 23.0621732,11.3566232 C24.02796,10.8764294 24.9734958,10.3525834 25.9545824,9.90659273 C26.3069645,9.7463788 26.7403524,9.68472278 27.1300879,9.70497376 C27.9140587,9.74592726 28.526562,10.2090186 29.0468114,10.7454674 C29.8613836,11.5852435 30.6665067,12.4403193 31.4027736,13.3476021 C32.7227417,14.9735978 33.978355,16.6522485 35.2825734,18.2912969 C35.8604238,19.0176615 36.1335994,19.8137835 36.0341402,20.7359163 C35.9031782,21.945625 34.8658348,22.890711 33.6529759,22.8889084 C33.3262475,22.8884586 32.9990658,22.8362551 32.6714378,22.8079009 C32.8136514,23.8497457 32.6291332,24.7862771 31.7272531,25.4244376 C30.858225,26.0391916 29.904138,25.9991394 28.9234995,25.6026553 C28.9838061,26.6688026 28.7614846,27.5954351 27.8168501,28.156183 C26.899217,28.7007316 25.9514322,28.6300763 25.0054466,28.0832753 C25.0054466,28.2394394 25.0099462,28.35105 25.004547,28.4626605 C24.9320908,29.9936984 23.7525337,31.0233919 22.2277981,30.8757773 C21.5833405,30.8132216 21.0257394,30.5247462 20.502793,30.1575124 C20.2890244,30.0071991 20.1850638,29.8501354 20.2035156,29.5499584 C20.298925,27.9892171 19.5563576,26.8528677 18.2053366,26.4500795 C17.9182106,26.3645707 17.6139838,26.3353204 17.2962547,26.2759134 C17.2823042,25.4626906 17.1013877,24.6980729 16.5217347,24.0774647 C15.9357811,23.4501096 15.1869149,23.1944862 14.3489397,23.1485798 C14.2917851,21.2026043 13.286844,20.1562599 11.3813729,19.9816457 C11.3728226,19.8263812 11.3660714,19.7030709 11.3593211,19.5797588 C11.2868649,18.2255876 10.3674316,17.1715933 9.03801277,16.9294705 C7.87960891,16.7184008 6.85756618,17.0689837 5.92193271,17.7246913 C5.09025814,18.3074929 4.50070494,19.0883134 4.13077188,20.0513997 C4.01556172,20.0095466 3.92240301,19.9757932 3.82879494,19.9420398 C2.75184805,19.5509549 1.67535138,19.1598699 0.598404495,18.768785 L0.598404495,3.68747826 C0.624956889,3.26714046 0.651059278,2.84635287 0.680311824,2.37921087 C1.00074059,2.48542042 1.30766815,2.58262898 1.61099554,2.68883859 C3.10557975,3.21313525 4.58801333,3.77613647 6.09834863,4.24867866 C6.70590344,4.4390459 7.37646361,4.51420259 8.01507133,4.49800144 C8.89670043,4.47549977 9.62396636,3.96245304 10.3458313,3.50521247 C11.8309645,2.56462778 13.3530014,1.69109929 15.0105015,1.0934455 C15.7764685,0.816223511 16.5829409,0.653758843 17.3709615,0.439539701 L17.3709615,0.439539701 Z" id="Fill-1"></path>
                                    <path d="M43.2050841,18.6994808 C42.4863694,18.9159498 41.7717063,19.1459212 41.0484903,19.3466389 C39.7154713,19.717023 38.445008,19.5784094 37.3415072,18.7071307 C36.8892177,18.3497992 36.5084832,17.8822065 36.1592514,17.4168645 C34.6034611,15.3453279 33.0967259,13.2337392 31.3136665,11.3467192 C30.5418487,10.5294448 29.7142222,9.76167688 28.8793991,9.00785946 C27.8911106,8.11587914 26.7502581,7.98581762 25.5472998,8.51146453 C24.9307448,8.78103835 24.3420908,9.11541841 23.7448872,9.42774661 C22.2597541,10.2045172 20.7989218,11.0316905 19.2863357,11.7513064 C17.8372048,12.4412189 16.3610727,11.8381646 15.762518,10.4173862 C15.3547822,9.44934874 15.6198546,8.32649826 16.4402792,7.67303962 C16.7733099,7.40796549 17.1351411,7.17169442 17.5073244,6.96422553 C20.1319608,5.50114427 22.7646968,4.05246318 25.3897829,2.5902823 C25.9500828,2.27840396 26.4950828,1.93772333 27.0387318,1.59749334 C28.8424955,0.469241892 30.6696586,0.58355205 32.4950227,1.51648593 C33.4954624,2.02818152 34.4459477,2.6424867 35.4643894,3.11277989 C36.1286483,3.41970712 36.8622164,3.61547532 37.5858788,3.74463634 C38.5426646,3.91520155 39.4954022,3.70773272 40.4166338,3.44040874 C41.3545179,3.16858424 42.2757494,2.8391545 43.2046343,2.53492775 C43.2050841,7.92416244 43.2050841,13.3115963 43.2050841,18.6994808 L43.2050841,18.6994808 Z" id="Fill-3"></path>
                                    <path d="M15.3421794,32.563429 C15.0541537,32.4203158 14.7215728,32.3285065 14.4862022,32.1246402 C13.7773881,31.5107857 13.7638875,30.7142122 14.0415627,29.8955885 C14.1621742,29.5396063 14.3651426,29.2110752 14.5384074,28.8532939 C14.4069957,28.9212505 14.2805334,29.014859 14.1387713,29.0549111 C13.6887308,29.1813717 13.2359899,29.3690386 12.779199,29.3856912 C11.4961337,29.4324937 10.6865111,28.4109034 10.9907387,27.1390906 C11.1104498,26.6390957 11.3642722,26.1710532 11.5208861,25.7804197 C11.175705,25.903282 10.7481662,26.1179501 10.2963257,26.205258 C8.69778194,26.5130849 7.64468719,25.3672829 8.0794261,23.7984418 C8.19643674,23.3758525 8.42505706,22.9843195 8.56321996,22.6683895 C8.12263029,22.796651 7.61228494,23.028873 7.08348685,23.0837753 C5.65145803,23.2322895 4.76037771,22.1553419 5.09295776,20.7498651 C5.43813885,19.2921847 6.78691,18.1198295 8.2769935,17.9821155 C9.65591713,17.8552035 10.563199,19.0217096 10.1640135,20.4505877 C10.0465531,20.871826 9.8174822,21.2615598 9.65636777,21.6278941 C9.99839864,21.4969322 10.3710317,21.3088156 10.7657176,21.2129564 C11.5150345,21.0306906 12.2364497,21.0999965 12.7805484,21.7255525 C13.3187964,22.3443581 13.3079962,23.0680222 13.055973,23.793937 C12.9317614,24.1512686 12.7292436,24.481149 12.5514775,24.8447811 C12.6428353,24.7966257 12.7418448,24.7471211 12.8381528,24.694018 C13.3502991,24.4100439 13.8930485,24.2421784 14.4839515,24.296181 C15.6873596,24.4068919 16.3889736,25.3326248 16.1139988,26.5189322 C15.9951882,27.0306287 15.7391151,27.5103726 15.5816016,27.9127075 C15.9105807,27.7934471 16.326418,27.5864289 16.7661081,27.49372 C18.3835543,27.1530377 19.4834516,28.3406944 19.0091103,29.9257384 C18.6063238,31.2713584 17.6760896,32.1075344 16.3322688,32.4918707 C16.2710625,32.5094229 16.2130083,32.5391264 16.1536029,32.5634256 C15.8831278,32.563429 15.6126545,32.563429 15.3421794,32.563429 L15.3421794,32.563429 Z" id="Fill-5"></path>
                                </g>
                            </g>
                        </g>
                    </g>
                </g>
            </g>
        </g>
    </g>
</svg>