<?xml version="1.0" encoding="UTF-8" standalone="no"?>
<svg width="97px" height="144px" viewBox="0 0 97 144" version="1.1" xmlns="http://www.w3.org/2000/svg" xmlns:xlink="http://www.w3.org/1999/xlink" xmlns:sketch="http://www.bohemiancoding.com/sketch/ns">
    <!-- Generator: Sketch 3.3.3 (12072) - http://www.bohemiancoding.com/sketch -->
    <title>Imported Layers + Rectangle 847 + CustomerList</title>
    <desc>Created with Sketch.</desc>
    <defs>
        <rect id="path-1" x="0.306303325" y="0" width="85.8705248" height="114.587231"></rect>
    </defs>
    <g id="Page-1" stroke="none" stroke-width="1" fill="none" fill-rule="evenodd" sketch:type="MSPage">
        <g id="Faster-4-1" sketch:type="MSArtboardGroup" transform="translate(-289.000000, -362.000000)">
            <g id="Faster" sketch:type="MSLayerGroup" transform="translate(-36.000000, 93.000000)">
                <g id="Faster-3" transform="translate(246.000000, 83.000000)">
                    <g id="Imported-Layers-+-Rectangle-847-+-CustomerList" transform="translate(79.000000, 186.000000)">
                        <path d="M96.6535213,136.286838 C96.6535213,140.121439 93.5529106,143.224639 89.7191505,143.224639 L6.93437084,143.224639 C3.10061075,143.224639 0,140.121439 0,136.286838 L0,6.93780153 C0,3.10320052 3.10061075,-1.42108547e-13 6.93437084,-1.42108547e-13 L89.7191505,-1.42108547e-13 C93.5529106,-1.42108547e-13 96.6535213,3.10320052 96.6535213,6.93780153 L96.6535213,136.286838 Z M5.36879152,14.3224639 L5.36879152,128.902175 L91.2847298,128.902175 L91.2847298,14.3224639 L5.36879152,14.3224639 Z M48.3267607,132.698583 C46.3354201,132.698583 44.724019,134.310338 44.724019,136.302115 C44.724019,138.293892 46.3354201,139.905647 48.3267607,139.905647 C50.3104642,139.905647 51.9295023,138.293892 51.9295023,136.302115 C51.9295023,134.310338 50.3181012,132.698583 48.3267607,132.698583 L48.3267607,132.698583 Z M48.3191237,8.69087112 C48.8269823,8.69087112 49.2374696,8.28029382 49.2374696,7.77232376 C49.2374696,7.26626337 48.8269823,6.85568607 48.3191237,6.85568607 C47.811265,6.85568607 47.402687,7.26626337 47.402687,7.77232376 C47.402687,8.28029382 47.811265,8.69087112 48.3191237,8.69087112 L48.3191237,8.69087112 Z" id="Imported-Layers" fill="#51534A" sketch:type="MSShapeGroup"></path>
                        <g id="Rectangle-847-+-CustomerList" transform="translate(5.105263, 14.297872)">
                            <mask id="mask-2" sketch:name="Mask" fill="white">
                                <use xlink:href="#path-1"></use>
                            </mask>
                            <use id="Mask" fill="#FFFFFF" sketch:type="MSShapeGroup" xlink:href="#path-1"></use>
                        </g>
                    </g>
                </g>
            </g>
        </g>
    </g>
</svg>