<?xml version="1.0" encoding="UTF-8" standalone="no"?>
<svg width="89px" height="89px" viewBox="0 0 89 89" version="1.1" xmlns="http://www.w3.org/2000/svg" xmlns:xlink="http://www.w3.org/1999/xlink" xmlns:sketch="http://www.bohemiancoding.com/sketch/ns">
    <!-- Generator: Sketch 3.3.3 (12072) - http://www.bohemiancoding.com/sketch -->
    <title>Oval 1 + Incomeincrease Copy 7</title>
    <desc>Created with Sketch.</desc>
    <defs></defs>
    <g id="Page-1" stroke="none" stroke-width="1" fill="none" fill-rule="evenodd" sketch:type="MSPage">
        <g id="Faster-1" sketch:type="MSArtboardGroup" transform="translate(-612.000000, -728.000000)">
            <g id="Faster" sketch:type="MSLayerGroup" transform="translate(-36.000000, 93.000000)">
                <g id="Faster-2" transform="translate(267.000000, 230.000000)" sketch:type="MSShapeGroup">
                    <g id="graphic">
                        <g id="Oval-1-+-Oval-1-Copy-2" transform="translate(0.000000, 3.000000)">
                            <g id="Oval-1-+-Incomeincrease-Copy-7" transform="translate(381.888889, 402.104605)">
                                <g id="Oval-1" fill="#2A3456">
                                    <ellipse cx="44" cy="44.0130029" rx="44" ry="44.0130029"></ellipse>
                                </g>
                                <g id="Imported-Layers-Copy-2" transform="translate(25.337540, 26.718750)" fill="#FFFFFF">
                                    <path d="M6.41592,27.612375 C6.41592,28.48237 5.69353493,29.19525 4.81194,29.19525 L1.60398,29.19525 C0.722385067,29.19525 0,28.48237 0,27.612375 L0,17.763375 C0,16.89338 0.722385067,16.1805 1.60398,16.1805 L4.81194,16.1805 C5.69353493,16.1805 6.41592,16.89338 6.41592,17.763375 L6.41592,27.612375 Z" id="Fill-1"></path>
                                    <path d="M16.0398,27.612375 C16.0398,28.48237 15.3174149,29.19525 14.43582,29.19525 L11.22786,29.19525 C10.3462651,29.19525 9.62388,28.48237 9.62388,27.612375 L9.62388,10.024875 C9.62388,9.15488 10.3462651,8.442 11.22786,8.442 L14.43582,8.442 C15.3174149,8.442 16.0398,9.15488 16.0398,10.024875 L16.0398,27.612375 Z" id="Fill-2"></path>
                                    <path d="M26.02012,27.612375 C26.02012,28.48237 25.2977349,29.19525 24.41614,29.19525 L21.20818,29.19525 C20.3265851,29.19525 19.6042,28.48237 19.6042,27.612375 L19.6042,1.934625 C19.6042,1.06463 20.3265851,0.35175 21.20818,0.35175 L24.41614,0.35175 C25.2977349,0.35175 26.02012,1.06463 26.02012,1.934625 L26.02012,27.612375 Z" id="Fill-3"></path>
                                    <path d="M35.644,27.612375 C35.644,28.48237 34.9216149,29.19525 34.04002,29.19525 L30.83206,29.19525 C29.9504651,29.19525 29.22808,28.48237 29.22808,27.612375 L29.22808,11.431875 C29.22808,10.56188 29.9504651,9.849 30.83206,9.849 L34.04002,9.849 C34.9216149,9.849 35.644,10.56188 35.644,11.431875 L35.644,27.612375 Z" id="Fill-4"></path>
                                </g>
                            </g>
                        </g>
                    </g>
                </g>
            </g>
        </g>
    </g>
</svg>