<?xml version="1.0" encoding="UTF-8" standalone="no"?>
<svg width="252px" height="142px" viewBox="0 0 252 142" version="1.1" xmlns="http://www.w3.org/2000/svg" xmlns:xlink="http://www.w3.org/1999/xlink" xmlns:sketch="http://www.bohemiancoding.com/sketch/ns">
    <!-- Generator: Sketch 3.3.3 (12072) - http://www.bohemiancoding.com/sketch -->
    <title>Imported Layers Copy 2 + Rectangle 879</title>
    <desc>Created with Sketch.</desc>
    <defs></defs>
    <g id="Page-1" stroke="none" stroke-width="1" fill="none" fill-rule="evenodd" sketch:type="MSPage">
        <g id="Simpler-1" sketch:type="MSArtboardGroup" transform="translate(-408.000000, -341.000000)">
            <g id="Faster" sketch:type="MSLayerGroup" transform="translate(-36.000000, 93.000000)">
                <g id="X3" transform="translate(444.000000, 248.000000)" sketch:type="MSShapeGroup">
                    <g id="Imported-Layers-Copy-2-+-Rectangle-879">
                        <rect id="Rectangle-879" fill="#FFFFFF" x="20.5558912" y="6.10752688" width="212.410876" height="129.784946"></rect>
                        <path d="M14.9501438,131.052582 L14.9501435,12.2705966 C14.9501435,5.74218745 20.24727,0.433866279 26.7581651,0.433866279 L224.999564,0.433866279 C231.510459,0.433866279 236.807585,5.74218745 236.807585,12.2705966 L236.807589,131.052582 L228.408609,131.052582 L228.408606,9.26354902 L23.3341386,9.26354902 L23.3341388,131.052582 L14.9501438,131.052582 Z M144.542432,130.990787 C144.224005,132.548745 142.860388,133.72003 141.208314,133.72003 L110.579385,133.72003 C108.942295,133.72003 107.563694,132.548745 107.241521,130.990787 L0.328725882,130.990787 L0.328725882,133.836407 C0.328725882,138.104838 3.78272206,141.566134 8.04215118,141.566134 L243.715578,141.566134 C247.975007,141.566134 251.429003,138.104838 251.429003,133.836407 L251.429003,130.990787 L144.542432,130.990787 Z" id="Imported-Layers-Copy-2" fill="#51534A"></path>
                    </g>
                </g>
            </g>
        </g>
    </g>
</svg>