<svg xmlns="http://www.w3.org/2000/svg" viewBox="0 0 74.26 45.05"><defs><style>.cls-1{fill:#fff}.cls-2{mask:url(#mask)}.cls-3{fill:#fefefe}</style><mask id="mask" x="35.77" y="0" width="38.49" height="39.13" maskUnits="userSpaceOnUse"><g id="mask-2"><path id="path-1" class="cls-1" d="M74.26 39.13V0H35.77v39.13h38.49z"/></g></mask></defs><title>Asset 2</title><g id="Layer_2" data-name="Layer 2"><g id="Layer_1-2" data-name="Layer 1"><g id="Page-1"><g id="iPhone-6"><g id="Page-1-2" data-name="Page-1"><g class="cls-2" id="Group-3"><path id="Fill-1" class="cls-3" d="M74.06 20.82A24.25 24.25 0 0 0 35.77 4.67c22.32-9.88 44.3 12.65 32.84 34.46a23.54 23.54 0 0 0 5.45-18.31"/></g><path id="Fill-4" class="cls-3" d="M65.17 23.65a18.8 18.8 0 0 0-29.66-12.54c.15-.1 4.8-2.85 11.79-1.44s14.85 6.6 15.8 17.16c.48 5.43-.68 7.72-2.19 11.06a18.26 18.26 0 0 0 4.25-14.23"/><path id="Fill-6" class="cls-3" d="M13.53 38.42a13.75 13.75 0 0 1-4.95.86C3.38 39.29 0 36.23 0 31.64s3.63-8 9.26-8a11.13 11.13 0 0 1 4.34.8l-.71 2.07a8.65 8.65 0 0 0-3.63-.71c-4 0-6.09 2.56-6.09 5.68 0 3.46 2.56 5.58 6 5.58a10.12 10.12 0 0 0 3.83-.67z"/><path id="Fill-8" class="cls-3" d="M15.41 28.89c0-1.91 0-3.45-.14-4.87h2.81l.18 2.56h.07a6.92 6.92 0 0 1 6.09-2.9c4.2 0 7.33 3.06 7.33 7.59 0 5.37-3.81 8-7.83 8a6.31 6.31 0 0 1-5.3-2.34h-.07v8.11h-3.14zm3.13 4a3.78 3.78 0 0 0 .15 1.11 4.71 4.71 0 0 0 4.66 3.18c3.31 0 5.23-2.34 5.23-5.77 0-3-1.78-5.55-5.09-5.55a4.92 4.92 0 0 0-4.77 3.33 6.52 6.52 0 0 0-.18 1.11z"/><path id="Fill-10" class="cls-3" d="M35.38 21.27a1.82 1.82 0 0 1-2-1.76 1.84 1.84 0 0 1 2-1.73 1.81 1.81 0 0 1 2 1.73 1.84 1.84 0 0 1-2 1.76zm-1.49 17.68H37V24h-3.11z"/><path id="Fill-12" class="cls-3" d="M47.45 39.29c-4.63 0-8.26-3-8.26-7.68 0-5 3.81-7.93 8.54-7.93 4.95 0 8.29 3.12 8.29 7.65 0 5.55-4.45 8-8.54 8zm.1-2c3 0 5.23-2.44 5.23-5.83 0-2.53-1.46-5.71-5.16-5.71s-5.27 3-5.27 5.8c0 3.27 2.13 5.74 5.16 5.74z"/></g></g></g></g></g></svg>