<?xml version="1.0" encoding="UTF-8" standalone="no"?>
<svg width="33px" height="38px" viewBox="0 0 33 38" version="1.1" xmlns="http://www.w3.org/2000/svg" xmlns:xlink="http://www.w3.org/1999/xlink" xmlns:sketch="http://www.bohemiancoding.com/sketch/ns">
    <!-- Generator: Sketch 3.3.2 (12043) - http://www.bohemiancoding.com/sketch -->
    <title>Group</title>
    <desc>Created with Sketch.</desc>
    <defs></defs>
    <g id="Page-1" stroke="none" stroke-width="1" fill="none" fill-rule="evenodd" sketch:type="MSPage">
        <g id="Faster-2" sketch:type="MSArtboardGroup" transform="translate(-326.000000, -732.000000)">
            <g id="Faster" sketch:type="MSLayerGroup" transform="translate(-36.000000, 93.000000)">
                <g id="Faster-3" transform="translate(250.000000, 101.000000)" sketch:type="MSShapeGroup">
                    <g id="Group">
                        <g id="Imported-Layers-+-Mask-Copy-8" transform="translate(93.000000, 522.000000)">
                            <g id="Group" transform="translate(17.000000, 13.000000)">
                                <path d="M33.4225625,6.9905 C31.21875,3.80694318 28.0362875,1.37023864 24.3113125,0.105295455 C25.7154625,1.73085227 27.219975,4.00169318 28.36605,6.9905 L33.4225625,6.9905 L33.4225625,6.9905 Z" id="Shape"></path>
                                <path d="M12.6873,0.105295455 C8.9637125,1.37023864 5.78495,3.80694318 3.5783625,6.9905 L8.634875,6.9905 C9.7804875,4.00309091 11.2845375,1.73457955 12.6873,0.105295455 L12.6873,0.105295455 Z" id="Shape"></path>
                                <path d="M7.7806375,9.609375 L2.0733875,9.609375 C1.122025,11.6197727 0.524475,13.82725 0.3584375,16.1614545 L6.8454625,16.1614545 C6.93565,13.7266136 7.2691125,11.5377727 7.7806375,9.609375 L7.7806375,9.609375 Z" id="Shape"></path>
                                <path d="M30.1545375,16.1609886 L36.63925,16.1609886 C36.4750625,13.8267841 35.87705,11.6197727 34.9256875,9.60890909 L29.2152,9.60890909 C29.73135,11.5377727 30.0648125,13.72475 30.1545375,16.1609886 L30.1545375,16.1609886 Z" id="Shape"></path>
                                <path d="M25.218275,14.3350909 L22.8072625,14.0261932 C24.130475,13.2560455 23.4307125,11.5745795 23.1041875,11.0103636 C23.0079875,10.8435682 22.9404625,10.7461932 22.9404625,10.7461932 C22.9215,10.7601705 22.9025375,10.7732159 22.883575,10.7867273 C19.118825,13.5183523 16.0353375,14.5554659 16.0353375,14.5554659 C14.3342625,15.2319659 11.4848,15.7076591 11.4848,15.7076591 C11.9533125,20.8289318 14.9345875,24.779375 18.5439375,24.779375 C20.9110125,24.779375 23.0079875,23.0797386 24.30345,20.464125 C25.0152375,19.0272614 25.4851375,17.3131818 25.623425,15.4532727 C25.67245,15.1145568 25.69835,14.7679205 25.7034375,14.416625 L25.2622125,14.334625 L25.218275,14.334625 L25.218275,14.3350909 Z" id="Shape"></path>
                                <path d="M22.0779,26.0363977 L23.0255625,24.051625 C21.7416625,25.3044545 20.201075,26.0363977 18.5444,26.0363977 C16.848875,26.0363977 15.2749875,25.2699773 13.9735125,23.9607727 L15.3323375,27.0129432 C15.0146,26.4887955 13.7899,26.2232273 12.3436625,26.0946364 C12.9014375,27.1345455 14.286625,27.977375 16.0788125,28.3869091 L18.5439375,32.4235455 L21.009525,28.3864432 C23.1865125,27.8893182 24.76595,26.7552955 24.9884125,25.4041591 C23.5888875,25.3682841 22.3961,25.5103864 22.0779,26.0363977 L22.0779,26.0363977 Z" id="Shape"></path>
                                <path d="M27.2407875,25.5700227 C29.0695125,25.7768864 30.6743875,26.0941705 30.6743875,26.0941705 C27.0248,24.0725909 27.1186875,16.8174545 27.1186875,16.8174545 C27.69635,4.09673864 20.2070875,3.49385227 18.78305,3.49385227 C18.634125,3.49385227 18.5518,3.500375 18.5518,3.500375 L18.5444,3.52227273 L18.5374625,3.500375 C18.5374625,3.500375 18.454675,3.49385227 18.3062125,3.49385227 C16.8826375,3.49385227 9.3929125,4.09580682 9.9701125,16.8179205 C9.9701125,16.8179205 10.0644625,24.0735227 6.4144125,26.0946364 C6.4144125,26.0946364 7.3967625,26.0270795 8.7111875,26.0028523 C4.9880625,27.6782614 2.3943625,31.4395455 2.3943625,35.8125682 C2.3943625,40.1944432 4.9991625,40.7675114 8.7343125,40.7675114 C10.05475,40.7675114 11.517175,40.6957614 13.05545,40.6957614 L24.0338125,40.6957614 C25.571625,40.6957614 27.0345125,40.7675114 28.3554125,40.7675114 C32.091025,40.7675114 34.695825,40.1949091 34.695825,35.8125682 C34.6953625,31.0067159 31.5605375,26.9416591 27.2407875,25.5700227 L27.2407875,25.5700227 Z M21.0099875,28.3864432 L18.5444,32.4235455 L16.079275,28.3869091 C14.2870875,27.977375 12.9019,27.1345455 12.344125,26.0946364 C13.7903625,26.2227614 15.0150625,26.4887955 15.3328,27.0129432 L13.973975,23.9607727 C15.2749875,25.2704432 16.8493375,26.0363977 18.5448625,26.0363977 C20.2015375,26.0363977 21.742125,25.3049205 23.026025,24.051625 L22.0783625,26.0363977 C22.3965625,25.5103864 23.58935,25.3682841 24.988875,25.4041591 C24.7664125,26.7552955 23.186975,27.8888523 21.0099875,28.3864432 L21.0099875,28.3864432 Z M25.6238875,15.4537386 C25.4851375,17.3136477 25.0157,19.0277273 24.3039125,20.4645909 C23.00845,23.0797386 20.911475,24.7798409 18.5444,24.7798409 C14.93505,24.7798409 11.953775,20.8293977 11.4852625,15.708125 C11.4852625,15.708125 14.334725,15.2324318 16.0358,14.5559318 C16.0358,14.5559318 19.1192875,13.5183523 22.8840375,10.7871932 C22.903,10.7736818 22.9219625,10.7606364 22.940925,10.7466591 C22.940925,10.7466591 23.00845,10.8440341 23.10465,11.0108295 C23.431175,11.5750455 24.1314,13.2565114 22.807725,14.0266591 L25.2187375,14.3355568 L25.2631375,14.3355568 L25.7043625,14.4175568 C25.6988125,14.7683864 25.673375,15.1150227 25.6238875,15.4537386 L25.6238875,15.4537386 Z" id="Shape" fill="#FFFFFF"></path>
                            </g>
                        </g>
                    </g>
                </g>
            </g>
        </g>
    </g>
</svg>