<?xml version="1.0" encoding="UTF-8" standalone="no"?>
<svg width="111px" height="55px" viewBox="0 0 111 55" version="1.1" xmlns="http://www.w3.org/2000/svg" xmlns:xlink="http://www.w3.org/1999/xlink" xmlns:sketch="http://www.bohemiancoding.com/sketch/ns">
    <!-- Generator: Sketch 3.3.3 (12072) - http://www.bohemiancoding.com/sketch -->
    <title>Fill 1 + Fill 4</title>
    <desc>Created with Sketch.</desc>
    <defs></defs>
    <g id="Page-1" stroke="none" stroke-width="1" fill="none" fill-rule="evenodd" sketch:type="MSPage">
        <g id="Flexible-1" sketch:type="MSArtboardGroup" transform="translate(-258.000000, -696.000000)" fill="#2A3456">
            <g id="Faster" sketch:type="MSLayerGroup" transform="translate(-36.000000, 93.000000)">
                <g id="Mask-+-23.11.12_490" transform="translate(36.000000, 16.000000)" sketch:type="MSShapeGroup">
                    <g id="Flexible-2" transform="translate(229.000000, 275.000000)">
                        <g id="Group">
                            <g id="Distribution-+-Imported-Layers-Copy-18" transform="translate(0.000000, 312.000000)">
                                <g id="Imported-Layers">
                                    <g id="Group" transform="translate(3.000000, 0.000000)">
                                        <g id="Fill-1-+-Fill-4" transform="translate(26.000000, 0.000000)">
                                            <path d="M7.34785714,54.013931 C7.3018254,54.013931 7.20285714,54.013931 7.15912698,54.007 L6.05206349,54.007 C3.12214286,54.007 0.737698413,51.6134828 0.737698413,48.6724138 L0.737698413,5.39965517 C0.737698413,2.45627586 3.12214286,0.0650689655 6.05206349,0.0650689655 L66.4687302,0.0650689655 C69.391746,0.0650689655 71.7738889,2.58334483 71.7738889,5.52441379 L71.7738889,48.6908966 C71.7738889,51.6319655 69.391746,54.0231724 66.4595238,54.0231724 L39.2731746,54.0231724 C37.8692063,53.9977586 35.1096032,53.1313793 34.4812698,49.980069 C33.1049206,44.8718966 28.3659524,41.216931 22.9733333,41.216931 C17.4518254,41.216931 12.551746,45.1445172 11.3296032,50.5484138 C11.0419048,52.8864828 9.11777778,54.013931 7.34785714,54.013931 Z" id="Fill-1"></path>
                                            <path d="M109.973333,30.5061724 C109.973333,30.5061724 109.858254,27.8076897 109.605079,26.4815517 C109.397937,25.3517931 108.203413,23.0691724 108.203413,23.0691724 L98.8175397,5.52441379 C97.5953968,3.55831034 94.8081746,2.03117241 92.9553968,2.03117241 L78.9203175,2.03117241 C77.0698413,2.03117241 75.5669048,3.53982759 75.5669048,5.39965517 L75.5669048,48.6816552 C75.5669048,50.5414828 77.0698413,52.0478276 78.9203175,52.0478276 L79.7488889,52.0478276 C79.7488889,52.0478276 80.9710317,51.8861034 81.4198413,50.3520345 C82.6880159,45.2692759 87.2290476,41.4895517 92.6769048,41.4895517 C98.007381,41.4895517 102.467857,45.1075517 103.841905,50.0262759 C104.408095,52.1102069 106.709683,52.0385862 106.709683,52.0385862 C108.56246,52.0385862 110.063095,50.5322414 110.063095,48.6724138 L109.973333,30.5061724 Z M100.407937,24.855069 L85.7076984,24.855069 C84.4671429,24.855069 83.4613492,23.8362069 83.4613492,22.6001724 L83.4613492,11.0484483 C83.4613492,9.80317241 84.4671429,8.79124138 85.7076984,8.79124138 L90.6353968,8.79124138 C93.4410317,8.79124138 95.2846032,11.066931 95.8692063,12.1666552 L101.586349,22.8612414 C102.180159,23.9632759 101.648492,24.855069 100.407937,24.855069 L100.407937,24.855069 Z" id="Fill-4"></path>
                                        </g>
                                    </g>
                                </g>
                            </g>
                        </g>
                    </g>
                </g>
            </g>
        </g>
    </g>
</svg>