<?xml version="1.0" encoding="UTF-8" standalone="no"?>
<svg width="35px" height="32px" viewBox="0 0 35 32" version="1.1" xmlns="http://www.w3.org/2000/svg" xmlns:xlink="http://www.w3.org/1999/xlink" xmlns:sketch="http://www.bohemiancoding.com/sketch/ns">
    <!-- Generator: Sketch 3.3.3 (12072) - http://www.bohemiancoding.com/sketch -->
    <title>excel</title>
    <desc>Created with Sketch.</desc>
    <defs></defs>
    <g id="Page-1" stroke="none" stroke-width="1" fill="none" fill-rule="evenodd" sketch:type="MSPage">
        <g id="Simpler-3-2" sketch:type="MSArtboardGroup" transform="translate(-399.000000, -503.000000)">
            <g id="X3" sketch:type="MSLayerGroup" transform="translate(335.000000, 469.000000)">
                <g id="Imported-Layers-Copy-2-+-Rectangle-879" sketch:type="MSShapeGroup">
                    <g id="excel" transform="translate(63.959685, 34.324728)">
                        <path d="M1,3.21439781 L20.0867026,0 L20.0867026,31.6494553 L1,28.3526371 L1,3.21439781 Z" id="Shape" fill="#00DC00"></path>
                        <path d="M7.05795343,9.97287525 L9.21558068,9.80803433 L10.626337,13.7642162 L12.3690359,9.56077296 L14.6096488,9.39593205 L11.9541076,15.2477845 L14.6926345,21.0172164 L12.2860502,21.0172164 L10.5433513,16.7313527 L9.04960935,20.6875346 L6.8919821,20.5226937 L9.29856634,15.2477845 L7.05795343,9.97287525 Z" id="Shape" fill="#FFFFFF"></path>
                        <path d="M34.3602367,27.5284325 C34.3602367,27.8015739 34.1373372,28.0229552 33.8623227,28.0229552 L20.9165592,28.0229552 L20.9165592,25.8800234 L25.7297277,25.8800234 L25.7297277,22.5832051 L20.9165592,22.5832051 L20.9165592,21.5941596 L25.7297277,21.5941596 L25.7297277,18.2973414 L20.9165592,18.2973414 L20.9165592,17.3082959 L25.7297277,17.3082959 L25.7297277,14.0114776 L20.9165592,14.0114776 L20.9165592,13.0224321 L25.7297277,13.0224321 L25.7297277,9.72561388 L20.9165592,9.72561388 L20.9165592,8.7365684 L25.7297277,8.7365684 L25.7297277,5.43975013 L20.9165592,5.43975013 L20.9165592,3.62650009 L33.8623227,3.62650009 C34.1373372,3.62650009 34.3602367,3.84788144 34.3602367,4.12102283 L34.3602367,27.5284325 L34.3602367,27.5284325 Z M32.2026094,5.43975013 L26.7255557,5.43975013 L26.7255557,8.7365684 L32.2026094,8.7365684 L32.2026094,5.43975013 L32.2026094,5.43975013 Z M32.2026094,9.72561388 L26.7255557,9.72561388 L26.7255557,13.0224321 L32.2026094,13.0224321 L32.2026094,9.72561388 L32.2026094,9.72561388 Z M32.2026094,14.0114776 L26.7255557,14.0114776 L26.7255557,17.3082959 L32.2026094,17.3082959 L32.2026094,14.0114776 L32.2026094,14.0114776 Z M32.2026094,18.2973414 L26.7255557,18.2973414 L26.7255557,21.5941596 L32.2026094,21.5941596 L32.2026094,18.2973414 L32.2026094,18.2973414 Z M32.2026094,22.5832051 L26.7255557,22.5832051 L26.7255557,25.8800234 L32.2026094,25.8800234 L32.2026094,22.5832051 L32.2026094,22.5832051 Z" id="Shape" fill="#00DC00"></path>
                    </g>
                </g>
            </g>
        </g>
    </g>
</svg>