<?xml version="1.0" encoding="UTF-8" standalone="no"?>
<svg width="57px" height="31px" viewBox="0 0 57 31" version="1.1" xmlns="http://www.w3.org/2000/svg" xmlns:xlink="http://www.w3.org/1999/xlink" xmlns:sketch="http://www.bohemiancoding.com/sketch/ns">
    <!-- Generator: Sketch 3.3.3 (12072) - http://www.bohemiancoding.com/sketch -->
    <title>Imported Layers</title>
    <desc>Created with Sketch.</desc>
    <defs></defs>
    <g id="Page-1" stroke="none" stroke-width="1" fill="none" fill-rule="evenodd" sketch:type="MSPage">
        <g id="Faster-4-1" sketch:type="MSArtboardGroup" transform="translate(-309.000000, -440.000000)" fill="#00DC00">
            <g id="Faster" sketch:type="MSLayerGroup" transform="translate(-36.000000, 93.000000)">
                <g id="Faster-3" transform="translate(246.000000, 83.000000)" sketch:type="MSShapeGroup">
                    <g id="Imported-Layers-+-Rectangle-847-+-CustomerList" transform="translate(79.000000, 186.000000)">
                        <g id="Rectangle-847-+-CustomerList" transform="translate(5.105263, 14.297872)">
                            <g id="Rectangle-832-+-13/20-+-CustomerList-+-Imported-Layers" transform="translate(14.000000, 18.000000)">
                                <g id="Imported-Layers" transform="translate(0.000000, 46.000000)">
                                    <path d="M46.5553877,9.00028084 C44.7906123,9.00028084 43.1281985,9.43358592 41.6581936,10.1909078 L35.6511844,1.08457422 C35.4379952,0.759787811 35.0770359,0.567378803 34.6891393,0.567378803 L29.5117977,0.567378803 C28.8745391,0.567378803 28.3604222,1.08457422 28.3604222,1.71875431 C28.3604222,2.35678258 28.8776176,2.87089946 29.5117977,2.87089946 L34.0665038,2.87089946 L36.7817797,6.98306479 L19.672001,6.98306479 C19.6573779,6.98306479 19.6450638,6.98922188 19.6304407,6.98922188 C19.564252,6.99230042 19.4980633,6.99845751 19.428796,7.0130806 C19.4018588,7.01923768 19.3749215,7.02847332 19.3472146,7.0346304 C19.2933401,7.04925349 19.2394656,7.0708033 19.1855911,7.09466201 C19.1578842,7.10620656 19.1309469,7.11852073 19.1070882,7.13391345 C19.0562922,7.16085071 19.0108837,7.19702361 18.9623966,7.2331965 C18.9416164,7.25089813 18.9177577,7.26552121 18.8969775,7.28399248 C18.8908205,7.29014957 18.8815848,7.29630666 18.8723492,7.30169411 C18.8215532,7.35018118 18.7792232,7.4040557 18.7368933,7.46100877 C18.7345843,7.46716586 18.7284273,7.4702444 18.7253487,7.47640149 L18.7222702,7.47948003 C18.7222702,7.47948003 18.7222702,7.48255858 18.7191916,7.48255858 L16.741227,10.3171281 C15.2134995,9.47899445 13.4610382,8.99720229 11.6000583,8.99720229 C5.69541064,8.99720229 0.894421053,13.8020401 0.894421053,19.7036092 C0.894421053,25.6082568 5.69848918,30.4092464 11.6000583,30.4092464 C17.1168094,30.4092464 21.6715155,26.2124211 22.2456639,20.8457491 L30.7601474,20.839592 L30.7632259,20.839592 C30.8501948,20.839592 30.9340851,20.8280474 31.0187451,20.8064976 C31.0426038,20.8003405 31.0664625,20.7949531 31.0903212,20.7857174 C31.1503529,20.7672462 31.2111541,20.7433875 31.2681072,20.7164502 C31.2919659,20.704136 31.3158246,20.69567 31.3373744,20.6802773 C31.397406,20.6441044 31.4574376,20.6025441 31.5113122,20.554057 C31.5236263,20.5448214 31.5351709,20.5363554 31.5474851,20.5240412 C31.5505636,20.5209626 31.5536421,20.5209626 31.5567207,20.5178841 C31.6198308,20.4578525 31.6737054,20.3916638 31.7191139,20.319318 C31.7221924,20.3139306 31.7275799,20.310852 31.7306584,20.3077735 L38.5465552,9.66216783 L39.7341036,11.4631161 C37.3620853,13.4287666 35.8466719,16.3964831 35.8466719,19.7089966 C35.8466719,25.6136443 40.6507401,30.4154035 46.5523092,30.4154035 C52.4569568,30.4154035 57.2579464,25.6105657 57.2579464,19.7089966 C57.261025,13.8051186 52.4600354,9.00028084 46.5553877,9.00028084 L46.5553877,9.00028084 Z M19.8136141,9.9477028 L28.0602642,18.5399195 L22.2456639,18.5460766 C21.9478148,15.8007848 20.6071088,13.3656564 18.6322227,11.6401324 L19.8136141,9.9477028 Z M19.9221327,18.5491551 L13.8096834,18.5545426 L17.3030613,13.5465209 C18.6953329,14.8333523 19.6512209,16.5827351 19.9221327,18.5491551 L19.9221327,18.5491551 Z M11.6031368,28.1095739 C6.96992791,28.1095739 3.20025061,24.339127 3.20025061,19.7066877 C3.20025061,15.0734788 6.96992791,11.3038015 11.6031368,11.3038015 C12.9769372,11.3038015 14.2730042,11.6370539 15.4182227,12.2235166 L10.6587934,19.0478793 C10.4125099,19.3996029 10.3824941,19.8598453 10.5841387,20.2415848 C10.7827048,20.6233242 11.1759888,20.8611418 11.6062154,20.8611418 L11.6062154,20.8611418 L19.9275202,20.8549847 C19.3656859,24.9463698 15.8484492,28.1095739 11.6031368,28.1095739 L11.6031368,28.1095739 Z M30.5792829,17.8364722 L22.3749628,9.28658544 L36.0483166,9.28658544 L30.5792829,17.8364722 Z M46.5553877,28.1095739 C41.9229484,28.1095739 38.1525015,24.339127 38.1525015,19.7066877 C38.1525015,17.196135 39.261547,14.9380228 41.0116994,13.3987508 L45.5933427,20.3408678 C45.8157675,20.6771988 46.1828839,20.8580632 46.5553877,20.8580632 C46.7716555,20.8580632 46.9940803,20.7980316 47.1895678,20.6687328 C47.722156,20.3170091 47.8660779,19.6043261 47.5174328,19.071738 L42.9357895,12.1242335 C44.0332904,11.5978025 45.2593206,11.3038015 46.5553877,11.3038015 C51.1885967,11.3038015 54.958274,15.0734788 54.958274,19.7066877 C54.958274,24.3422056 51.1885967,28.1095739 46.5553877,28.1095739 L46.5553877,28.1095739 Z" id="Fill-1"></path>
                                    <path d="M15.1565464,6.02409829 L21.7831127,6.02409829 C22.4203713,6.02409829 22.9344882,5.50690287 22.9344882,4.87272278 C22.9344882,4.23546415 22.4172928,3.72134727 21.7831127,3.72134727 L15.1565464,3.72134727 C14.5192878,3.72134727 14.0051709,4.23854269 14.0051709,4.87272278 C14.0051709,5.50998142 14.5192878,6.02409829 15.1565464,6.02409829 L15.1565464,6.02409829 Z" id="Fill-2"></path>
                                </g>
                            </g>
                        </g>
                    </g>
                </g>
            </g>
        </g>
    </g>
</svg>