<?xml version="1.0" encoding="UTF-8" standalone="no"?>
<svg width="39px" height="38px" viewBox="0 0 39 38" version="1.1" xmlns="http://www.w3.org/2000/svg" xmlns:xlink="http://www.w3.org/1999/xlink" xmlns:sketch="http://www.bohemiancoding.com/sketch/ns">
    <!-- Generator: Sketch 3.3.3 (12072) - http://www.bohemiancoding.com/sketch -->
    <title>Imported Layers</title>
    <desc>Created with Sketch.</desc>
    <defs></defs>
    <g id="Page-1" stroke="none" stroke-width="1" fill="none" fill-rule="evenodd" sketch:type="MSPage">
        <g id="Simpler-3-1" sketch:type="MSArtboardGroup" transform="translate(-430.000000, -588.000000)">
            <g id="X3" sketch:type="MSLayerGroup" transform="translate(335.000000, 469.000000)">
                <g id="Imported-Layers-Copy-2-+-Rectangle-879" sketch:type="MSShapeGroup">
                    <g id="Line-Copy-15-+-Oval-562-+-Imported-Layers" transform="translate(76.299015, 100.649455)">
                        <g id="Imported-Layers" transform="translate(19.216250, 19.166862)">
                            <path d="M0.0956032361,3.835427 L22.0843475,0.0958856749 L22.0843475,36.9159848 L0.0956032361,33.0805579 L0.0956032361,3.835427" id="Fill-1" fill="#FFFFFF"></path>
                            <path d="M4.01533592,12.4651377 L6.11860711,12.4651377 L7.55265566,21.3825055 L9.46472038,12.081595 L11.8548013,12.081595 L13.766866,21.3825055 L15.2965178,11.6980523 L17.7822019,11.6980523 L14.8185016,25.1220468 L12.2372142,24.9302755 L10.4207527,15.7252507 L8.50868802,24.7385041 L6.21421035,24.6426185 L4.01533592,12.4651377" id="Fill-2" fill="#00DC00"></path>
                            <path d="M38.3368977,32.1217011 C38.3368977,32.4392745 38.0802986,32.6970152 37.7632783,32.6970152 L23.0403799,32.6970152 L23.0403799,28.6698168 L34.8951812,28.6698168 L34.8951812,27.135646 L23.0403799,27.135646 L23.0403799,24.8343898 L34.8951812,24.8343898 L34.8951812,23.300219 L23.0403799,23.300219 L23.0403799,20.9989628 L34.8951812,20.9989628 L34.8951812,19.464792 L23.0403799,19.464792 L23.0403799,17.1635358 L34.8951812,17.1635358 L34.8951812,15.629365 L23.0403799,15.629365 L23.0403799,13.3281088 L34.8951812,13.3281088 L34.8951812,11.793938 L23.0403799,11.793938 L23.0403799,9.49268182 L34.8951812,9.49268182 L34.8951812,7.95851102 L23.0403799,7.95851102 L23.0403799,4.31485537 L37.7632783,4.31485537 C38.0802986,4.31485537 38.3368977,4.57240429 38.3368977,4.89016942 L38.3368977,32.1217011" id="Fill-3" fill="#FFFFFF"></path>
                        </g>
                    </g>
                </g>
            </g>
        </g>
    </g>
</svg>