<?xml version="1.0" encoding="UTF-8" standalone="no"?>
<svg width="34px" height="40px" viewBox="0 0 34 40" version="1.1" xmlns="http://www.w3.org/2000/svg" xmlns:xlink="http://www.w3.org/1999/xlink" xmlns:sketch="http://www.bohemiancoding.com/sketch/ns">
    <!-- Generator: Sketch 3.3.2 (12043) - http://www.bohemiancoding.com/sketch -->
    <title>noun_36600</title>
    <desc>Created with Sketch.</desc>
    <defs></defs>
    <g id="Page-1" stroke="none" stroke-width="1" fill="none" fill-rule="evenodd" sketch:type="MSPage">
        <g id="Faster-3" sketch:type="MSArtboardGroup" transform="translate(-321.000000, -731.000000)">
            <g id="Faster" sketch:type="MSLayerGroup" transform="translate(-36.000000, 93.000000)">
                <g id="Faster-3" transform="translate(250.000000, 81.000000)" sketch:type="MSShapeGroup">
                    <g id="Group">
                        <g id="Imported-Layers-+-Mask-Copy-6" transform="translate(89.000000, 543.000000)">
                            <g id="noun_36600" transform="translate(18.000000, 14.000000)">
                                <path d="M17.085,23.096 C20.8818158,23.096 24.0080263,18.9306667 24.412,13.5768889 C24.4625526,13.2315556 24.4907368,12.8773333 24.4952105,12.5186667 L23.3105789,13.8711111 C23.5190526,13.4128889 23.4237632,12.7288889 23.1987368,12.0097778 L10.7529474,12.0097778 C10.7601053,13.2577778 10.9497895,14.3808889 10.9497895,14.3808889 C10.5109211,14.0764444 10.1073947,13.9177778 9.77857895,13.836 C10.2630789,19.0648889 13.3490263,23.096 17.085,23.096 L17.085,23.096 Z" id="Shape"></path>
                                <path id="Shape" fill="#FFFFFF" d="M10.4203333,23.1693333 C10.4362424,23.2275556 10.4589697,23.2897778 10.487,23.3542222 C10.4445758,23.2337778 10.4210909,23.1106667 10.4157879,22.9871111 C10.406697,22.9871111 10.3976061,22.988 10.387,22.9884444 C10.3877576,23.0026667 10.3915455,23.0195556 10.3930606,23.0342222 C10.3983636,23.0773333 10.406697,23.1217778 10.4203333,23.1693333 L10.4203333,23.1693333 Z"></path>
                                <path id="Shape" fill="#FFFFFF" d="M10.6330526,23.9151111 C10.6138158,23.8666667 10.5968158,23.8208889 10.5798158,23.7746667 C10.5234474,23.6222222 10.4778158,23.4813333 10.4460526,23.3546667 C10.4295,23.2897778 10.4160789,23.228 10.4066842,23.1697778 C10.4353158,23.4262222 10.5122632,23.6751111 10.6330526,23.9151111 L10.6330526,23.9151111 Z"></path>
                                <path id="Shape" fill="#FFFFFF" d="M23.7646579,23.1555556 C23.7217105,23.4133333 23.5982368,23.7471111 23.4130263,24.1377778 C23.6098684,23.8266667 23.7288684,23.4982222 23.7646579,23.1555556 L23.7646579,23.1555556 Z"></path>
                                <path id="Shape" fill="#FFFFFF" d="M23.7789737,23.0866667 C23.7809737,23.0530033 23.7899737,23.0213201 23.7919737,22.9876568 C23.7899737,22.9876568 23.7889737,22.9866667 23.7889737,22.9866667 C23.7889737,23.0173597 23.7829737,23.0549835 23.7789737,23.0866667 L23.7789737,23.0866667 Z"></path>
                                <path id="Shape" fill="#FFFFFF" d="M23.8022368,22.9884444 C23.7959737,22.988 23.7906053,22.9871111 23.7847895,22.9866667 L23.7847895,22.9871111 C23.7901579,22.9871111 23.7959737,22.988 23.8022368,22.9884444 C24.1471579,23.02 24.4871579,23.0684444 24.8213421,23.1297778 C24.4867105,23.0684444 24.1467105,23.02 23.8022368,22.9884444 L23.8022368,22.9884444 Z"></path>
                                <path id="Shape" fill="#FFFFFF" d="M9.86357895,23.0866667 C10.0362632,23.0459259 10.2102895,23.0133333 10.3856579,22.9874074 L10.3856579,22.9866667 C10.2102895,23.0125926 10.0362632,23.0466667 9.86357895,23.0866667 L9.86357895,23.0866667 Z"></path>
                                <path id="Shape" fill="#FFFFFF" d="M10.3886579,22.990405 L10.3886579,22.9866667 C10.3876579,22.9866667 10.3866579,22.9876012 10.3856579,22.9876012 L10.3856579,22.9913396 C10.3866579,23.0231153 10.3956579,23.054891 10.3966579,23.0866667 C10.3956579,23.0558255 10.3896579,23.0203115 10.3886579,22.990405 L10.3886579,22.990405 Z"></path>
                                <path id="Shape" fill="#FFFFFF" d="M10.4260263,23.1693333 C10.4080263,23.1217778 10.3970263,23.0773333 10.3910263,23.0337778 C10.3960263,23.08 10.4140263,23.1244444 10.4260263,23.1693333 L10.4260263,23.1693333 Z"></path>
                                <path id="Shape" fill="#FFFFFF" d="M23.7966579,23.0315556 C23.7906579,23.0711111 23.7816579,23.1111111 23.7646579,23.1555556 C23.7736579,23.1142222 23.7916579,23.0733333 23.7966579,23.0315556 L23.7966579,23.0315556 Z"></path>
                                <path d="M23.8022368,22.9871111 L23.8022368,22.9884444 C23.7557105,24.9866667 20.7748947,26.5991111 17.1028947,26.5991111 C13.9270263,26.5991111 11.2701053,25.3928889 10.5798158,23.7746667 C10.5972632,23.8208889 10.6138158,23.8666667 10.6330526,23.9151111 C10.5118158,23.6751111 10.4353158,23.4262222 10.4066842,23.1693333 C10.4013158,23.124 10.3932632,23.08 10.3910263,23.0337778 C10.3905789,23.0191111 10.3865526,23.004 10.3861053,22.9884444 C4.77565789,23.5066667 0.383842105,28.1955556 0.383842105,33.904 C0.383842105,39.96 5.32502632,39.9448889 11.4204211,39.9448889 L22.7862632,39.9448889 C28.8816579,39.9448889 33.8228421,39.96 33.8228421,33.904 C33.8223947,28.1897778 29.4211842,23.4968889 23.8022368,22.9871111 L23.8022368,22.9871111 Z" id="Shape" fill="#FFFFFF"></path>
                                <path d="M8.43960526,12.0097778 L8.44497368,12.0097778 L8.64405263,12.0097778 C8.64315789,12.0706667 8.64092105,12.1311111 8.64092105,12.1924444 C8.64092105,12.3777778 8.64807895,12.5613333 8.65836842,12.7435556 C8.67402632,13.0093333 8.69952632,13.2728889 8.73755263,13.5324444 C8.74336842,13.6115556 8.75052632,13.6902222 8.75723684,13.7688889 C9.29005263,19.7546667 12.8139737,24.3782222 17.085,24.3782222 C21.4097105,24.3782222 24.9703158,19.6337778 25.4315526,13.5355556 C25.4959737,13.0977778 25.5286316,12.6488889 25.5286316,12.1924444 C25.5286316,12.1311111 25.5263947,12.0706667 25.5250526,12.0097778 L25.7603684,12.0097778 L25.7657368,12.0097778 C26.4631842,12.0097778 28.4065526,11.4484444 28.4065526,10.756 C28.4065526,10.0635556 26.4627368,9.50266667 25.7657368,9.50266667 L25.7603684,9.50266667 C25.2964474,6.312 23.0882368,3.04311111 20.128,1.64888889 L19.9584474,3.88977778 L19.8385526,5.47377778 L19.7557895,5.47066667 L19.8698684,3.85733333 L20.0286842,1.60444444 L20.0613421,1.14088889 L18.6776316,1.08222222 L18.6758421,1.13688889 L18.6011316,3.50622222 L18.5411842,5.41777778 L18.5371579,5.53022222 L18.4266579,9.04133333 L18.1877632,9.04133333 L18.3416579,3.46222222 L18.4069737,1.07955556 L18.4297895,0.262222222 L15.3957368,0.262222222 L15.4203421,1.164 L15.4856579,3.52222222 L15.6377632,9.04133333 L15.3984211,9.04133333 L15.2879211,5.528 L15.2847895,5.41555556 L15.2270789,3.57866667 L15.1532632,1.23688889 L15.1478947,1.07955556 L13.7096053,1.14044444 L13.7565789,1.80888889 L13.9118158,4.00977778 L14.0147105,5.47066667 L13.9323947,5.47377778 L13.8245789,4.04666667 L13.6590526,1.85955556 C10.9095263,3.35288889 8.88563158,6.464 8.44363158,9.50311111 L8.43826316,9.50311111 C7.74126316,9.50311111 5.79744737,10.0644444 5.79744737,10.7564444 C5.79878947,11.4488889 7.74305263,12.0097778 8.43960526,12.0097778 L8.43960526,12.0097778 Z M10.7529474,12.0097778 L23.1987368,12.0097778 C23.4237632,12.7288889 23.5190526,13.4124444 23.3105789,13.8711111 L24.4952105,12.5186667 C24.4907368,12.8773333 24.463,13.2315556 24.412,13.5768889 C24.0080263,18.9306667 20.8813684,23.096 17.085,23.096 C13.3485789,23.096 10.2626316,19.0644444 9.77813158,13.836 C10.1069474,13.9182222 10.5104737,14.0764444 10.9493421,14.3808889 C10.9497895,14.3808889 10.7596579,13.2582222 10.7529474,12.0097778 L10.7529474,12.0097778 Z" id="Shape" fill="#FFFFFF"></path>
                            </g>
                        </g>
                    </g>
                </g>
            </g>
        </g>
    </g>
</svg>