<?xml version="1.0" encoding="UTF-8" standalone="no"?>
<svg width="66px" height="68px" viewBox="0 0 66 68" version="1.1" xmlns="http://www.w3.org/2000/svg" xmlns:xlink="http://www.w3.org/1999/xlink" xmlns:sketch="http://www.bohemiancoding.com/sketch/ns">
    <!-- Generator: Sketch 3.3.3 (12072) - http://www.bohemiancoding.com/sketch -->
    <title>Imported Layers</title>
    <desc>Created with Sketch.</desc>
    <defs></defs>
    <g id="Page-1" stroke="none" stroke-width="1" fill="none" fill-rule="evenodd" sketch:type="MSPage">
        <g id="Flexible-1" sketch:type="MSArtboardGroup" transform="translate(-713.000000, -694.000000)" fill="#2A3456">
            <g id="Faster" sketch:type="MSLayerGroup" transform="translate(-36.000000, 93.000000)">
                <g id="Mask-+-23.11.12_490" transform="translate(36.000000, 16.000000)" sketch:type="MSShapeGroup">
                    <g id="Flexible-2" transform="translate(229.000000, 275.000000)">
                        <g id="Group">
                            <g id="Service-+-Imported-Layers" transform="translate(443.000000, 285.000000)">
                                <path d="M73.5127123,25 C59.7357123,25.004 59.8957123,37.023 59.8957123,37.023 L59.8017123,43.422 C58.6767123,43.406 58.4187123,44.527 58.4187123,46.75 C58.4187123,50.043 60.3877123,53.484 62.2157123,55.305 C64.2787123,56.938 66.9897123,57.727 69.5987123,57.414 C69.6887123,56.953 69.8677123,56.504 70.1607123,56.102 C71.2467123,54.602 73.3487123,54.266 74.8487123,55.352 C76.3487123,56.438 76.6847123,58.539 75.5987123,60.039 C74.5127123,61.539 72.4347123,61.875 70.9347123,60.789 C70.6647123,60.594 70.4227123,60.359 70.2317123,60.109 C68.5007123,60.375 66.7157123,60.238 65.0287123,59.781 C64.6687123,59.688 64.3217123,59.582 63.9737123,59.453 C66.1027123,63.211 69.4617123,65.758 73.5127123,65.758 C78.8997123,65.758 83.0597123,61.246 84.7157123,55.375 C86.5637123,53.574 88.6067123,50.086 88.6067123,46.75 C88.6067123,44.527 88.3247123,43.406 87.2007123,43.422 L87.1297123,37.023 C87.1297123,37.023 87.2897123,25.004 73.5127123,25 L73.5127123,25 Z M63.2237123,64.305 C58.7547123,66.547 52.3407123,68.297 49.0437123,70.047 C47.8647123,70.672 46.6177123,71.77 45.5987123,73.164 C44.9467123,74.066 44.3607123,75.027 43.8647123,76.023 C43.8527123,76.051 43.8527123,76.09 43.8407123,76.117 C42.6337123,78.5 41.8287123,81.074 41.3797123,83.664 C41.2667123,84.254 41.1807123,84.824 41.0987123,85.398 C41.0477123,85.73 40.9817123,86.457 41.0047123,86.805 C41.0047123,86.824 41.0087123,86.832 41.0047123,86.852 C40.8527123,89.012 44.8957123,89.734 44.8957123,89.734 C46.4147123,90.184 49.2117123,90.66 52.6067123,91.117 C57.0247123,91.832 64.3877123,92.234 69.4347123,92.5 C69.4347123,92.5 63.0167123,83.043 63.2237123,64.352 L63.2237123,64.305 L63.2237123,64.305 Z M83.8017123,64.305 L83.8017123,64.352 C84.0087123,83.043 77.5907123,92.5 77.5907123,92.5 C82.6377123,92.234 90.0007123,91.832 94.4187123,91.117 C97.8137123,90.66 100.610712,90.184 102.129712,89.734 C102.129712,89.734 106.172712,89.012 106.020712,86.852 C106.016712,86.832 106.020712,86.824 106.020712,86.805 C106.043712,86.457 105.977712,85.73 105.926712,85.398 C105.844712,84.824 105.758712,84.254 105.645712,83.664 C105.196712,81.074 104.391712,78.5 103.184712,76.117 C103.172712,76.09 103.172712,76.051 103.160712,76.023 C102.664712,75.027 102.078712,74.066 101.426712,73.164 C100.407712,71.77 99.1607123,70.672 97.9817123,70.047 C94.6847123,68.297 88.2707123,66.547 83.8017123,64.305 L83.8017123,64.305 Z M69.8327123,71.898 C69.1767123,71.988 68.6967123,72.395 68.6847123,73.023 L68.6847123,74.781 C68.6847123,75.086 68.8177123,75.391 69.0357123,75.602 C69.8527123,76.387 70.6767123,77.168 71.4967123,77.945 C70.9657123,81.984 70.4657123,86.031 69.9507123,90.062 C69.8217123,90.914 70.2317123,91.336 71.0747123,91.352 L75.9267123,91.352 C76.6377123,91.285 77.1177123,90.809 77.0517123,90.062 C76.5287123,86.039 76.0397123,82.004 75.5047123,77.969 C76.3177123,77.195 77.1687123,76.418 77.9897123,75.531 C78.1927123,75.312 78.3057123,75.008 78.2937123,74.711 C78.2787123,74.301 78.4037123,73.695 78.3177123,72.906 C78.2007123,72.32 77.7157123,71.91 77.1687123,71.898 L69.8327123,71.898 Z" id="Imported-Layers"></path>
                            </g>
                        </g>
                    </g>
                </g>
            </g>
        </g>
    </g>
</svg>