<?xml version="1.0" encoding="UTF-8" standalone="no"?>
<svg width="36px" height="39px" viewBox="0 0 36 39" version="1.1" xmlns="http://www.w3.org/2000/svg" xmlns:xlink="http://www.w3.org/1999/xlink" xmlns:sketch="http://www.bohemiancoding.com/sketch/ns">
    <!-- Generator: Sketch 3.3.3 (12072) - http://www.bohemiancoding.com/sketch -->
    <title>Fill 1 + Fill 2 + Fill 3</title>
    <desc>Created with Sketch.</desc>
    <defs></defs>
    <g id="Page-1" stroke="none" stroke-width="1" fill="none" fill-rule="evenodd" sketch:type="MSPage">
        <g id="Faster-4-2" sketch:type="MSArtboardGroup" transform="translate(-319.000000, -414.000000)" fill="#00DC00">
            <g id="Faster" sketch:type="MSLayerGroup" transform="translate(-36.000000, 93.000000)">
                <g id="Faster-3" transform="translate(250.000000, 81.000000)" sketch:type="MSShapeGroup">
                    <g id="Imported-Layers-+-Rectangle-847-+-CustomerList" transform="translate(75.000000, 188.000000)">
                        <g id="Rectangle-847-+-CustomerList" transform="translate(5.105263, 14.297872)">
                            <g id="Fill-1-+-Fill-2-+-Fill-3" transform="translate(24.919781, 38.175532)">
                                <path d="M19.1476375,21.5623834 L19.1476375,0 C13.3184741,0.365438137 8.09510827,2.6112216 3.87619709,6.11125007 L19.1476375,21.5623834 Z" id="Fill-1"></path>
                                <path d="M17.3403247,23.2653762 L4.84688434,10.5936171 C-1.38396011,17.8844913 -1.38396011,28.64575 4.84688434,35.9366242 L17.3403247,23.2653762 Z" id="Fill-2"></path>
                                <path d="M21.4725494,4.80947254 L21.4725494,22.5523885 L9.17415365,34.9926182 C11.9244342,37.0411162 15.237673,38.3326717 18.9369691,38.3326717 C28.1721057,38.3326717 35.6100094,30.7520025 35.6100094,21.4024084 C35.6100094,12.9232214 29.4734113,6.05553992 21.4725494,4.80947254 L21.4725494,4.80947254 Z" id="Fill-3"></path>
                            </g>
                        </g>
                    </g>
                </g>
            </g>
        </g>
    </g>
</svg>