<?xml version="1.0" encoding="UTF-8"?>
<svg width="76px" height="30px" viewBox="0 0 76 30" version="1.1" xmlns="http://www.w3.org/2000/svg" xmlns:xlink="http://www.w3.org/1999/xlink">
    <!-- Generator: Sketch 49.2 (51160) - http://www.bohemiancoding.com/sketch -->
    <title>Group</title>
    <desc>Created with Sketch.</desc>
    <defs></defs>
    <g id="Symbols" stroke="none" stroke-width="1" fill="none" fill-rule="evenodd">
        <g id="X3" transform="translate(-33.000000, -83.000000)" fill="#00DC00">
            <g id="Imported-Layers" transform="translate(33.000000, 75.000000)">
                <g id="Group" transform="translate(0.000000, 8.000000)">
                    <path d="M65.7091795,0.631211985 C59.9297714,0.631211985 56.1468572,4.59596146 56.1468572,11.1357 C56.1468572,19.2528403 61.9328632,21.5815995 66.0651967,21.5815995 C71.2996267,21.5815995 74.2839432,18.0631252 74.2839432,18.0631252 L71.6210715,15.3936556 C70.2083507,16.6625444 68.5702491,17.4218191 66.1306469,17.4218191 C62.9096014,17.4218191 60.7383976,15.5374877 60.7383976,12.9598595 L75.0923056,12.9598595 C75.0923056,12.9598595 77.5984136,0.631211985 65.7091795,0.631211985 M60.7447315,9.45431684 C60.7447315,5.98361057 63.3746142,4.30618612 66.2108761,4.30618612 C69.0460824,4.30618612 71.6033894,6.01237698 71.6033894,9.45431684 L60.7447315,9.45431684" id="Fill-1"></path>
                    <path d="M12.8444457,9.10436958 C11.0081462,8.87503008 5.68820882,9.08167315 5.68820882,6.65764174 C5.68820882,5.22064108 7.91773711,4.44737902 9.97387524,4.44737902 C13.2590514,4.44737902 15.4241852,5.76060496 16.0538791,6.19737927 L18.8138705,3.43738792 C17.9965351,2.77787192 14.954158,0.631211985 9.97387524,0.631211985 C5.43590898,0.631211985 1.35345477,3.00404447 1.35345477,6.80912721 C1.35345477,12.6473877 8.39858471,12.6458043 11.3401475,12.9332044 C13.1220811,13.1071224 14.7490984,13.2295775 14.7490984,14.9766747 C14.7490984,16.600789 12.2609363,17.5044236 10.334379,17.5044236 C7.19541006,17.5044236 5.31424556,16.4730556 3.4734596,14.8185915 L0.503394328,17.7920876 C3.22775756,20.4224982 6.67893434,21.5810717 10.0791761,21.5810717 C15.3450116,21.5810717 19.1941676,19.2573268 19.1941676,14.5818624 C19.1941676,11.4827442 17.1111105,9.63747175 12.8444457,9.10436958" id="Fill-2"></path>
                    <path d="M28.0146333,0.631211985 C23.4352329,0.631211985 20.4667511,2.9626103 19.9143834,3.43290142 L22.6902094,6.20899139 C23.243105,5.77010579 25.1266447,4.47086718 28.0494697,4.47086718 C31.5568598,4.47086718 32.6040624,5.86933669 32.6040624,7.45096111 L32.6040624,9.42080002 L26.351724,9.42423088 C24.040383,9.42423088 19.4931799,10.0064207 19.4931799,15.0943795 C19.4931799,18.831109 21.6364089,21.5815995 26.7531341,21.5815995 C29.3217893,21.5815995 31.2641814,20.7492212 32.6040624,19.1441086 L32.6040624,21.1722721 L37.1425565,21.1722721 L37.1425565,7.75182075 C37.1425565,3.05841034 34.2645965,0.631211985 28.0146333,0.631211985 M32.6352041,13.8524098 C32.6352041,17.7321796 29.8701984,17.5234252 27.4005102,17.5234252 C24.901,17.5234252 23.3045965,16.8575753 23.3045965,15.1181316 C23.3045965,13.4971843 24.6048907,12.9598595 27.2912506,12.9598595 L32.6352041,12.9598595 L32.6352041,13.8524098" id="Fill-3"></path>
                    <path d="M51.1541706,1.06191631 L51.1541706,3.31414104 C49.6087022,1.51795619 47.7636936,0.631211985 45.2441261,0.631211985 C40.9418332,0.631211985 38.7265562,3.04415909 37.9765183,5.61307817 C37.6978273,6.56764776 37.6020273,8.39101553 37.6020273,11.0858206 C37.6020273,13.6246537 37.6252515,15.9338834 38.508037,17.7094832 C39.7428811,20.1939504 42.7403932,21.5815995 45.2441261,21.5815995 C47.6702688,21.5815995 49.729046,20.6410173 51.1541706,19.0089857 L51.1541706,20.2694292 C51.1541706,21.7507671 50.646404,22.7232827 49.699224,23.4923222 C48.7494048,24.2634729 47.5583701,24.7361393 45.9049616,24.7361393 C44.4054138,24.7361393 42.9678854,23.9182761 42.1487026,23.348754 L39.098672,26.3985207 C41.0761644,28.0020498 43.4402878,29.0938536 45.9917887,29.1149666 C48.6955668,29.1371352 50.871257,28.3182164 52.778021,26.8191964 C54.6032361,25.3840431 55.7536284,22.6858072 55.7536284,19.823418 L55.7536284,1.06191631 L51.1541706,1.06191631 L51.1541706,1.06191631 Z M51.1541706,11.0947936 C51.1541706,12.6587359 51.1285712,13.8170456 51.0021574,14.4066249 C50.7232024,15.7095583 49.2423924,17.4218191 46.5549768,17.4218191 C45.8817374,17.4218191 42.4337275,17.0359798 42.0476243,14.0492881 C41.9697703,13.4509997 41.910654,12.6587359 41.910654,11.0947936 C41.910654,8.76920138 42.0061902,8.02998396 42.1254784,7.43908507 C42.3629991,6.26757985 43.8944803,4.54449862 46.5549768,4.54449862 C49.8119144,4.54449862 50.8583253,6.76399826 51.0113943,7.62171215 C51.1177508,8.21525016 51.1541706,9.53085131 51.1541706,11.0947936 L51.1541706,11.0947936 Z" id="Fill-4"></path>
                </g>
            </g>
        </g>
    </g>
</svg>