<?xml version="1.0" encoding="UTF-8" standalone="no"?>
<svg width="32px" height="42px" viewBox="0 0 32 42" version="1.1" xmlns="http://www.w3.org/2000/svg" xmlns:xlink="http://www.w3.org/1999/xlink" xmlns:sketch="http://www.bohemiancoding.com/sketch/ns">
    <!-- Generator: Sketch 3.3.3 (12072) - http://www.bohemiancoding.com/sketch -->
    <title>Pin</title>
    <desc>Created with Sketch.</desc>
    <defs></defs>
    <g id="Page-1" stroke="none" stroke-width="1" fill="none" fill-rule="evenodd" sketch:type="MSPage">
        <g id="Flexible-3" sketch:type="MSArtboardGroup" transform="translate(-343.000000, -600.000000)">
            <g id="Faster" sketch:type="MSLayerGroup" transform="translate(-51.000000, 87.000000)">
                <g id="Mask-+-23.11.12_490" transform="translate(50.000000, 17.000000)" sketch:type="MSShapeGroup">
                    <g id="Group" transform="translate(207.000000, 409.000000)">
                        <g id="Pin" transform="translate(138.500000, 88.150812)">
                            <path d="M14.3874696,38.905616 C18.8318831,38.905616 28.6780539,22.5066023 28.6780539,14.6153372 C28.6780539,6.72407221 22.2799414,0.32693795 14.3874696,0.32693795 C6.49499785,0.32693795 0.0968853174,6.72407221 0.0968853174,14.6153372 C0.0968853174,22.5066023 9.94305615,38.905616 14.3874696,38.905616 Z" id="Oval-1457" stroke="#2A3456" stroke-width="2" stroke-linecap="round" stroke-linejoin="round" fill="#2A3456"></path>
                            <g id="Imported-Layers-Copy-17" transform="translate(6.539759, 5.231007)" fill="#FFFFFF">
                                <path d="M2.50687271,6.76031831 C2.54477715,6.77867914 2.58338789,6.78691798 2.62199862,6.78691798 C2.71946719,6.78691798 2.81316886,6.73277706 2.8593134,6.63885432 C4.14406212,3.9970126 5.90320495,3.84824276 7.94109846,3.67616877 C8.33662308,3.64321343 8.74674445,3.60813953 9.15710124,3.5539986 C12.0079391,3.17595371 13.0066388,0.670405883 13.0480747,0.563771801 C13.1005759,0.427477908 13.0332425,0.274941738 12.8971632,0.222448581 C12.7610839,0.170190819 12.6085244,0.238220068 12.5560232,0.373336984 C12.5477831,0.397347307 11.6317199,2.69409948 9.08811986,3.0307148 C8.68977007,3.08320795 8.28694708,3.11710488 7.89707281,3.15029562 C6.83951531,3.23951045 5.84152194,3.32401737 4.90073838,3.75173067 C3.82952587,4.23899899 3.03023654,5.08218504 2.38562558,6.40722532 C2.3211174,6.53857591 2.37550203,6.69676157 2.50687271,6.76031831 L2.50687271,6.76031831 Z" id="Fill-1"></path>
                                <path d="M11.2639761,12.575289 L11.2639761,11.4442145 L8.17205659,12.575289 L8.17205659,11.4442145 L5.19149606,12.534801 L5.8149182,17.44962 L14.3558957,17.44962 L14.3558957,11.4442145 L11.2639761,12.575289 Z" id="Fill-2"></path>
                                <path d="M4.16595723,8.99916323 L4.67189914,8.99916323 L4.67189914,7.42695787 L0.572098111,7.42695787 L0.572098111,8.99916323 L1.07780459,8.99916323 L4.16595723,8.99916323 Z" id="Fill-3"></path>
                                <path d="M1.02365538,9.42593496 L0.00470862642,17.44962 L5.2383469,17.44962 L4.22034186,9.42593496 L1.02365538,9.42593496 Z" id="Fill-4"></path>
                            </g>
                        </g>
                    </g>
                </g>
            </g>
        </g>
    </g>
</svg>