<?xml version="1.0" encoding="UTF-8" standalone="no"?>
<svg width="36px" height="38px" viewBox="0 0 36 38" version="1.1" xmlns="http://www.w3.org/2000/svg" xmlns:xlink="http://www.w3.org/1999/xlink" xmlns:sketch="http://www.bohemiancoding.com/sketch/ns">
    <!-- Generator: Sketch 3.3.2 (12043) - http://www.bohemiancoding.com/sketch -->
    <title>Group</title>
    <desc>Created with Sketch.</desc>
    <defs></defs>
    <g id="Page-1" stroke="none" stroke-width="1" fill="none" fill-rule="evenodd" sketch:type="MSPage">
        <g id="Faster-2" sketch:type="MSArtboardGroup" transform="translate(-722.000000, -731.000000)">
            <g id="Faster" sketch:type="MSLayerGroup" transform="translate(-36.000000, 93.000000)">
                <g id="Faster-3" transform="translate(250.000000, 101.000000)" sketch:type="MSShapeGroup">
                    <g id="Group">
                        <g id="Imported-Layers-+-Mask-Copy-6" transform="translate(490.000000, 522.000000)">
                            <g id="Group" transform="translate(17.000000, 12.000000)">
                                <path d="M34.325875,7.30648276 C32.0625,4.08633333 28.794025,1.62162069 24.968375,0.342137931 C26.410475,1.98637931 27.95565,4.28332184 29.1327,7.30648276 L34.325875,7.30648276 L34.325875,7.30648276 Z" id="Shape"></path>
                                <path d="M13.0302,0.342137931 C9.205975,1.62162069 5.9413,4.08633333 3.675075,7.30648276 L8.86825,7.30648276 C10.044825,4.2852069 11.589525,1.99062069 13.0302,0.342137931 L13.0302,0.342137931 Z" id="Shape"></path>
                                <path d="M30.969525,16.5828506 L37.6295,16.5828506 C37.460875,14.2218161 36.8467,11.9894368 35.869625,9.95545977 L30.0048,9.95545977 C30.5349,11.9064943 30.877375,14.1181379 30.969525,16.5828506 L30.969525,16.5828506 Z" id="Shape"></path>
                                <path d="M7.990925,9.95545977 L2.129425,9.95545977 C1.15235,11.9889655 0.53865,14.2218161 0.368125,16.5828506 L7.030475,16.5828506 C7.1231,14.120023 7.465575,11.9064943 7.990925,9.95545977 L7.990925,9.95545977 Z" id="Shape"></path>
                                <path d="M30.009075,25.8582759 L35.8701,25.8582759 C36.847175,23.8261839 37.457075,21.5942759 37.628075,19.2337126 L30.969525,19.2337126 C30.8731,21.697954 30.530625,23.9095977 30.009075,25.8582759 L30.009075,25.8582759 Z" id="Shape"></path>
                                <path d="M23.766625,24.6829425 C23.759975,24.6805862 23.756175,24.6777586 23.75,24.674931 C22.937275,25.4694828 22.035725,26.0981494 21.0729,26.477046 C20.4193,26.7338851 19.7372,26.8766782 19.036575,26.8766782 C18.33595,26.8766782 17.654325,26.7338851 17.00025,26.477046 C16.0284,26.0943793 15.1183,25.4572299 14.300825,24.6532529 L14.2994,24.6532529 C14.29845,25.6433793 13.5375,26.2074828 13.019275,26.477046 C12.958,26.5086207 12.90005,26.535954 12.84685,26.5599885 C12.718125,26.6188966 12.6198,26.6537701 12.57705,26.667908 C12.57705,26.667908 12.57705,26.667908 12.57705,26.6688506 C12.606975,26.9219195 12.720975,27.1679195 12.903375,27.3997816 C13.760275,28.4855747 16.1652,30.0534713 19.00095,30.0534713 C21.83575,30.0534713 24.240675,28.486046 25.0971,27.3997816 C25.28045,27.1679195 25.393975,26.9214483 25.424375,26.6697931 C25.4258,26.6613103 25.4258,26.6551839 25.42675,26.6467011 C25.076675,26.5185172 23.786575,25.9591264 23.766625,24.6829425 L23.766625,24.6829425 Z" id="Shape"></path>
                                <path d="M26.579575,15.2845172 C26.553925,15.2722644 26.526375,15.2637816 26.498825,15.2585977 L25.6899,16.0314713 L15.7339,10.947 C12.4792,10.6477471 11.961925,14.9621724 11.922975,15.3471954 C11.9206,15.3651034 11.91965,15.3745287 11.91965,15.375 L11.91965,15.3745287 C11.804225,15.2816897 11.686425,15.2388046 11.573375,15.2581264 C11.523975,15.2661379 11.4779,15.2868736 11.434675,15.3175057 C11.120225,15.5418276 10.9934,16.3241264 11.153,17.2101034 C11.275075,17.8835402 11.530625,18.4452874 11.810875,18.7219195 C11.948625,18.8595287 12.093975,18.9278621 12.22935,18.9033563 C12.296325,18.892046 12.357125,18.8595287 12.4108,18.8095747 C13.072,20.8515632 14.335975,22.8855402 15.929125,24.1131839 C16.867725,24.8375172 17.92175,25.2819195 19.036575,25.2819195 C20.1438,25.2819195 21.192125,24.8427011 22.126925,24.1268506 C23.7291,22.8996782 24.9983,20.8581609 25.66235,18.8091034 C25.7165,18.8595287 25.7773,18.892046 25.843325,18.9028851 C25.96065,18.9236207 26.084625,18.876023 26.204325,18.7751724 C26.50595,18.5216322 26.789525,17.9292529 26.918725,17.2096322 C27.087825,16.2722874 26.934875,15.449931 26.579575,15.2845172 L26.579575,15.2845172 Z" id="Shape"></path>
                                <path d="M7.990925,25.8606322 C7.465575,23.9095977 7.1231,21.697954 7.03095,19.2355977 L0.368125,19.2355977 C0.53865,21.5942759 1.15235,23.8266552 2.129425,25.8606322 L7.990925,25.8606322 L7.990925,25.8606322 Z" id="Shape"></path>
                                <path d="M29.83095,27.1825287 C29.740225,27.1613218 29.647125,27.1415287 29.554975,27.124092 C27.1776,24.944023 28.800675,15.8429655 28.800675,15.8429655 C28.800675,4.25221839 22.1977,3.29885057 20.026,3.29885057 C19.5985,3.29885057 19.34295,3.3356092 19.34295,3.3356092 C19.227525,3.32901149 19.114,3.32477011 19,3.32147126 C18.886,3.32477011 18.772475,3.32948276 18.65705,3.33608046 C18.65705,3.33608046 18.401025,3.29932184 17.974,3.29932184 C15.802775,3.29932184 9.19885,4.25174713 9.19885,15.843908 C9.19885,15.843908 10.82145,24.944023 8.4436,27.1245632 C8.350975,27.142 8.258825,27.1613218 8.168575,27.183 C7.384825,27.3639655 3.744425,27.5953563 1.773175,34.3207701 C1.50575,35.235023 1.600275,36.2275057 2.0349,37.040908 C3.648,40.0668966 12.1258,41 18.9848,41 L19,41 L19.020425,41 C25.878475,41 34.352475,40.065954 35.964625,37.0413793 C36.39925,36.2270345 36.49235,35.2345517 36.22635,34.3207701 C34.2551,27.5948851 30.6147,27.363023 29.83095,27.1825287 L29.83095,27.1825287 Z M25.4239,26.6697931 C25.3935,26.9214483 25.2795,27.1679195 25.096625,27.3997816 C24.2402,28.486046 21.835275,30.0534713 19.000475,30.0534713 C16.164725,30.0534713 13.7598,28.4855747 12.9029,27.3997816 C12.7205,27.1679195 12.6065,26.9219195 12.576575,26.6688506 L12.576575,26.667908 C12.6198,26.6542414 12.718125,26.6188966 12.846375,26.5599885 C12.899575,26.535954 12.957525,26.509092 13.0188,26.477046 C13.537025,26.2074828 14.297975,25.642908 14.298925,24.6532529 L14.30035,24.6532529 C15.117825,25.4572299 16.027925,26.0948506 16.999775,26.477046 C17.65385,26.7338851 18.33595,26.8766782 19.0361,26.8766782 C19.7372,26.8766782 20.418825,26.7338851 21.072425,26.477046 C22.034775,26.0976782 22.9368,25.4690115 23.749525,24.674931 C23.7557,24.6777586 23.7595,24.6805862 23.76615,24.6829425 C23.7861,25.9591264 25.0762,26.5189885 25.4258,26.6467011 C25.425325,26.6551839 25.425325,26.6613103 25.4239,26.6697931 L25.4239,26.6697931 Z M26.91825,17.2105747 C26.789525,17.9301954 26.505475,18.523046 26.20385,18.7761149 C26.08415,18.8769655 25.960175,18.924092 25.84285,18.9038276 C25.776825,18.8929885 25.716025,18.8604713 25.661875,18.810046 C24.997825,20.8591034 23.728625,22.9006207 22.12645,24.1277931 C21.19165,24.8441149 20.143325,25.2828621 19.0361,25.2828621 C17.921275,25.2828621 16.86725,24.8384598 15.92865,24.1141264 C14.3355,22.8864828 13.07105,20.8520345 12.410325,18.8105172 C12.35665,18.8604713 12.29585,18.8929885 12.228875,18.9042989 C12.0935,18.9283333 11.94815,18.8604713 11.8104,18.7228621 C11.53015,18.4462299 11.2746,17.8840115 11.152525,17.211046 C10.992925,16.3255402 11.11975,15.5427701 11.4342,15.3184483 C11.477425,15.2878161 11.5235,15.2670805 11.5729,15.259069 C11.68595,15.2397471 11.80375,15.2826322 11.919175,15.3754713 L11.919175,15.3759425 C11.919175,15.3754713 11.920125,15.366046 11.9225,15.3481379 C11.96145,14.9631149 12.4792,10.6486897 15.733425,10.9479425 L25.689425,16.0324138 L26.49835,15.2595402 C26.5259,15.2647241 26.55345,15.2732069 26.5791,15.2854598 C26.934875,15.449931 27.087825,16.2722874 26.91825,17.2105747 L26.91825,17.2105747 Z" id="Shape" fill="#FFFFFF"></path>
                            </g>
                        </g>
                    </g>
                </g>
            </g>
        </g>
    </g>
</svg>