<?xml version="1.0" encoding="UTF-8" standalone="no"?>
<svg width="40px" height="38px" viewBox="0 0 40 38" version="1.1" xmlns="http://www.w3.org/2000/svg" xmlns:xlink="http://www.w3.org/1999/xlink" xmlns:sketch="http://www.bohemiancoding.com/sketch/ns">
    <!-- Generator: Sketch 3.3.3 (12072) - http://www.bohemiancoding.com/sketch -->
    <title>excel</title>
    <desc>Created with Sketch.</desc>
    <defs></defs>
    <g id="Page-1" stroke="none" stroke-width="1" fill="none" fill-rule="evenodd" sketch:type="MSPage">
        <g id="Simpler-3-1" sketch:type="MSArtboardGroup" transform="translate(-522.000000, -589.000000)">
            <g id="X3" sketch:type="MSLayerGroup" transform="translate(335.000000, 469.000000)">
                <g id="Imported-Layers-Copy-2-+-Rectangle-879" sketch:type="MSShapeGroup">
                    <g id="Line-Copy-15-+-Oval-562-+-Imported-Layers-Copy" transform="translate(167.067499, 100.649455)">
                        <g id="excel" transform="translate(20.000000, 20.000000)">
                            <path d="M0,3.7578125 L22.3134328,0 L22.3134328,37 L0,33.1458333 L0,3.7578125 Z" id="Shape" fill="#FFFFFF"></path>
                            <path d="M7.08208955,11.6588542 L9.60447761,11.4661458 L11.2537313,16.0911458 L13.2910448,11.1770833 L15.9104478,10.984375 L12.8059701,17.8255208 L16.0074627,24.5703125 L13.1940299,24.5703125 L11.1567164,19.5598958 L9.41044776,24.1848958 L6.8880597,23.9921875 L9.70149254,17.8255208 L7.08208955,11.6588542 Z" id="Shape" fill="#00DC00"></path>
                            <path d="M39,32.1822917 C39,32.5016094 38.7394179,32.7604167 38.4179104,32.7604167 L23.2835821,32.7604167 L23.2835821,30.2552083 L28.9104478,30.2552083 L28.9104478,26.4010417 L23.2835821,26.4010417 L23.2835821,25.2447917 L28.9104478,25.2447917 L28.9104478,21.390625 L23.2835821,21.390625 L23.2835821,20.234375 L28.9104478,20.234375 L28.9104478,16.3802083 L23.2835821,16.3802083 L23.2835821,15.2239583 L28.9104478,15.2239583 L28.9104478,11.3697917 L23.2835821,11.3697917 L23.2835821,10.2135417 L28.9104478,10.2135417 L28.9104478,6.359375 L23.2835821,6.359375 L23.2835821,4.23958333 L38.4179104,4.23958333 C38.7394179,4.23958333 39,4.49839063 39,4.81770833 L39,32.1822917 L39,32.1822917 Z M36.4776119,6.359375 L30.0746269,6.359375 L30.0746269,10.2135417 L36.4776119,10.2135417 L36.4776119,6.359375 L36.4776119,6.359375 Z M36.4776119,11.3697917 L30.0746269,11.3697917 L30.0746269,15.2239583 L36.4776119,15.2239583 L36.4776119,11.3697917 L36.4776119,11.3697917 Z M36.4776119,16.3802083 L30.0746269,16.3802083 L30.0746269,20.234375 L36.4776119,20.234375 L36.4776119,16.3802083 L36.4776119,16.3802083 Z M36.4776119,21.390625 L30.0746269,21.390625 L30.0746269,25.2447917 L36.4776119,25.2447917 L36.4776119,21.390625 L36.4776119,21.390625 Z M36.4776119,26.4010417 L30.0746269,26.4010417 L30.0746269,30.2552083 L36.4776119,30.2552083 L36.4776119,26.4010417 L36.4776119,26.4010417 Z" id="Shape" fill="#FFFFFF"></path>
                        </g>
                    </g>
                </g>
            </g>
        </g>
    </g>
</svg>