<?xml version="1.0" encoding="UTF-8" standalone="no"?>
<svg width="212px" height="118px" viewBox="0 0 212 118" version="1.1" xmlns="http://www.w3.org/2000/svg" xmlns:xlink="http://www.w3.org/1999/xlink" xmlns:sketch="http://www.bohemiancoding.com/sketch/ns">
    <!-- Generator: Sketch 3.3.3 (12072) - http://www.bohemiancoding.com/sketch -->
    <title>Fill 1 Copy 2</title>
    <desc>Created with Sketch.</desc>
    <defs></defs>
    <g id="Page-1" stroke="none" stroke-width="1" fill="none" fill-rule="evenodd" sketch:type="MSPage">
        <g id="Flexible-4" sketch:type="MSArtboardGroup" transform="translate(-203.000000, -346.000000)" fill="#2A3456">
            <g id="Faster" sketch:type="MSLayerGroup" transform="translate(-36.000000, 93.000000)">
                <g id="Mask-+-23.11.12_490" transform="translate(36.000000, 16.000000)" sketch:type="MSShapeGroup">
                    <path d="M375.973978,278.042942 L375.439393,278.042942 C371.919715,254.504583 351.738144,237 327.6701,237 C307.199775,237 288.723414,250.225945 282.004028,269.40766 C278.574098,268.444284 274.991986,267.929443 271.530839,267.929443 C252.461362,267.929443 236.490138,281.68583 233.501143,300.259097 C232.646587,300.16549 231.838856,300.134287 231.046733,300.134287 C215.941772,300.134287 203.654114,312.431959 203.654114,327.545653 C203.654114,342.643745 215.941772,354.921915 231.046733,354.921915 L375.95837,354.921915 C397.189601,354.937517 414.44461,337.690354 414.44461,316.49998 C414.44461,295.290105 397.189601,278.042942 375.973978,278.042942 Z" id="Fill-1-Copy-2"></path>
                </g>
            </g>
        </g>
    </g>
</svg>