<?xml version="1.0" encoding="UTF-8" standalone="no"?>
<svg width="250px" height="99px" viewBox="0 0 250 99" version="1.1" xmlns="http://www.w3.org/2000/svg" xmlns:xlink="http://www.w3.org/1999/xlink" xmlns:sketch="http://www.bohemiancoding.com/sketch/ns">
    <!-- Generator: Sketch 3.3.3 (12072) - http://www.bohemiancoding.com/sketch -->
    <title>Group Copy</title>
    <desc>Created with Sketch.</desc>
    <defs></defs>
    <g id="Page-1" stroke="none" stroke-width="1" fill="none" fill-rule="evenodd" sketch:type="MSPage">
        <g id="Simpler-1" sketch:type="MSArtboardGroup" transform="translate(-724.000000, -740.000000)">
            <g id="Faster" sketch:type="MSLayerGroup" transform="translate(-36.000000, 93.000000)">
                <g id="Faster-3" transform="translate(446.000000, 517.000000)" sketch:type="MSShapeGroup">
                    <g id="Group-Copy" transform="translate(314.000000, 130.000000)">
                        <rect id="Rectangle-880" fill="#2A3456" x="0" y="0" width="250" height="97"></rect>
                        <rect id="Rectangle-880-Copy" fill="#4D4F53" x="0" y="98" width="250" height="1"></rect>
                        <rect id="Rectangle-880-Copy-2" fill="#F4F4F4" x="160" y="94" width="13" height="3"></rect>
                        <rect id="Rectangle-880-Copy-3" fill="#F4F4F4" x="177" y="94" width="13" height="3"></rect>
                        <g id="elem" transform="translate(22.000000, 36.000000)" fill="#FFFFFF">
                            <rect id="Rectangle-884" x="2.11111111" y="22.68" width="15.3055556" height="1.08"></rect>
                            <rect id="Rectangle-884-Copy" x="3.16666667" y="25.92" width="12.6666667" height="1.08"></rect>
                            <ellipse id="Oval-561-Copy-2" cx="9.5" cy="9.72" rx="9.5" ry="9.72"></ellipse>
                        </g>
                        <g id="elem-copy" transform="translate(64.000000, 36.000000)" fill="#FFFFFF">
                            <rect id="Rectangle-884" x="2.11111111" y="22.68" width="15.3055556" height="1.08"></rect>
                            <rect id="Rectangle-884-Copy" x="3.16666667" y="25.92" width="12.6666667" height="1.08"></rect>
                            <ellipse id="Oval-561-Copy-2" cx="9.5" cy="9.72" rx="9.5" ry="9.72"></ellipse>
                        </g>
                        <g id="elem-copy-2" transform="translate(107.000000, 36.000000)" fill="#FFFFFF">
                            <rect id="Rectangle-884" x="2.11111111" y="22.68" width="15.3055556" height="1.08"></rect>
                            <rect id="Rectangle-884-Copy" x="3.16666667" y="25.92" width="12.6666667" height="1.08"></rect>
                            <ellipse id="Oval-561-Copy-2" cx="9.5" cy="9.72" rx="9.5" ry="9.72"></ellipse>
                        </g>
                        <g id="elem-copy-3" transform="translate(150.000000, 36.000000)" fill="#FFFFFF">
                            <rect id="Rectangle-884" x="2.11111111" y="22.68" width="15.3055556" height="1.08"></rect>
                            <rect id="Rectangle-884-Copy" x="3.16666667" y="25.92" width="12.6666667" height="1.08"></rect>
                            <ellipse id="Oval-561-Copy-2" cx="9.5" cy="9.72" rx="9.5" ry="9.72"></ellipse>
                        </g>
                        <g id="elem-copy-4" transform="translate(214.000000, 15.000000)" fill="#FFFFFF">
                            <rect id="Rectangle-884" x="2.11111111" y="22.68" width="15.3055556" height="1.08"></rect>
                            <rect id="Rectangle-884-Copy" x="3.16666667" y="25.92" width="12.6666667" height="1.08"></rect>
                            <ellipse id="Oval-561-Copy-2" cx="9.5" cy="9.72" rx="9.5" ry="9.72"></ellipse>
                        </g>
                        <g id="elem-copy-5" transform="translate(214.000000, 58.000000)" fill="#FFFFFF">
                            <rect id="Rectangle-884" x="2.11111111" y="22.68" width="15.3055556" height="1.08"></rect>
                            <rect id="Rectangle-884-Copy" x="3.16666667" y="25.92" width="12.6666667" height="1.08"></rect>
                            <ellipse id="Oval-561-Copy-2" cx="9.5" cy="9.72" rx="9.5" ry="9.72"></ellipse>
                        </g>
                        <g id="Group" transform="translate(47.000000, 28.000000)" stroke="#3B4A7C" stroke-width="2" stroke-linecap="square">
                            <path d="M157.460751,0 L131.576792,10.9375" id="Line-Copy-7"></path>
                            <path d="M157.460751,24.0625 L131.576792,35" id="Line-Copy-18" transform="translate(144.353718, 29.531250) scale(1, -1) translate(-144.353718, -29.531250) "></path>
                            <path d="M85.4709898,18.3203125 L95.7221162,18.3203125" id="Line-Copy-5"></path>
                            <path d="M42.331058,18.3203125 L52.5821844,18.3203125" id="Line-Copy-19"></path>
                            <path d="M0.269624573,18.3203125 L10.520751,18.3203125" id="Line-Copy-20"></path>
                        </g>
                    </g>
                </g>
            </g>
        </g>
    </g>
</svg>