<?xml version="1.0" encoding="UTF-8" standalone="no"?>
<svg width="35px" height="37px" viewBox="0 0 35 37" version="1.1" xmlns="http://www.w3.org/2000/svg" xmlns:xlink="http://www.w3.org/1999/xlink" xmlns:sketch="http://www.bohemiancoding.com/sketch/ns">
    <!-- Generator: Sketch 3.3.2 (12043) - http://www.bohemiancoding.com/sketch -->
    <title>Group</title>
    <desc>Created with Sketch.</desc>
    <defs></defs>
    <g id="Page-1" stroke="none" stroke-width="1" fill="none" fill-rule="evenodd" sketch:type="MSPage">
        <g id="Faster-2" sketch:type="MSArtboardGroup" transform="translate(-528.000000, -571.000000)" fill="#FFFFFF">
            <g id="Faster" sketch:type="MSLayerGroup" transform="translate(-36.000000, 93.000000)">
                <g id="Faster-3" transform="translate(250.000000, 101.000000)" sketch:type="MSShapeGroup">
                    <g id="Group">
                        <g id="Imported-Layers-+-Mask-Copy-5" transform="translate(296.000000, 361.000000)">
                            <g id="Group" transform="translate(18.000000, 16.000000)">
                                <path d="M28.295,22.8655432 C26.7618182,22.5042222 24.9059091,22.6586173 23.9140909,22.3475432 C23.7986364,23.3250741 20.9727273,26.5349383 19.1209091,28.5489259 L18.3181818,25.4390988 C18.9218182,25.0823457 19.0527273,24.2925556 19.0527273,23.6370617 L16.0113636,23.6370617 C16.0113636,24.2879877 16.1409091,25.068642 16.7327273,25.4304198 L15.9436364,28.5480123 C14.0909091,26.5349383 11.2659091,23.3237037 11.15,22.3475432 C10.1590909,22.6595309 8.30318182,22.5051358 6.77,22.8655432 C5.99136364,23.0478025 2.37363636,23.2798519 0.415909091,30.0494815 C0.150454545,30.9703704 0.244090909,31.9684568 0.675909091,32.7874815 C2.27863636,35.8342716 10.7095455,36.7725185 17.5268182,36.7725185 L17.5318182,36.7725185 L17.5513636,36.7725185 C24.3659091,36.7725185 32.7859091,35.8324444 34.3881818,32.7874815 C34.8204545,31.9684568 34.9136364,30.9699136 34.6481818,30.0508519 C32.6913636,23.2798519 29.0740909,23.0468889 28.295,22.8655432 L28.295,22.8655432 Z" id="Shape"></path>
                                <path d="M8.665,9.74287654 C8.06181818,9.84793827 7.78636364,11.1424815 8.05136364,12.6329877 C8.29363636,14.0029012 8.90818182,15.0617407 9.47590909,15.1412222 C10.1981818,17.0921728 11.34,18.9860247 12.7522727,20.3719259 C13.5504545,21.1571481 14.4363636,21.7779259 15.3809091,22.154321 C16.0304545,22.4128642 16.7077273,22.5567531 17.4036364,22.5567531 C18.0981818,22.5567531 18.7768182,22.413321 19.4245455,22.154321 C20.4027273,21.7651358 21.3181818,21.1142099 22.1381818,20.2892469 C23.5154545,18.9079136 24.6295455,17.0423827 25.3368182,15.1252346 C25.8804545,14.9639877 26.4513636,13.940321 26.6831818,12.6320741 C26.9363636,11.2128272 26.6972727,9.97446914 26.1527273,9.768 C26.1722727,9.42175309 26.185,9.07139506 26.1840909,8.71190123 C26.1713636,3.56707407 23.1681818,0.576012346 18.4363636,0.25762963 C18.1336364,0.237074074 17.8363636,0.227481481 17.5440909,0.227481481 C13.8622727,0.227481481 11.0977273,1.82807407 9.78590909,4.36554321 C9.30909091,5.28688889 9.03772727,6.43937037 8.93318182,7.69188889 C8.77454545,8.34418519 8.68090909,9.02114815 8.68090909,9.7218642 L8.69636364,9.7218642 C8.69636364,9.72780247 8.695,9.73282716 8.69454545,9.73785185 C8.685,9.7401358 8.67545455,9.74059259 8.665,9.74287654 L8.665,9.74287654 Z M9.61181818,11.3087531 C9.67090909,11.1338025 9.74954545,10.9972222 9.84954545,10.9250494 C9.89227273,10.8939877 9.93909091,10.8738889 9.98772727,10.8652099 C10.0059091,10.8620123 10.0240909,10.8601852 10.0422727,10.8601852 C10.1377273,10.8601852 10.2359091,10.9035802 10.3327273,10.9812346 L10.3340909,10.9812346 C10.3340909,10.9720988 10.335,10.9634198 10.3354545,10.9538272 C10.3736364,10.5833704 10.8459091,7.47308642 13.7240909,7.47308642 C13.8527273,7.47308642 13.9854545,7.47902469 14.1236364,7.49181481 C14.1236364,7.49181481 15.4877273,7.99611111 17.1840909,7.99611111 C17.9336364,7.99611111 18.7486364,7.89744444 19.5390909,7.61377778 C19.6804545,7.61012346 19.8186364,7.6082963 19.9536364,7.6082963 C20.085,7.6082963 20.2136364,7.61012346 20.3381818,7.61514815 C21.4081818,7.65488889 22.1390909,8.21171605 22.9045455,8.5702963 C22.8759091,8.21674074 22.6054545,7.85359259 22.6195455,7.61514815 C22.7418182,7.6498642 22.8531818,7.70239506 22.9604545,7.76040741 C23.5127273,8.35058025 24.0463636,9.3427284 24.4709091,10.9615926 C24.4718182,10.9689012 24.4718182,10.9752963 24.4731818,10.9826049 C24.4736364,10.9812346 24.4740909,10.9807778 24.4759091,10.9794074 C24.4759091,10.980321 24.4768182,10.9807778 24.4768182,10.9812346 L24.4831818,10.9739259 C24.5763636,10.9003827 24.6722727,10.8597284 24.7654545,10.8597284 C24.7831818,10.8597284 24.8018182,10.8615556 24.8195455,10.8647531 C24.8468182,10.8697778 24.8727273,10.8784568 24.8986364,10.8903333 C25.2527273,11.0561481 25.4036364,11.8843086 25.235,12.8289506 C25.1072727,13.5534198 24.8254545,14.1495309 24.5254545,14.4044198 C24.4231818,14.4902963 24.3209091,14.5378025 24.2204545,14.5378025 C24.2022727,14.5378025 24.1840909,14.5359753 24.1663636,14.5327778 C24.1,14.5222716 24.0409091,14.4889259 23.9863636,14.438679 C23.3322727,16.484642 22.0845455,18.5228395 20.5109091,19.7598272 C19.5722727,20.498 18.5163636,20.952963 17.4022727,20.952963 C16.3118182,20.952963 15.2772727,20.5190123 14.3545455,19.8077901 C12.7522727,18.5753704 11.4818182,16.5111358 10.8195455,14.4382222 C10.7645455,14.4893827 10.7059091,14.5218148 10.6395455,14.5327778 C10.6218182,14.5359753 10.6036364,14.5373457 10.5854545,14.5373457 C10.4659091,14.5373457 10.3427273,14.4706543 10.2231818,14.3505185 C9.94545455,14.070963 9.69136364,13.5063704 9.57090909,12.8289506 C9.56272727,12.7837284 9.55909091,12.7412469 9.55227273,12.6969383 C9.56,12.2227901 9.58,11.7628025 9.61181818,11.3087531 L9.61181818,11.3087531 Z" id="Shape"></path>
                            </g>
                        </g>
                    </g>
                </g>
            </g>
        </g>
    </g>
</svg>