<?xml version="1.0" encoding="UTF-8" standalone="no"?>
<svg width="64px" height="68px" viewBox="0 0 64 68" version="1.1" xmlns="http://www.w3.org/2000/svg" xmlns:xlink="http://www.w3.org/1999/xlink" xmlns:sketch="http://www.bohemiancoding.com/sketch/ns">
    <!-- Generator: Sketch 3.3.3 (12072) - http://www.bohemiancoding.com/sketch -->
    <title>Fill 2</title>
    <desc>Created with Sketch.</desc>
    <defs></defs>
    <g id="Page-1" stroke="none" stroke-width="1" fill="none" fill-rule="evenodd" sketch:type="MSPage">
        <g id="Faster-1" sketch:type="MSArtboardGroup" transform="translate(-538.000000, -517.000000)" fill="#EEEEED">
            <g id="Faster" sketch:type="MSLayerGroup" transform="translate(-36.000000, 93.000000)">
                <g id="Faster-2" transform="translate(267.000000, 230.000000)" sketch:type="MSShapeGroup">
                    <g id="graphic">
                        <g id="X3" transform="translate(200.000000, 160.000000)">
                            <g id="Imported-Layers" transform="translate(18.000000, 34.000000)">
                                <path d="M143.76,30.6110667 L152.31008,20.9686133 L147.69008,12.96472 L135.066187,15.5478133 L129.353813,12.25016 L125.28,0.0266666667 L116.04,0.0266666667 L111.966187,12.25016 L106.253813,15.5478133 L93.62992,12.96472 L89.00992,20.9686133 L97.56,30.6110667 L97.56,37.2022667 L89.00992,46.84472 L93.62992,54.8404 L106.253813,52.25936 L111.966187,55.55496 L116.04,67.7866667 L125.28,67.7866667 L129.353813,55.5631733 L135.066187,52.26552 L147.69008,54.8486133 L152.31008,46.84472 L143.76,37.2022667 L143.76,30.6110667 Z M112.96,33.9066667 C112.96,29.6562667 116.4096,26.2066667 120.66,26.2066667 C124.9104,26.2066667 128.36,29.6562667 128.36,33.9066667 C128.36,38.1570667 124.9104,41.6066667 120.66,41.6066667 C116.4096,41.6066667 112.96,38.1570667 112.96,33.9066667 L112.96,33.9066667 Z" id="Fill-2"></path>
                            </g>
                        </g>
                    </g>
                </g>
            </g>
        </g>
    </g>
</svg>