<?xml version="1.0" encoding="UTF-8" standalone="no"?>
<svg width="103px" height="101px" viewBox="0 0 103 101" version="1.1" xmlns="http://www.w3.org/2000/svg" xmlns:xlink="http://www.w3.org/1999/xlink" xmlns:sketch="http://www.bohemiancoding.com/sketch/ns">
    <!-- Generator: Sketch 3.3.3 (12072) - http://www.bohemiancoding.com/sketch -->
    <title>Fill 1</title>
    <desc>Created with Sketch.</desc>
    <defs></defs>
    <g id="Page-1" stroke="none" stroke-width="1" fill="none" fill-rule="evenodd" sketch:type="MSPage">
        <g id="Faster-1" sketch:type="MSArtboardGroup" transform="translate(-449.000000, -540.000000)" fill="#EEEEED">
            <g id="Faster" sketch:type="MSLayerGroup" transform="translate(-36.000000, 93.000000)">
                <g id="Faster-2" transform="translate(267.000000, 230.000000)" sketch:type="MSShapeGroup">
                    <g id="graphic">
                        <g id="X3" transform="translate(200.000000, 160.000000)">
                            <g id="Imported-Layers" transform="translate(18.000000, 34.000000)">
                                <path d="M102.212853,69.6716267 L100.607147,60.57536 L86.7964267,58.31464 L82.6178933,51.0786933 L87.5664267,37.9886933 L80.48448,32.05456 L68.4519467,39.20016 L60.6082133,36.3460267 L55.98,23.1266667 L46.74,23.1266667 L42.1117867,36.3378133 L34.2680533,39.1919467 L22.23552,32.0463467 L15.1617867,37.9886933 L20.11032,51.0869067 L15.9317867,58.31464 L2.12106667,60.57536 L0.51536,69.67984 L12.72448,76.52976 L14.1761867,84.7513067 L5.04706667,95.3629333 L9.66706667,103.358613 L23.4244,100.761147 L29.8164267,106.126507 L29.63984,120.122027 L38.32544,123.282107 L47.1814667,112.446667 L55.53032,112.446667 L64.39456,123.282107 L73.0719467,120.122027 L72.89536,106.126507 L79.2956,100.761147 L93.0529333,103.358613 L97.6729333,95.35472 L88.5438133,84.7430933 L89.99552,76.5215467 L102.212853,69.6716267 Z M62.14,73.9466667 C62.14,79.8972267 57.31056,84.7266667 51.36,84.7266667 C45.40944,84.7266667 40.58,79.8972267 40.58,73.9466667 C40.58,67.9961067 45.40944,63.1666667 51.36,63.1666667 C57.31056,63.1666667 62.14,67.9961067 62.14,73.9466667 L62.14,73.9466667 Z" id="Fill-1"></path>
                            </g>
                        </g>
                    </g>
                </g>
            </g>
        </g>
    </g>
</svg>