<?xml version="1.0" encoding="UTF-8" standalone="no"?>
<svg width="25px" height="34px" viewBox="0 0 25 34" version="1.1" xmlns="http://www.w3.org/2000/svg" xmlns:xlink="http://www.w3.org/1999/xlink" xmlns:sketch="http://www.bohemiancoding.com/sketch/ns">
    <!-- Generator: Sketch 3.3.3 (12072) - http://www.bohemiancoding.com/sketch -->
    <title>Imported Layers</title>
    <desc>Created with Sketch.</desc>
    <defs></defs>
    <g id="Page-1" stroke="none" stroke-width="1" fill="none" fill-rule="evenodd" sketch:type="MSPage">
        <g id="Faster-4-1" sketch:type="MSArtboardGroup" transform="translate(-529.000000, -441.000000)" fill="#00DC00">
            <g id="Faster" sketch:type="MSLayerGroup" transform="translate(-36.000000, 93.000000)">
                <g id="Faster-3" transform="translate(246.000000, 83.000000)" sketch:type="MSShapeGroup">
                    <g id="Rectangle-849-+-PriceInquiryWebApp-+-Imported-Layers" transform="translate(308.000000, 233.000000)">
                        <g id="Rectangle-849-+-PriceInquiryWebApp" transform="translate(3.760000, 14.126214)">
                            <g id="Imported-Layers" transform="translate(7.000000, 18.000000)">
                                <path d="M12.4181867,13.5725867 C11.4043867,13.4433333 10.4157467,13.0427467 9.63924,12.45272 L10.55832,11.1098667 C11.1942267,11.5933333 11.7842533,11.92288 12.47788,12.06348 L12.47788,10.1902933 C10.7818,9.73198667 9.9456,9.09410667 9.9456,7.69304 L9.9456,7.66985333 C9.9456,6.37485333 10.93424,5.51349333 12.42016,5.36105333 L12.42016,4.6768 L13.6456,4.6768 L13.6456,5.39608 C14.4818,5.50165333 15.18924,5.80801333 15.8369867,6.25546667 L15.0466667,7.63334667 C14.57652,7.31514667 14.0698667,7.06848 13.5859067,6.93725333 L13.5859067,8.72756 C15.3762133,9.21152 16.1433467,9.92833333 16.1433467,11.2484933 L16.1433467,11.27168 C16.1433467,12.5913467 15.1295467,13.4393867 13.6456,13.5918267 L13.6456,14.7575733 L12.42016,14.7575733 L12.42016,13.5725867 L12.4181867,13.5725867 Z M12.4759067,8.43698667 L12.4759067,6.83513333 C11.89772,6.90666667 11.6628933,7.18786667 11.6628933,7.56576 L11.6628933,7.58894667 C11.6628933,7.96634667 11.8286533,8.20166667 12.4759067,8.43698667 L12.4759067,8.43698667 Z M13.5839333,10.4734667 L13.5839333,12.1231733 C14.1389333,12.0402933 14.4201333,11.7936267 14.4201333,11.3698533 L14.4201333,11.3466667 C14.4201333,10.9574267 14.21984,10.71076 13.5839333,10.4734667 L13.5839333,10.4734667 Z" id="Fill-1"></path>
                                <path d="M0.346813333,0.208186667 L0.346813333,33.2901333 L25.1580267,33.2901333 L25.1580267,0.208186667 L0.346813333,0.208186667 Z M23.54532,31.1396933 L1.95804,31.1396933 L1.95804,2.35862667 L23.54532,2.35862667 L23.54532,31.1396933 Z" id="Fill-2"></path>
                                <path d="M5.78137333,17.9277333 L20.50836,17.9277333 L20.50836,19.5231733 L5.78137333,19.5231733 L5.78137333,17.9277333 Z" id="Fill-3"></path>
                                <path d="M5.78137333,20.87244 L20.50836,20.87244 L20.50836,22.46788 L5.78137333,22.46788 L5.78137333,20.87244 Z" id="Fill-4"></path>
                                <path d="M5.78137333,23.8186267 L20.50836,23.8186267 L20.50836,25.4140667 L5.78137333,25.4140667 L5.78137333,23.8186267 Z" id="Fill-5"></path>
                                <path d="M5.78137333,26.7633333 L20.50836,26.7633333 L20.50836,28.3587733 L5.78137333,28.3587733 L5.78137333,26.7633333 Z" id="Fill-6"></path>
                            </g>
                        </g>
                    </g>
                </g>
            </g>
        </g>
    </g>
</svg>