<?xml version="1.0" encoding="UTF-8" standalone="no"?>
<svg width="33px" height="40px" viewBox="0 0 33 40" version="1.1" xmlns="http://www.w3.org/2000/svg" xmlns:xlink="http://www.w3.org/1999/xlink" xmlns:sketch="http://www.bohemiancoding.com/sketch/ns">
    <!-- Generator: Sketch 3.3.2 (12043) - http://www.bohemiancoding.com/sketch -->
    <title>Group Copy 3</title>
    <desc>Created with Sketch.</desc>
    <defs></defs>
    <g id="Page-1" stroke="none" stroke-width="1" fill="none" fill-rule="evenodd" sketch:type="MSPage">
        <g id="Faster-3" sketch:type="MSArtboardGroup" transform="translate(-525.000000, -731.000000)">
            <g id="Faster" sketch:type="MSLayerGroup" transform="translate(-36.000000, 93.000000)">
                <g id="Faster-3" transform="translate(250.000000, 81.000000)" sketch:type="MSShapeGroup">
                    <g id="Group">
                        <g id="Imported-Layers-+-Mask-Copy-5" transform="translate(292.000000, 543.000000)">
                            <g id="Group-Copy-3" transform="translate(18.000000, 11.000000)">
                                <path d="M28.7695473,16.9216758 L34.9437821,16.9216758 C34.7874557,14.5337295 34.2185154,12.2759049 33.3127026,10.2187441 L27.8751837,10.2187441 C28.3670617,12.192017 28.6845585,14.4293463 28.7695473,16.9216758 L28.7695473,16.9216758 Z" id="Shape"></path>
                                <path d="M7.46731408,10.2192207 L2.03331806,10.2192207 C1.12750528,12.2759049 0.558565012,14.5342062 0.400036765,16.9221524 L6.57691376,16.9221524 C6.66234287,14.4312528 6.97983972,12.192017 7.46731408,10.2192207 L7.46731408,10.2192207 Z" id="Shape"></path>
                                <path d="M31.8815448,7.54004992 C29.7832473,4.28319633 26.753156,1.79039019 23.2060865,0.496323529 C24.5434484,2.15930644 25.9754869,4.48243016 27.06713,7.54004992 L31.8815448,7.54004992 L31.8815448,7.54004992 Z" id="Shape"></path>
                                <path d="M12.1386131,0.496323529 C8.59330499,1.79039019 5.56673654,4.28319633 3.46579692,7.54004992 L8.2802117,7.54004992 C9.37141447,4.48386007 10.803453,2.16311952 12.1386131,0.496323529 L12.1386131,0.496323529 Z" id="Shape"></path>
                                <path d="M23.740679,14.2587106 C23.7327526,12.523279 22.0272528,9.6015005 22.0272528,9.6015005 C20.7753201,10.5814641 19.3208234,10.9079597 17.9372241,10.9079597 C15.1709062,10.9079597 12.6890584,9.6015005 12.6890584,9.6015005 C12.2900956,9.77213618 12.0320469,10.1901459 11.8682344,10.7277913 C11.5613061,11.7315867 11.5868467,13.1529151 11.6639091,14.1748226 C11.7202747,14.9178981 11.8017406,15.4493472 11.8017406,15.4503005 C11.3816407,15.1323843 10.9958886,14.9674683 10.6814743,14.8821504 C10.8263515,16.5856474 11.213865,18.1671255 11.7885299,19.5365007 C12.822046,22.0007087 14.4584098,23.7780842 16.3651523,24.3433745 C16.5765233,24.4062904 16.7922978,24.453954 17.0098338,24.4863653 C17.2278102,24.5187765 17.4493094,24.5349821 17.67257,24.5349821 C18.8078084,24.5349821 19.8800758,24.1112528 20.8316857,23.3576913 C22.921176,21.6999514 24.4183872,18.4483408 24.6848028,14.6114212 C24.7328016,14.2506078 24.7587826,13.8816915 24.7640669,13.5080089 L23.6301496,14.9178981 C23.7072119,14.7301036 23.7411193,14.5060847 23.740679,14.2587106 L23.740679,14.2587106 Z" id="Shape"></path>
                                <path d="M25.0749584,24.5669167 C24.7490948,24.5016176 24.4175065,24.4496643 24.0819551,24.4162998 C24.0819551,24.4325054 24.0766708,24.4477578 24.0757901,24.4630101 L24.0757901,24.4720662 C24.0727076,24.5087672 24.0674233,24.5478513 24.0647812,24.5831224 C24.0634601,24.5869355 24.0634601,24.5902719 24.0630197,24.5926551 C24.029993,24.9482255 23.9146197,25.2918801 23.7252665,25.6155159 C22.798757,27.7394058 20.2605436,31.4466804 18.6889122,33.6568414 L18.3921121,29.0539678 C18.7985609,28.8275657 19.1495248,28.4643691 19.3890786,28.0382565 C19.5859178,27.6869758 19.7087772,27.2956577 19.7087772,26.89719 C19.7087772,26.89719 18.6056849,27.4257793 17.4801343,27.4257793 C16.3550241,27.4257793 15.2514914,26.89719 15.2514914,26.89719 C15.2514914,27.265153 15.3554154,27.6269197 15.5271544,27.9572284 C15.7649467,28.4171821 16.136167,28.8132666 16.5677162,29.0534911 L16.2638704,33.7774303 C14.7864752,31.5038767 12.2755639,27.4972747 11.5009773,25.3843474 C11.3847232,25.1341136 11.3111837,24.8743469 11.284322,24.6074308 C11.2785974,24.5592906 11.2715517,24.5130569 11.2693499,24.4663466 C11.2689095,24.4501409 11.264506,24.4334587 11.264506,24.4167764 C11.1152252,24.4310755 10.9677058,24.4496643 10.8201865,24.4711129 C10.8025723,24.474926 10.7831966,24.4763559 10.765142,24.4787391 C5.62970749,25.2542258 1.67883129,30.0258285 1.67883129,35.7974135 C1.67883129,42.0785223 6.36069885,42.0942513 12.1531448,42.0942513 L12.2363722,42.0942513 L23.1092081,42.0942513 L23.1924355,42.0942513 C28.9857622,42.0942513 33.6676297,42.0794756 33.6676297,35.7974135 C33.6680701,30.2117166 29.9664355,25.5630859 25.0749584,24.5669167 L25.0749584,24.5669167 Z" id="Shape" fill="#FFFFFF"></path>
                                <path d="M25.6593111,11.7668577 C25.0679127,7.34844226 21.7181228,3.96337359 17.6730103,3.96337359 C13.6270172,3.96337359 10.2767869,7.3503488 9.68582883,11.7716241 C9.62550002,12.2268114 9.59423473,12.693438 9.59423473,13.1681675 C9.59423473,13.3616817 9.60039972,13.5523361 9.61052791,13.7425138 C9.62550002,14.0194393 9.65015997,14.2944583 9.68582883,14.5647109 C9.69155346,14.6471689 9.6981588,14.7291503 9.7052045,14.8111317 C10.2146967,21.0507732 13.5873851,25.8709928 17.6730103,25.8709928 C21.8119186,25.8709928 25.2189549,20.923988 25.6593111,14.5670941 C25.7214014,14.1104768 25.7526666,13.6433735 25.7526666,13.1667376 C25.7526666,12.6910549 25.720961,12.223475 25.6593111,11.7668577 L25.6593111,11.7668577 Z M24.6843624,14.6109446 C24.4179469,18.4478641 22.9207357,21.6994747 20.8312453,23.3572146 C19.8796355,24.1107761 18.807368,24.5345055 17.6721296,24.5345055 C17.448869,24.5345055 17.2273698,24.5187765 17.0093935,24.4858886 C16.7918575,24.453954 16.5765233,24.4058138 16.3647119,24.3428978 C14.4579694,23.7776076 12.8216056,22.000232 11.7880895,19.5360241 C11.2134246,18.1666489 10.8259111,16.5856474 10.6810339,14.8816738 C10.9954483,14.9674683 11.3812004,15.1323843 11.8013002,15.4498239 C11.8017406,15.4488706 11.7198343,14.9174215 11.6634687,14.174346 C11.5864064,13.1524385 11.5608657,11.73111 11.867794,10.7273147 C12.0316065,10.1896693 12.2896553,9.77165954 12.688618,9.60102386 C12.688618,9.60102386 15.1704658,10.9074831 17.9367837,10.9074831 C19.3208234,10.9074831 20.7748797,10.5809874 22.0268125,9.60102386 C22.0268125,9.60102386 23.7323122,12.523279 23.7402386,14.2582339 C23.740679,14.505608 23.7067716,14.7296269 23.6288285,14.9164682 L24.7627458,13.506579 C24.7583423,13.8812149 24.7323612,14.2501311 24.6843624,14.6109446 L24.6843624,14.6109446 Z" id="Shape" fill="#FFFFFF"></path>
                            </g>
                        </g>
                    </g>
                </g>
            </g>
        </g>
    </g>
</svg>