<?xml version="1.0" encoding="UTF-8" standalone="no"?>
<svg width="47px" height="35px" viewBox="0 0 47 35" version="1.1" xmlns="http://www.w3.org/2000/svg" xmlns:xlink="http://www.w3.org/1999/xlink" xmlns:sketch="http://www.bohemiancoding.com/sketch/ns">
    <!-- Generator: Sketch 3.3.3 (12072) - http://www.bohemiancoding.com/sketch -->
    <title>Fill 1</title>
    <desc>Created with Sketch.</desc>
    <defs></defs>
    <g id="Page-1" stroke="none" stroke-width="1" fill="none" fill-rule="evenodd" sketch:type="MSPage">
        <g id="Flexible-1" sketch:type="MSArtboardGroup" transform="translate(-672.000000, -669.000000)" fill="#00DC00">
            <g id="Faster" sketch:type="MSLayerGroup" transform="translate(-36.000000, 93.000000)">
                <g id="Mask-+-23.11.12_490" transform="translate(36.000000, 16.000000)" sketch:type="MSShapeGroup">
                    <g id="Flexible-2" transform="translate(229.000000, 275.000000)">
                        <g id="Group">
                            <g id="Service-+-Imported-Layers" transform="translate(443.000000, 285.000000)">
                                <g id="Imported-Layers-Copy-2">
                                    <g id="Fill-1-+-Rectangle-89-Copy" transform="translate(23.500000, 17.500000) scale(-1, 1) translate(-23.500000, -17.500000) ">
                                        <g id="Fill-1-+-Rectangle-89">
                                            <path d="M5.27732482,24.6516404 C5.94680614,29.8485876 0.63615493,34.5530769 0.63615493,34.5530769 C4.80459155,33.7696154 13.8524225,27.6197115 13.8524225,27.6197115 C13.8524225,27.6197115 13.8436192,27.6116792 13.826539,27.5961538 L33.2001865,27.5961538 C40.8314238,27.5961538 47,21.4185444 47,13.7980769 C47,6.17593393 40.8216131,0 33.2001865,0 L13.7998135,0 C6.1685762,0 0,6.17760946 0,13.7980769 C0,18.2034116 2.06385288,22.1256489 5.27732482,24.6516404 Z" id="Fill-1"></path>
                                        </g>
                                    </g>
                                </g>
                            </g>
                        </g>
                    </g>
                </g>
            </g>
        </g>
    </g>
</svg>