<?xml version="1.0" encoding="UTF-8" standalone="no"?>
<svg width="89px" height="89px" viewBox="0 0 89 89" version="1.1" xmlns="http://www.w3.org/2000/svg" xmlns:xlink="http://www.w3.org/1999/xlink" xmlns:sketch="http://www.bohemiancoding.com/sketch/ns">
    <!-- Generator: Sketch 3.3.3 (12072) - http://www.bohemiancoding.com/sketch -->
    <title>Oval 1 + Incomeincrease Copy 4</title>
    <desc>Created with Sketch.</desc>
    <defs></defs>
    <g id="Page-1" stroke="none" stroke-width="1" fill="none" fill-rule="evenodd" sketch:type="MSPage">
        <g id="Faster-1" sketch:type="MSArtboardGroup" transform="translate(-231.000000, -533.000000)">
            <g id="Faster" sketch:type="MSLayerGroup" transform="translate(-36.000000, 93.000000)">
                <g id="Faster-2" transform="translate(267.000000, 230.000000)" sketch:type="MSShapeGroup">
                    <g id="graphic">
                        <g id="Oval-1-+-Oval-1-Copy-2" transform="translate(0.000000, 3.000000)">
                            <g id="Oval-1-+-Incomeincrease-Copy-4" transform="translate(0.962963, 207.104605)">
                                <g id="Oval-1" fill="#2A3456">
                                    <ellipse cx="44" cy="44.0130029" rx="44" ry="44.0130029"></ellipse>
                                </g>
                                <path d="M57.2967835,65.5010439 C55.8679932,65.5010439 54.5363051,64.9337623 53.5463001,63.9043323 L35.5736215,45.2037518 C35.3516735,44.9701224 35.0121807,44.8788608 34.6924003,44.9613613 C33.8681263,45.1781986 33.0241397,45.2891726 32.1801532,45.2891726 C29.6846982,45.2891726 27.3600848,44.3371325 25.6319567,42.6111946 C23.0853952,40.0646332 22.2749929,36.1549897 23.567256,32.6468969 C23.7183851,32.2387754 24.0666391,31.9335968 24.4915527,31.840145 C24.9164663,31.7459631 25.3610925,31.8737293 25.6691914,32.1818282 L30.0979304,36.5828237 C30.2519798,36.7339528 30.4257417,36.7565856 30.5199236,36.7565856 C30.6141055,36.7565856 30.7907878,36.7339528 30.9419169,36.5799033 L33.6374171,33.867611 C33.8681263,33.6339815 33.8681263,33.2543335 33.6344968,33.0236244 L29.239342,28.6569432 C28.9290528,28.3488443 28.7976362,27.9012979 28.8918181,27.4734639 C28.986,27.0456299 29.2940989,26.6951856 29.7073311,26.5469769 C30.7937082,26.1556475 31.9231608,25.9563324 33.0642948,25.9563324 C35.5597498,25.9563324 37.8836331,26.9061822 39.609571,28.6343104 C41.9590075,30.984477 42.8373084,34.3691843 41.9590075,37.694754 C41.8765071,38.0145344 41.9677686,38.3511069 42.2013981,38.5759753 L60.8990582,56.5486539 C61.9138863,57.524057 62.481898,58.8389529 62.4957698,60.2480308 C62.5103716,61.6563786 61.9686432,62.982956 60.9727975,63.9780716 C59.9922838,64.9593155 58.6854188,65.5010439 57.2967835,65.5010439 Z M56.1016227,59.1039764 C55.4657124,59.7398867 55.4657124,60.7671263 56.1016227,61.4001162 C56.738263,62.0360265 57.7647726,62.0360265 58.3977625,61.4001162 C59.0336728,60.764206 59.0336728,59.7376964 58.3977625,59.1039764 C57.7647726,58.4709865 56.7353427,58.4709865 56.1016227,59.1039764 L56.1016227,59.1039764 Z" id="Imported-Layers" fill="#FFFFFF"></path>
                            </g>
                        </g>
                    </g>
                </g>
            </g>
        </g>
    </g>
</svg>