<?xml version="1.0" encoding="UTF-8" standalone="no"?>
<svg width="47px" height="97px" viewBox="0 0 47 97" version="1.1" xmlns="http://www.w3.org/2000/svg" xmlns:xlink="http://www.w3.org/1999/xlink" xmlns:sketch="http://www.bohemiancoding.com/sketch/ns">
    <!-- Generator: Sketch 3.3.3 (12072) - http://www.bohemiancoding.com/sketch -->
    <title>Rectangle 849 + PriceInquiryWebApp + Imported Layers</title>
    <desc>Created with Sketch.</desc>
    <defs>
        <rect id="path-1" x="0" y="0" width="39.48" height="68.7475728"></rect>
    </defs>
    <g id="Page-1" stroke="none" stroke-width="1" fill="none" fill-rule="evenodd" sketch:type="MSPage">
        <g id="Faster-4-1" sketch:type="MSArtboardGroup" transform="translate(-518.000000, -409.000000)">
            <g id="Faster" sketch:type="MSLayerGroup" transform="translate(-36.000000, 93.000000)">
                <g id="Faster-3" transform="translate(246.000000, 83.000000)">
                    <g id="Rectangle-849-+-PriceInquiryWebApp-+-Imported-Layers" transform="translate(308.000000, 233.000000)">
                        <g id="Rectangle-849-+-PriceInquiryWebApp" transform="translate(3.760000, 14.126214)">
                            <mask id="mask-2" sketch:name="Mask" fill="white">
                                <use xlink:href="#path-1"></use>
                            </mask>
                            <use id="Mask" fill="#FFFFFF" sketch:type="MSShapeGroup" xlink:href="#path-1"></use>
                        </g>
                        <path d="M38.7012588,0.73073411 L38.7012588,0.497549942 C38.7012588,0.222338393 38.479333,0 38.2046321,0 L31.2748635,0 C31.0001627,0 30.7782369,0.222338393 30.7782369,0.497549942 L30.7782369,0.688706731 L8.33937266,0.688706731 C4.21074073,0.688706731 0.849376685,4.05089707 0.849376685,8.18720462 L0.849376685,13.7646446 L0.531373242,13.7646446 C0.256672396,13.7646446 0.034746589,13.986983 0.034746589,14.2621945 L0.034746589,17.4074693 C0.034746589,17.6826809 0.256672396,17.9050193 0.531373242,17.9050193 L0.849376685,17.9050193 L0.849376685,23.1692875 L0.531373242,23.1692875 C0.256672396,23.1692875 0.034746589,23.3916259 0.034746589,23.6668374 L0.034746589,25.5418008 C0.034746589,25.8170124 0.256672396,26.0393508 0.531373242,26.0393508 L0.849376685,26.0393508 L0.849376685,30.7735317 L0.531373242,30.7735317 C0.256672396,30.7735317 0.034746589,30.9958701 0.034746589,31.2724373 L0.034746589,33.146045 C0.034746589,33.4226123 0.256672396,33.6449507 0.531373242,33.6449507 L0.849376685,33.6449507 L0.849376685,88.8635041 C0.849376685,92.9998117 4.21074073,96.362002 8.33937266,96.362002 L37.90828,96.362002 C42.0369119,96.362002 46.0599938,92.9943888 46.0599938,88.8635041 L46.0599938,8.18720462 C46.0654066,4.31661857 42.5335386,1.12253774 38.7012588,0.73073411 L38.7012588,0.73073411 Z M23.4519788,4.49692958 C23.8904176,4.49692958 24.2449576,4.850773 24.2449576,5.29138262 C24.2449576,5.73063652 23.8904176,6.08447994 23.4519788,6.08447994 C23.01354,6.08447994 22.659,5.73063652 22.659,5.29138262 C22.659,4.85619589 23.0189529,4.49692958 23.4519788,4.49692958 L23.4519788,4.49692958 Z M20.0161884,8.0868812 L26.8877692,8.0868812 C27.4060472,8.0868812 27.8282475,8.45292612 27.8282475,8.90709296 C27.8282475,9.35854836 27.4060472,9.72323755 26.8877692,9.72323755 L20.0161884,9.72323755 C19.4979105,9.72323755 19.074357,9.35854836 19.074357,8.90709296 C19.0797698,8.45292612 19.4979105,8.0868812 20.0161884,8.0868812 L20.0161884,8.0868812 Z M23.4885154,93.5136303 C21.2530188,93.5136303 19.4451354,91.6969629 19.4451354,89.4573103 C19.4451354,87.216302 21.2584317,85.4050575 23.4885154,85.4050575 C25.7253651,85.4050575 27.5373082,87.2217249 27.5373082,89.4573103 C27.5373082,91.6969629 25.7199523,93.5136303 23.4885154,93.5136303 L23.4885154,93.5136303 Z M42.745992,82.7356411 L4.16879134,82.7356411 L4.16879134,14.3625179 L42.745992,14.3625179 L42.745992,82.7356411 Z" id="Imported-Layers" fill="#51534A" sketch:type="MSShapeGroup"></path>
                    </g>
                </g>
            </g>
        </g>
    </g>
</svg>