<?xml version="1.0" encoding="UTF-8" standalone="no"?>
<svg width="19px" height="15px" viewBox="0 0 19 15" version="1.1" xmlns="http://www.w3.org/2000/svg" xmlns:xlink="http://www.w3.org/1999/xlink" xmlns:sketch="http://www.bohemiancoding.com/sketch/ns">
    <!-- Generator: Sketch 3.3.2 (12043) - http://www.bohemiancoding.com/sketch -->
    <title>Imported Layers</title>
    <desc>Created with Sketch.</desc>
    <defs></defs>
    <g id="Page-1" stroke="none" stroke-width="1" fill="none" fill-rule="evenodd" sketch:type="MSPage">
        <g id="Faster-3" sketch:type="MSArtboardGroup" transform="translate(-668.000000, -603.000000)" fill="#FFFFFF">
            <g id="Faster" sketch:type="MSLayerGroup" transform="translate(-36.000000, 93.000000)">
                <g id="Faster-3" transform="translate(250.000000, 81.000000)" sketch:type="MSShapeGroup">
                    <g id="Group-Copy" transform="translate(442.000000, 416.000000)">
                        <g id="Imported-Layers" transform="translate(12.000000, 13.000000)">
                            <path d="M3.2832,14.13 C3.2832,14.5752 2.913536,14.94 2.4624,14.94 L0.8208,14.94 C0.369664,14.94 0,14.5752 0,14.13 L0,9.09 C0,8.6448 0.369664,8.28 0.8208,8.28 L2.4624,8.28 C2.913536,8.28 3.2832,8.6448 3.2832,9.09 L3.2832,14.13 Z" id="Fill-1"></path>
                            <path d="M8.208,14.13 C8.208,14.5752 7.838336,14.94 7.3872,14.94 L5.7456,14.94 C5.294464,14.94 4.9248,14.5752 4.9248,14.13 L4.9248,5.13 C4.9248,4.6848 5.294464,4.32 5.7456,4.32 L7.3872,4.32 C7.838336,4.32 8.208,4.6848 8.208,5.13 L8.208,14.13 Z" id="Fill-2"></path>
                            <path d="M13.3152,14.13 C13.3152,14.5752 12.945536,14.94 12.4944,14.94 L10.8528,14.94 C10.401664,14.94 10.032,14.5752 10.032,14.13 L10.032,0.99 C10.032,0.5448 10.401664,0.18 10.8528,0.18 L12.4944,0.18 C12.945536,0.18 13.3152,0.5448 13.3152,0.99 L13.3152,14.13 Z" id="Fill-3"></path>
                            <path d="M18.24,14.13 C18.24,14.5752 17.870336,14.94 17.4192,14.94 L15.7776,14.94 C15.326464,14.94 14.9568,14.5752 14.9568,14.13 L14.9568,5.85 C14.9568,5.4048 15.326464,5.04 15.7776,5.04 L17.4192,5.04 C17.870336,5.04 18.24,5.4048 18.24,5.85 L18.24,14.13 Z" id="Fill-4"></path>
                        </g>
                    </g>
                </g>
            </g>
        </g>
    </g>
</svg>