<?xml version="1.0" encoding="UTF-8" standalone="no"?>
<svg width="177px" height="99px" viewBox="0 0 177 99" version="1.1" xmlns="http://www.w3.org/2000/svg" xmlns:xlink="http://www.w3.org/1999/xlink" xmlns:sketch="http://www.bohemiancoding.com/sketch/ns">
    <!-- Generator: Sketch 3.3.3 (12072) - http://www.bohemiancoding.com/sketch -->
    <title>Fill 1 Copy 3</title>
    <desc>Created with Sketch.</desc>
    <defs></defs>
    <g id="Page-1" stroke="none" stroke-width="1" fill="none" fill-rule="evenodd" sketch:type="MSPage">
        <g id="Flexible-4" sketch:type="MSArtboardGroup" transform="translate(-665.000000, -365.000000)" fill="#2A3456">
            <g id="Faster" sketch:type="MSLayerGroup" transform="translate(-36.000000, 93.000000)">
                <g id="Mask-+-23.11.12_490" transform="translate(36.000000, 16.000000)" sketch:type="MSShapeGroup">
                    <path d="M809.555075,290.429957 L809.106624,290.429957 C806.154049,270.684182 789.224204,256 769.034089,256 C751.862015,256 736.362632,267.094934 730.725897,283.186023 C727.848609,282.377869 724.84366,281.945981 721.940185,281.945981 C705.94325,281.945981 692.545367,293.48589 690.037969,309.066567 C689.321102,308.988041 688.643516,308.961866 687.979023,308.961866 C675.307827,308.961866 665,319.278093 665,331.956615 C665,344.622049 675.307827,354.921917 687.979023,354.921917 L809.541981,354.921917 C827.352361,354.935005 841.827181,340.466766 841.827181,322.690661 C841.827181,304.898196 827.352361,290.429957 809.555075,290.429957 Z" id="Fill-1-Copy-3" transform="translate(753.413591, 305.460963) scale(-1, 1) translate(-753.413591, -305.460963) "></path>
                </g>
            </g>
        </g>
    </g>
</svg>