<?xml version="1.0" encoding="UTF-8" standalone="no"?>
<svg width="639px" height="307px" viewBox="0 0 639 307" version="1.1" xmlns="http://www.w3.org/2000/svg" xmlns:xlink="http://www.w3.org/1999/xlink" xmlns:sketch="http://www.bohemiancoding.com/sketch/ns">
    <!-- Generator: Sketch 3.3.3 (12072) - http://www.bohemiancoding.com/sketch -->
    <title>Imported Layers</title>
    <desc>Created with Sketch.</desc>
    <defs></defs>
    <g id="Page-1" stroke="none" stroke-width="1" fill="none" fill-rule="evenodd" sketch:type="MSPage">
        <g id="Flexible-3" sketch:type="MSArtboardGroup" transform="translate(-206.000000, -513.000000)" fill="#DCDDDB">
            <g id="Faster" sketch:type="MSLayerGroup" transform="translate(-51.000000, 87.000000)">
                <g id="Mask-+-23.11.12_490" transform="translate(50.000000, 17.000000)" sketch:type="MSShapeGroup">
                    <g id="Group" transform="translate(207.000000, 409.000000)">
                        <g id="Imported-Layers">
                            <path d="M263.487519,49.7722628 C263.451636,49.560004 263.231848,49.5256241 263.231848,49.2461002 C264.466843,47.4897336 268.541131,47.4194789 266.859085,43.5913471 C267.632079,42.5031472 268.369188,41.9052352 267.632079,40.5001419 C268.224159,39.7273406 269.348512,39.4821966 270.436982,39.201178 C271.245859,36.7422647 272.506272,34.7407542 272.755962,31.7556783 C271.839434,30.4223345 269.384396,30.6674784 269.940592,27.8931666 C271.912697,26.734712 273.18208,29.2623851 274.052258,29.1577505 C274.692183,28.6569992 275.209505,28.1039306 275.077932,26.8393466 C274.438007,26.347564 273.810044,25.891656 272.506272,26.0680401 C272.127999,24.3819281 270.933373,23.5388722 268.92688,23.5029975 C269.493542,21.3968523 271.175587,20.413287 272.506272,19.1487031 C272.68569,18.2010125 272.092115,18.0605031 272.264057,17.0769378 C274.898514,16.4102659 278.134021,15.4267006 278.160934,12.9677874 C280.831274,12.1262262 283.781208,11.5641889 284.588589,8.8586369 C282.306988,7.1396398 275.741779,7.41916367 274.052258,9.38629427 C273.001167,9.49242366 272.404602,9.13965556 271.74225,8.8586369 C269.844903,10.2996049 267.135688,12.3369902 265.058923,12.7226434 C266.258035,11.1770408 267.342019,9.49242366 268.68616,8.08733037 C267.561807,7.32349775 265.976946,6.99763569 264.816709,6.29658383 C265.444672,5.73454651 266.784328,5.87505584 266.893474,4.75098121 C263.837385,4.32945323 261.093782,1.27412272 257.651944,0.64183074 C253.507385,-0.0950958445 249.356845,1.41463205 244.790653,0.396686805 L243.253637,0.396686805 C239.627895,3.8735453 229.199215,1.68668202 224.206905,2.96023466 C224.531353,3.52227198 225.1952,3.69716125 225.234074,4.5043425 C224.461081,4.99612515 223.96469,4.15456395 223.683602,5.03199987 C223.96469,5.87505584 225.717008,6.57760248 225.476288,7.06938513 C223.157309,6.01556517 220.171492,4.32945323 216.725168,5.2771438 C216.276623,6.75249175 218.344417,7.06938513 218.02894,7.59554772 C216.061321,8.05145565 215.079006,6.08581983 213.38799,5.80480118 C209.318189,5.10225453 204.856657,8.05145565 200.78237,8.12171032 C200.360737,8.47298364 200.505767,9.38629427 200.009377,9.66731293 C197.339037,11.0021516 193.933082,12.4072448 190.775322,13.7764634 C189.963455,14.1262419 188.175254,13.881098 188.211138,15.3205712 C188.492226,16.3131052 190.45835,15.6374646 191.548316,15.8482286 C191.609617,16.9020486 192.416998,17.1815724 192.562028,18.1666325 C188.236556,20.236903 182.20362,19.8168698 179.183415,23.5747469 C180.162739,25.1532347 183.184439,24.6973267 184.588386,25.891656 C184.126385,26.523948 182.831584,26.347564 182.797195,27.4372587 C186.313791,33.5120449 197.651523,28.3146946 203.380943,32.3177157 C204.325878,32.9858824 209.0371,38.74527 209.277819,40.2893779 C209.703938,42.7482911 208.615467,43.3103284 208.504826,45.6974923 C209.594792,47.5943682 212.830299,46.5061683 213.38799,44.9246909 C214.62149,45.8380016 215.469241,47.1728402 216.725168,48.0158962 C215.11788,48.8589521 213.426864,49.7020081 211.599789,48.5420588 C211.456255,49.2461002 210.511319,49.1743507 210.581591,50.0876614 C211.21404,51.1758613 211.842004,50.7543333 210.828291,51.8784079 C211.916761,52.2730299 212.553696,53.0727372 213.918769,53.1773718 C215.11788,53.0024826 215.152269,51.6676439 216.482953,51.633264 C216.799926,52.687084 216.94047,55.0039931 216.482953,55.9875584 C215.324211,55.881429 214.551218,56.1280677 213.67805,56.2327023 C211.35907,58.8321249 212.760027,61.2192887 213.67805,63.678202 C215.288328,67.9622417 220.062346,72.9144482 221.896896,77.0579786 C225.406016,76.74258 232.110275,81.4914963 232.958025,76.531816 C233.198745,75.090848 232.425752,74.8113241 232.185032,73.4406107 C233.937349,71.5093549 236.435747,70.3150256 235.798813,65.9966059 C238.081909,63.1864193 242.613712,64.4853832 245.322926,62.6602567 C247.460993,61.1849088 247.715168,58.4105969 249.673817,57.0055036 C257.792488,56.6198504 262.989634,53.3537559 268.430489,50.3343001 C267.210446,49.1743507 264.707563,50.40306 263.487519,49.7722628" id="Fill-1"></path>
                            <path d="M0.204835725,158.496587 L0.204835725,159.269389 C1.29480101,159.865806 1.97060938,158.179694 3.83207272,158.741731 C4.10867571,157.93455 3.8664612,158.145314 3.83207272,157.196129 C2.41765962,158.004805 1.90033727,158.426333 0.204835725,158.496587" id="Fill-2"></path>
                            <path d="M469.151558,16.3743912 C469.042412,17.2533219 469.250238,17.8138644 469.393773,18.4476512 C472.485745,19.9215044 476.1384,22.1337789 479.931599,22.0291443 C479.580238,19.6673917 480.599931,17.4192425 480.427989,16.1292473 C478.663711,15.9887379 476.208672,16.5492805 475.54632,15.356446 C475.99337,13.9513527 476.841121,13.6359541 476.317818,11.7390781 C471.753121,10.2637302 468.656663,12.8631528 465.283602,14.064956 C465.174456,15.356446 465.877177,15.8482286 466.298809,16.6210299 C467.388775,16.6554099 468.414449,16.6912846 469.151558,16.3743912" id="Fill-3"></path>
                            <path d="M325.164005,21.0097043 C326.675603,22.9424549 329.731692,23.2922335 331.316552,25.1188547 C331.10125,25.5762574 330.60486,25.7870214 330.784278,26.6644573 C333.142132,26.945476 333.840368,28.9111118 335.426723,30.0008065 C337.034011,26.734712 338.059684,22.8707055 341.604688,21.5014869 C342.095098,21.9140462 342.797819,22.2040336 342.872576,23.0560582 C342.942849,24.1352894 342.095098,24.3116735 342.376186,25.6106374 C344.273533,26.5942027 348.563122,26.3834387 349.050541,24.3460534 C347.293739,23.2578535 345.046526,22.6958162 344.695166,20.236903 C342.942849,19.2548324 339.571282,19.8512497 339.039009,17.6733551 C341.879796,17.8497392 344.624894,19.7107404 348.032343,19.2189577 C350.630916,18.8333045 352.383234,16.2353767 354.983302,16.4102659 C352.564147,14.51339 348.563122,14.7944086 345.218469,14.3370059 C340.09309,13.670334 337.288186,14.934918 333.626561,16.4102659 C333.203433,16.9364285 333.660949,18.3056471 333.142132,18.7286698 C331.874244,18.7286698 333.418735,16.6210299 332.370634,16.9364285 C331.34197,16.0231179 330.714006,17.6733551 329.804954,17.7092298 C329.804954,15.6374646 326.75036,16.6554099 324.923285,16.4102659 C324.426895,18.0605031 325.75758,18.9379391 325.164005,21.0097043" id="Fill-4"></path>
                            <path d="M131.05599,17.1471925 C132.069703,17.3235766 132.808307,17.7794845 133.620175,18.1666325 C135.587794,16.3743912 130.813776,13.8108433 131.05599,17.1471925" id="Fill-5"></path>
                            <path d="M122.835648,21.0097043 C122.692114,21.9932696 123.463612,22.0635242 123.608642,22.8019456 C127.959532,22.2040336 130.137967,23.8198908 132.842696,24.8737108 C133.96705,23.6450016 133.123784,22.6599415 132.601976,21.256343 C129.435246,20.4835417 124.628335,16.6912846 121.531876,19.1845778 C122.173296,20.0620137 123.814972,19.9573791 124.628335,20.7286856 C123.814972,20.5896711 123.429223,20.9050697 122.835648,21.0097043" id="Fill-6"></path>
                            <path d="M479.439694,23.8198908 C482.421026,24.3460534 487.621162,23.2922335 490.219735,21.7481256 C489.240411,19.2892124 484.574044,17.7092298 482.531667,19.4297217 C483.860856,21.3265976 479.474083,21.677871 479.439694,23.8198908" id="Fill-7"></path>
                            <path d="M115.635,23.2922335 C115.814418,21.9140462 115.525854,21.0097043 114.857521,20.4835417 C112.297822,20.834815 109.071286,20.5194164 108.187651,22.5209269 C110.230028,23.2578535 114.050139,22.1696536 115.635,23.2922335" id="Fill-8"></path>
                            <path d="M140.820823,23.0560582 C139.841499,21.2907229 136.359292,20.1666483 134.393168,20.9753243 C134.849189,22.4850522 135.69694,23.6091268 136.712147,24.5568174 C137.869394,23.8542708 140.54422,24.6629468 140.820823,23.0560582" id="Fill-9"></path>
                            <path d="M107.946932,24.8737108 C108.754314,27.9290413 112.719455,26.6300774 114.616802,25.3998734 C114.787249,24.5209427 113.662895,24.9783454 113.601594,24.3819281 C114.304315,24.2055441 114.89789,23.9604002 115.389795,23.6091268 C113.733167,22.5553069 110.712962,23.6450016 108.960644,24.1352894 C108.332681,23.3983628 105.40966,22.6255615 105.624962,24.6629468 C106.39646,25.2249841 106.64316,24.8034561 107.946932,24.8737108" id="Fill-10"></path>
                            <path d="M144.192389,24.8737108 C143.138308,24.4521828 138.428581,23.8198908 138.006948,25.6450173 C139.626197,25.9619107 143.600309,26.4536934 144.192389,24.8737108" id="Fill-11"></path>
                            <path d="M149.848546,26.6644573 C150.793482,24.7332015 146.511369,24.2414188 146.511369,26.4103447 C147.880927,26.2070546 148.483473,26.8049667 149.848546,26.6644573" id="Fill-12"></path>
                            <path d="M95.0871358,31.0187518 C95.2919715,31.5105344 95.4370012,32.0725717 95.8586339,32.3177157 C97.8307384,31.3700251 100.175136,33.0202623 102.009686,31.5464091 C101.830268,32.2833357 100.776186,32.213081 100.982517,33.3371557 C101.866152,34.9171382 104.671055,34.2489715 106.64316,34.109957 C106.085469,35.1279022 106.783704,35.8648288 107.169453,36.6720101 C112.152792,37.3401768 114.725948,33.5479197 119.257751,35.3730462 C120.516669,34.6719943 121.953509,34.1443369 123.116737,33.301281 C122.980678,32.2833357 122.980678,32.5284796 123.116737,31.5105344 C121.783062,30.7736078 120.092046,31.6854237 118.484758,31.5105344 C117.80895,30.8079878 117.421706,29.2982599 117.953979,28.1741852 C116.298847,27.999296 115.464553,28.5957132 113.843809,28.4193292 C113.637478,29.0531159 113.251729,29.5434038 113.31303,30.4925892 C114.195169,30.8079878 115.319523,30.9051485 115.886185,31.5105344 C115.353911,32.2833357 113.988838,32.1787011 113.070815,32.5284796 C110.15527,28.2085652 103.196836,29.6854079 99.1958115,30.7377331 C99.0238691,29.4731491 99.8985326,29.1921305 100.465195,28.6569992 C101.022886,29.2280052 101.721122,29.6495332 103.024894,29.4387692 C104.007208,28.9813665 104.816085,26.945476 104.043092,25.5762574 C103.797887,25.8572761 101.90054,24.6629468 101.721122,26.10242 C96.5269665,25.2593641 96.3550241,29.4731491 91.9547939,29.4387692 C92.1357072,30.2115705 91.7140745,30.3864598 91.7140745,30.9843718 C92.4526792,31.5105344 94.278259,31.2997704 95.0871358,31.0187518" id="Fill-13"></path>
                            <path d="M399.461062,46.7169323 L399.461062,48.5076788 C401.32402,48.8843634 404.620829,49.947152 406.41202,48.7528228 C405.46858,47.1025855 403.702806,47.1369655 403.317057,45.4164736 C402.372121,41.2026885 407.501986,38.4642514 409.503993,36.4268661 C411.825963,36.0755928 412.769403,34.3909756 414.630867,33.6166796 C416.49233,32.845373 419.017641,32.7751184 421.300737,32.0725717 C422.846723,31.5807891 426.400698,30.4223345 426.438076,28.9813665 C426.610019,25.1532347 419.514031,28.8423519 418.459949,28.9813665 C416.949846,29.1921305 415.510016,28.8064772 414.31539,28.9813665 C410.350249,29.6136585 408.309367,32.7048637 404.308342,32.845373 C403.109231,35.0576476 401.6694,37.0591581 399.422188,38.2534874 C401.358409,41.5539618 395.413687,42.0457445 395.833825,46.2251496 C396.787731,46.6377089 398.544534,46.2251496 399.461062,46.7169323" id="Fill-14"></path>
                            <path d="M142.647898,35.9007035 C143.275861,35.1622822 143.915786,34.4253556 143.66161,32.8094983 C142.090207,31.5105344 137.519529,33.1263917 135.937659,31.7915531 C136.0483,30.7377331 135.69694,30.1413158 135.40688,29.4731491 C133.509533,29.1921305 132.14446,28.1383105 130.523716,28.4552039 C129.228915,28.7003478 129.048002,29.9305518 127.959532,30.0008065 C126.06368,30.1054411 126.098068,28.2444399 123.850856,28.2085652 C123.29765,29.9649318 125.642047,30.8079878 126.172826,32.3177157 C125.857349,32.5987343 125.712319,33.0546422 124.878025,32.845373 C125.821465,35.6899395 127.925143,32.213081 130.523716,32.845373 C131.235408,33.4417903 130.173851,34.1443369 130.774902,34.6361196 C134.041807,36.3924862 135.200549,32.845373 137.980036,33.6166796 C137.869394,34.7766289 137.558403,35.3999522 138.220755,36.1817222 C139.587323,36.7781394 140.929969,34.8812635 142.647898,35.9007035" id="Fill-15"></path>
                            <path d="M558.61543,34.109957 C559.001179,33.5479197 559.247879,32.879753 559.147704,31.7915531 C556.960298,30.8782424 554.361725,32.3879703 552.718553,30.7736078 C550.602914,32.9500076 544.635766,28.3505693 545.271205,34.6361196 C549.442677,36.2519769 554.047743,34.109957 558.61543,34.109957" id="Fill-16"></path>
                            <path d="M568.903566,34.6361196 C567.924242,33.3715356 560.971788,32.2833357 560.9374,34.8812635 C562.229211,35.8304489 568.067776,36.4971208 568.903566,34.6361196" id="Fill-17"></path>
                            <path d="M91.4733552,47.7348775 C92.9819628,47.5241135 93.8177524,46.6377089 95.3278551,46.4702936 C96.7422683,42.4672725 101.202305,41.5539618 104.850474,39.7975952 C104.394452,38.2878673 102.494115,37.1996674 100.982517,36.9889034 C100.113834,36.8842688 99.0507818,37.5853207 98.1776135,37.515066 C97.5765627,37.4448114 97.0936288,36.7422647 96.3909077,36.4971208 C94.3485311,35.7945741 90.1680881,35.8648288 88.4127805,35.9709582 C90.5194486,39.3416873 88.3066247,42.5734019 86.0938009,44.468783 C89.079618,44.2938937 89.6462803,46.6377089 91.4733552,47.7348775" id="Fill-18"></path>
                            <path d="M127.476598,40.7811605 C127.186539,41.2729432 127.15215,42.0113645 126.945819,42.5734019 C128.807283,44.2236391 132.323878,44.2236391 133.620175,46.4359136 C135.091403,46.2251496 135.622182,45.4164736 137.242926,45.9082562 C137.980036,45.101075 138.682757,43.4852177 138.006948,42.0457445 C137.558403,41.4493272 136.179874,41.8006006 135.937659,41.0352731 C136.084184,40.1503633 137.483645,40.5001419 137.207042,39.2370527 C136.359292,36.6720101 129.82249,37.6481015 128.986701,39.7632153 C129.580276,40.3596325 131.166631,39.9739793 131.05599,41.3088179 C129.786607,42.1159992 128.738506,40.7811605 127.476598,40.7811605" id="Fill-19"></path>
                            <path d="M550.118485,40.0083592 C551.689889,40.6062713 555.317126,40.9216699 556.78985,40.0083592 C556.538665,37.5853207 550.324816,37.3745567 550.118485,40.0083592" id="Fill-20"></path>
                            <path d="M625.215448,46.4359136 C622.685653,45.4164736 618.506705,45.2759643 617.487012,47.6990028 C619.169057,49.0338414 625.077895,49.1399708 625.215448,46.4359136" id="Fill-21"></path>
                            <path d="M280.203311,61.8530755 C277.290756,60.4121075 275.50106,63.5720726 271.45219,62.624382 C270.679197,62.9054007 270.679197,63.9248407 269.384396,63.6423272 C268.997152,61.5361821 264.260513,61.0100195 263.728239,63.3971833 C264.009327,63.433058 264.009327,63.8187113 263.970453,64.1699846 C264.466843,64.6184186 265.659974,64.3463687 266.534638,64.4151286 C266.050209,65.5392032 264.646262,65.7858419 263.970453,66.7335325 C265.589702,66.9084217 266.995144,67.2955698 268.3348,67.7514777 C267.729263,68.524279 266.569026,68.735043 265.238341,68.769423 C271.74225,72.3524108 278.761985,68.313515 283.745324,65.9607312 C282.380251,64.8022766 280.94042,63.6423272 280.203311,61.8530755" id="Fill-22"></path>
                            <path d="M300.751175,94.7576696 C299.869035,95.7756149 297.980659,95.7412349 297.132909,96.8294348 C299.034741,99.2883481 297.028248,101.851896 296.119196,103.783152 C300.932088,103.712897 303.627846,101.535003 308.194038,101.219604 C307.676715,99.6381266 308.232912,97.9176347 310.275288,98.1283987 C309.633868,96.2673975 307.144441,96.2673975 306.166613,94.7920496 C305.84964,92.1941218 301.981684,91.3854457 301.283448,88.36599 C301.911412,87.2075354 303.455903,86.9265167 303.351243,85.0296408 C302.503492,84.5378581 300.787058,85.5214234 299.732977,84.7844969 C299.869035,84.2568395 300.254784,83.9414409 300.50597,83.5199129 C298.04196,81.167129 296.712771,84.3270941 295.373115,85.0640207 C295.829137,87.31217 295.974166,88.4018647 296.146109,90.7187738 C298.429205,91.2464312 300.229367,92.4048858 300.751175,94.7576696" id="Fill-23"></path>
                            <path d="M295.869506,97.0745788 C294.704783,94.6171603 296.821917,94.1956323 296.119196,91.9474831 C292.989844,90.7890285 291.650189,93.633595 288.918547,93.7397244 C289.752842,96.2673975 288.181438,97.0745788 288.141069,99.3929827 C291.373586,100.691947 294.609093,99.472206 295.869506,97.0745788" id="Fill-24"></path>
                            <path d="M552.959273,112.491741 C553.663489,111.227157 555.098834,111.929703 556.054236,112.491741 C556.647811,110.068702 554.118015,107.26001 556.573053,105.539518 C557.346047,105.714408 557.636106,107.189756 558.373215,106.557464 C558.724576,104.168805 556.753967,101.922151 556.29645,99.111964 C556.016857,97.3212175 556.511752,95.3899616 555.524952,93.7397244 C555.20798,93.7038497 555.172097,93.422831 554.750464,93.4587057 C552.68267,96.6186708 554.153899,103.325749 553.732266,108.103066 C553.237371,109.225646 552.113017,110.982013 552.959273,112.491741" id="Fill-25"></path>
                            <path d="M545.236816,129.207866 C544.670154,131.315506 543.967433,133.246762 542.141853,134.089818 C537.46502,133.772925 533.740598,136.231838 532.098922,139.743076 C532.761274,140.867151 532.907799,142.517388 534.168211,143.079426 C536.134335,142.938916 537.113659,139.04053 535.712703,137.95233 C537.333447,137.426167 539.677844,136.266218 541.36886,136.689241 C539.927534,137.390293 537.608555,137.215403 537.016475,138.759511 C538.311276,142.06148 540.244506,137.460547 542.421446,138.514367 C543.822403,136.538268 547.338999,135.459037 550.118485,135.704181 C550.505729,132.299072 554.361725,128.892468 554.230151,125.415609 C554.153899,123.484353 552.573524,122.677172 552.151891,120.533658 C552.539135,120.463403 552.573524,120.11213 552.924884,120.007495 C553.842907,120.252639 554.505259,120.807202 555.484583,121.02544 C556.511752,120.183879 557.772165,119.02393 559.593259,119.726476 C559.524482,118.708531 560.20029,118.427512 560.125533,117.408072 C556.924414,117.022419 556.016857,114.318362 552.924884,113.826579 C553.516964,117.618836 551.097809,118.357258 550.084097,120.497783 C551.133693,123.659243 549.236346,125.731008 549.312599,128.717579 C548.463353,129.735524 546.395559,130.542705 545.236816,129.207866" id="Fill-26"></path>
                            <path d="M519.032795,154.140798 C515.62385,151.964398 513.861067,159.795551 516.45964,161.341154 C517.135448,158.741731 518.851882,157.196129 519.032795,154.140798" id="Fill-27"></path>
                            <path d="M6.63697652,160.040695 C7.20363885,160.779117 8.0738169,161.166265 9.19667551,161.305279 C10.0100378,159.584787 7.40996973,158.110934 6.63697652,160.040695" id="Fill-28"></path>
                            <path d="M14.6106183,162.885262 C14.1187135,161.094515 11.2794212,160.181205 9.4792591,161.094515 C10.5019426,161.797062 11.16878,161.692427 11.0237504,163.166281 C11.8371127,163.378539 12.472552,162.007826 12.0524144,163.166281 C13.0302434,163.166281 13.9482663,163.131901 14.6106183,162.885262" id="Fill-29"></path>
                            <path d="M14.8573182,163.659558 C14.0095675,165.063156 13.9482663,167.100542 14.8573182,168.540015 C15.9069144,167.977978 16.9340834,167.38156 18.1900104,166.994412 C17.5620469,165.41443 16.5468392,164.2201 14.8573182,163.659558" id="Fill-30"></path>
                            <path d="M510.522394,183.957177 C514.707322,184.975122 514.39035,177.039335 518.500521,178.830081 C518.570793,179.426498 518.922154,179.777772 518.742736,180.620828 C519.695147,181.040861 520.602704,181.489295 521.30692,182.164935 C521.45195,183.079741 520.397868,182.797227 520.541403,183.712033 C523.177354,183.007991 524.327126,180.831592 525.424567,178.547568 C525.245149,177.248604 522.851411,177.424988 523.6259,175.985515 C522.29372,175.985515 521.727058,175.562492 520.541403,175.985515 C517.908441,174.123019 518.922154,169.347196 520.541403,166.994412 C517.412051,164.32623 514.465108,167.732834 514.632565,171.348707 C515.128955,172.332272 516.322086,172.578911 516.432727,173.913749 C516.181542,174.439912 515.901948,174.931695 515.659734,175.457857 C516.072396,175.809131 516.673446,175.985515 516.673446,176.756821 C515.659734,176.86295 514.811983,177.109589 514.113747,177.529622 C514.465108,181.217245 511.551058,181.602898 510.522394,183.957177" id="Fill-31"></path>
                            <path d="M525.209265,180.865972 C525.038818,183.429519 522.962053,184.096191 520.327596,184.202321 C519.590486,185.010997 519.203242,186.169451 518.53491,187.046887 C520.397868,187.608925 521.028822,185.852558 521.873582,186.274086 C522.645081,187.293526 522.851411,188.907888 523.941377,189.610435 C524.893788,188.59249 525.038818,186.731489 526.791135,186.51923 C526.686474,184.167941 526.900281,181.568518 525.209265,180.865972" id="Fill-32"></path>
                            <path d="M445.508731,182.656718 C445.438459,184.975122 444.980943,187.363781 445.994655,189.084273 C446.803532,188.943763 447.685671,188.873509 448.313635,188.556615 C449.754961,185.957193 448.494548,182.973611 445.508731,182.656718" id="Fill-33"></path>
                            <path d="M501.04762,193.474442 C500.44657,194.490892 500.587114,196.247259 499.501634,196.809296 C498.934972,196.177004 498.798913,195.123184 497.701472,195.018549 C494.268604,198.810807 498.061803,200.356409 498.474465,203.763013 C501.846031,204.571689 504.867732,205.764524 507.757859,207.099362 C510.561268,204.851213 509.544565,198.776427 513.653241,197.828736 C513.30188,195.614967 511.515174,194.84366 511.866535,191.928839 C512.458615,191.296547 513.687629,191.366802 514.465108,190.909399 C514.004601,189.048398 512.108749,188.628365 511.612359,186.801743 C507.502188,187.434035 506.307563,193.191928 501.04762,193.474442" id="Fill-34"></path>
                            <path d="M488.682719,202.21741 C486.605954,196.212879 479.544355,195.265188 476.595916,190.136598 C474.55354,190.480397 474.167791,189.118652 472.485745,189.118652 C470.724457,191.577566 474.069111,191.892964 475.54632,193.227803 C476.029254,193.649331 476.705062,194.632896 477.081841,195.299568 C480.13793,200.567173 483.89674,208.293691 489.941637,209.452146 C490.606979,207.62702 490.895543,205.449125 491.20803,203.27123 C490.750513,202.568684 489.557383,202.534304 488.682719,202.21741" id="Fill-35"></path>
                            <path d="M521.064706,201.691248 C521.064706,201.093336 521.486338,200.918446 521.30692,200.145645 C519.273514,199.443099 518.185044,200.005136 516.95603,201.16359 C516.322086,200.777937 515.901948,200.145645 514.886741,200.145645 C511.404533,202.287665 514.320078,205.483505 513.861067,208.890109 C514.500992,209.381891 515.128955,209.839294 516.432727,209.66291 C517.658751,207.906543 515.300897,204.254796 516.95603,203.763013 C516.494028,205.449125 518.645551,206.60758 517.729023,208.644965 C518.922154,208.644965 519.479845,209.311637 520.819501,209.171127 C522.04403,206.537325 519.237631,204.289176 518.259802,202.21741 C518.887765,201.716659 519.940352,201.655373 521.064706,201.691248" id="Fill-36"></path>
                            <path d="M555.028562,205.027597 C553.877296,204.46556 552.573524,203.903522 551.169577,203.235356 C549.904679,202.638938 548.393081,201.233845 547.581214,201.16359 C544.885456,201.024576 543.822403,204.535814 541.161034,204.501434 C540.414953,203.200976 540.244506,201.3041 539.616543,199.864627 C537.429136,199.443099 533.428112,199.1277 533.428112,201.655373 C534.734874,202.428174 536.801173,202.393794 538.070556,203.200976 C537.079271,203.235356 536.871445,204.044032 536.279365,204.501434 C539.04988,207.203997 545.624061,206.115797 547.09828,210.154693 C546.95325,211.313147 545.624061,211.278767 545.794508,212.718241 C546.567501,213.561296 548.318323,213.667426 549.657979,213.244403 C550.918391,214.579242 553.201487,214.824386 554.541143,216.08897 C555.738759,215.386423 556.366722,214.157714 557.103832,212.999259 C562.931932,212.85875 562.96632,218.441753 569.434345,217.634572 C567.95863,215.071024 563.25638,214.683876 564.310461,210.434217 C563.145738,207.591145 559.11182,207.029107 555.028562,205.027597" id="Fill-37"></path>
                            <path d="M571.998529,209.135253 C572.139073,208.012673 572.841794,207.380381 572.771522,206.045542 C571.998529,205.694269 571.86247,206.186052 570.702233,206.045542 C570.835301,209.277257 566.87016,208.398326 564.270092,208.855729 C566.690742,209.311637 569.890366,210.68235 571.998529,209.135253" id="Fill-38"></path>
                            <path d="M503.852524,211.981314 C504.833343,211.849773 505.121908,212.437222 506.171504,212.226458 C506.28065,211.244387 505.679599,210.996254 505.398511,210.434217 C498.619495,211.068003 495.524532,210.540346 490.750513,209.171127 C490.641367,210.329582 490.931427,211.032129 491.282787,211.77055 C498.027415,211.700295 501.6397,214.755626 508.494969,214.579242 C508.142113,212.507477 504.942489,213.280278 503.852524,211.981314" id="Fill-39"></path>
                            <path d="M509.266467,213.77206 C510.03946,215.737696 514.074873,215.91408 513.895455,212.999259 C512.349469,212.437222 510.561268,213.314658 509.266467,213.77206" id="Fill-40"></path>
                            <path d="M521.595484,217.353554 C524.050523,216.344577 526.403891,215.141279 528.788657,214.017204 C526.610222,211.734675 521.342804,213.91257 521.595484,217.353554" id="Fill-41"></path>
                            <path d="M514.149631,216.08897 C514.922624,216.510498 515.514704,217.106915 516.95603,216.861771 C517.060691,215.878206 516.45964,215.667442 516.181542,215.071024 C515.093071,214.96639 514.113747,215.036644 514.149631,216.08897" id="Fill-42"></path>
                            <path d="M568.903566,238.17883 C568.241214,237.791682 567.074996,237.932191 566.593557,237.406029 C566.133051,233.788661 562.544688,233.367133 561.179614,231.260988 C559.633628,228.872329 559.318151,224.341651 556.538665,223.042687 C556.262062,220.619648 555.351515,216.791516 552.959273,218.160735 C551.981444,221.392449 553.842907,227.432856 551.655501,229.468746 C547.193969,229.468746 546.422471,225.816998 542.421446,225.361091 C542.878963,223.358085 544.595396,222.550904 544.740426,220.233995 C543.511412,218.863281 542.10597,220.304249 540.630255,219.987356 C539.616543,219.742212 539.360872,218.758647 538.311276,218.688392 C536.665114,218.592726 535.471983,220.19812 533.428112,219.987356 C532.133311,221.181685 531.783445,223.289325 531.361812,225.39547 C529.246173,225.078577 528.301238,223.112941 526.478648,223.604724 C525.004429,223.990377 525.485868,226.238526 523.914464,227.222092 C522.645081,227.994893 522.114302,227.081582 520.327596,227.713874 C519.273514,229.153348 519.237631,231.610766 518.53491,233.367133 C513.934329,235.545027 506.633506,234.98299 504.130622,239.26703 C504.516371,241.40905 504.697285,244.745399 503.611805,246.220747 C505.292355,250.364277 507.149333,254.332918 508.239298,259.074361 C507.611334,259.530269 506.307563,259.353885 506.171504,260.373325 C506.667894,262.866618 509.438409,263.077382 512.349469,263.183511 C513.970213,261.110251 518.609667,260.969742 521.873582,261.39127 C525.705655,255.631882 541.222335,253.630372 542.699545,262.936872 C544.595396,262.619979 544.28291,260.056431 546.286413,259.845667 C547.304611,260.092306 547.063891,261.636414 547.063891,262.936872 C549.622095,266.096838 551.80053,269.678331 556.573053,270.661896 C557.876825,270.487007 557.842437,269.011659 559.147704,268.836769 C561.394916,273.120809 563.573352,267.010148 567.11686,269.081913 C568.241214,268.379367 567.46224,267.046023 567.888358,265.50042 C568.586594,262.936872 570.835301,261.497399 571.998529,259.074361 C573.578904,255.806771 574.316014,250.679676 573.78673,246.465891 C573.338185,243.024907 569.676559,242.216231 568.903566,238.17883" id="Fill-43"></path>
                            <path d="M391.764023,220.724283 C390.505106,222.059121 389.16545,223.39396 388.66906,225.606234 C387.022898,226.625674 384.110344,226.379036 382.24888,227.151837 C382.286259,229.855894 383.506303,231.365622 384.035586,233.577897 C380.387417,236.458338 380.835962,246.361256 387.132045,244.639269 C391.654877,243.37618 388.704944,232.630206 392.537016,229.994909 C392.366569,228.872329 392.994533,228.55693 392.788202,227.432856 C393.16498,226.975453 394.539024,227.501616 394.323722,226.413416 C393.937973,224.026252 393.525311,221.673468 391.764023,220.724283" id="Fill-44"></path>
                            <path d="M614.155814,267.993714 C613.623541,265.64093 610.467276,265.886074 610.562966,262.866618 C609.719701,262.585599 609.052863,262.164071 608.001772,262.093816 C608.27987,265.253782 611.519863,265.394291 611.09524,269.292677 C610.467276,269.573696 609.830342,269.924969 609.308534,270.310623 C610.528577,271.821845 610.987589,274.104375 611.866738,275.965376 C613.547288,275.086445 614.988614,273.92799 614.963196,271.330063 C618.396064,271.259808 618.576977,266.413731 614.155814,267.993714" id="Fill-45"></path>
                            <path d="M607.967383,275.192574 C607.023943,274.700792 606.914797,273.331573 605.645413,273.155189 C605.824832,280.530434 597.465441,279.37198 597.425072,286.536461 C598.624183,286.781604 599.748537,287.123909 600.763744,287.552911 C602.140779,286.430331 603.721154,285.5514 605.123606,284.464695 C604.87242,279.336105 610.141333,279.688873 610.528577,275.192574 C609.789973,274.524408 609.052863,275.439213 607.967383,275.192574" id="Fill-46"></path>
                            <path d="M558.61543,273.639498 C558.4704,274.244884 558.228186,274.806921 558.373215,275.718737 C559.55887,276.913066 560.297475,278.564798 561.214003,280.073031 C562.619445,279.934017 563.317681,279.934017 564.310461,279.827888 C564.34485,277.615613 565.745806,275.509468 565.081959,273.400333 C563.317681,274.315139 559.739784,274.315139 558.61543,273.639498" id="Fill-47"></path>
                            <path d="M630.870111,59.0428889 C629.987971,59.3239076 630.51875,60.9038901 629.851913,61.359798 C629.044531,60.7633808 630.168885,59.9905795 630.133001,59.3239076 C623.388374,54.3373212 613.974901,50.6153188 603.396706,50.3343001 C602.45177,51.7378986 604.556943,52.0189173 604.42537,53.4240105 C602.067516,54.7932291 601.11361,52.897848 600.315199,51.3522453 C596.266329,50.824588 590.330579,53.6003946 588.748709,50.0876614 C587.986182,50.6496987 589.873063,51.5271346 589.280983,51.8784079 C586.224893,53.7050292 586.474584,50.790208 584.11673,49.0697161 C583.239076,48.4374242 581.482274,47.6990028 580.253259,47.5241135 C577.895406,47.1728402 575.718465,48.2969148 573.048125,48.0517709 C571.01472,47.8753868 569.504617,46.1190202 567.391968,45.9785109 C567.004724,43.2056938 563.573352,43.4852177 560.717613,43.1698191 C559.524482,43.1698191 561.104857,42.4313978 560.717613,41.6242165 C558.821761,44.258019 552.609407,41.4493272 549.408288,42.8888005 C548.884985,43.6616018 549.442677,45.4867283 548.884985,46.2251496 C544.423454,45.2415843 539.120152,48.0861508 537.574166,44.1533844 C536.52158,43.9067457 536.766784,45.6631123 536.029675,44.9246909 C535.397226,43.4852177 535.084739,41.7647258 534.479203,40.2893779 C533.70621,42.9590551 536.801173,44.7498017 535.782975,47.7348775 C535.180429,48.0861508 533.318966,48.5076788 532.933216,48.2610401 C529.947399,47.4194789 531.713173,41.7647258 530.128313,39.5180714 C527.314438,39.2370527 524.857904,38.6032659 521.907971,38.4986313 C521.064706,40.8514152 519.058213,42.0457445 516.784088,41.8349805 C514.98243,41.6944712 513.825183,39.7273406 511.646748,39.2714326 C507.681607,38.4283767 503.611805,39.2714326 499.852994,38.4986313 C499.779732,37.72583 500.660376,37.515066 500.095209,36.9530287 C498.474465,39.622706 494.192352,39.622706 491.344089,41.0621792 C492.88858,38.2878673 499.283342,37.1637927 502.654908,35.1622822 C503.70899,34.5299902 505.156296,33.5479197 505.217597,32.3535904 C505.509152,27.788532 497.73586,27.5762732 493.144251,29.0172412 C492.019897,28.5254586 491.985508,26.9096013 490.290007,26.945476 C490.820786,26.2070546 490.750513,25.891656 490.544183,24.8737108 C487.378947,24.0650348 484.357247,25.5403827 482.566055,26.945476 C482.495783,27.7526573 482.737998,28.8423519 482.325336,29.2623851 C480.248571,28.9469865 478.496254,30.6316037 476.1384,31.0546265 C474.55354,31.3356451 472.695067,30.8782424 471.014517,31.0546265 C468.47575,31.2997704 465.21333,32.634609 462.794175,32.845373 C461.982308,32.9156277 461.029896,32.668989 460.472205,32.845373 C458.263867,33.5479197 456.533977,36.3924862 456.110849,38.2534874 C451.444482,37.3745567 445.016826,38.2176127 445.824208,42.3626379 C446.211452,44.1175097 448.21645,44.1175097 450.213972,44.679547 C447.506253,46.6810576 443.747443,43.8021111 441.995125,42.3626379 C441.14887,42.4672725 440.483528,42.7482911 440.700324,43.9067457 C439.251523,43.5913471 439.045192,44.468783 438.900162,45.4523483 C439.009308,46.7871869 441.05019,46.2251496 441.749921,46.9979509 C440.133662,48.0861508 438.487501,47.0323309 437.111961,46.4702936 C437.605361,44.713927 439.466825,42.1862538 437.111961,41.0621792 C436.515396,41.3431978 437.002815,42.6780365 436.868252,43.3805831 C433.604337,43.5913471 434.196416,47.1369655 435.601859,49.0338414 C435.500188,50.5091894 434.016998,51.1325127 434.307058,52.3701906 C435.045662,55.6273164 443.360199,51.3522453 441.258016,56.479341 C440.374382,55.1086277 439.045192,54.2311918 436.374852,54.6885945 C435.853044,59.4987968 433.921309,62.8710207 427.623731,61.8874554 C429.981585,60.6228715 433.665638,60.0264542 434.052882,56.7693284 C434.162028,55.8126691 433.49519,55.4613958 433.279889,54.4419558 C432.831343,51.9486626 434.052882,47.8753868 431.742873,46.7169323 C432.155535,45.2415843 433.534064,44.713927 434.052882,43.3805831 C433.252976,41.4493272 430.259683,41.6944712 427.913791,41.3431978 C426.535261,44.0128751 424.15199,45.6287324 422.254643,47.7797209 C422.390702,49.3507348 423.728862,49.7363881 423.272841,51.8784079 C423.764746,53.6347745 426.258658,53.3537559 425.872909,55.9875584 C423.728862,55.6004104 422.220255,53.1773718 419.694944,52.4060653 C417.618179,51.7737733 415.294714,51.8081533 413.261308,51.1325127 C411.365456,50.4748094 409.81947,48.9292068 408.13892,49.8768974 C407.715792,51.5630093 410.662735,51.9142827 411.716817,52.9681026 C411.571787,53.8799185 411.606176,54.8993585 411.186038,55.5316505 C409.638557,55.7767944 410.000383,54.1624319 408.87603,53.9860479 C405.32355,54.1968118 402.723482,55.3911411 400.123414,56.5495957 C399.943996,55.4613958 400.936776,55.4957757 400.897902,54.4778305 C396.787731,54.2311918 393.766031,57.2865223 389.585588,57.8141797 C388.81409,58.6213609 390.008716,59.1131436 389.827802,60.1221201 C387.966339,60.6587462 385.971807,60.8336355 385.476912,58.8679996 C386.565382,59.0428889 387.483405,58.0937035 387.544706,56.5495957 C385.932933,55.7767944 383.047291,55.1803771 381.649325,55.0039931 C382.214492,57.356777 383.649837,58.8321249 383.434535,61.9577101 C379.745997,60.3074729 378.974499,63.3269286 375.469865,63.222294 C375.540137,64.6961472 376.555344,65.2238046 376.761675,66.5586432 C374.306637,67.3299497 373.002865,65.0474205 370.5867,65.0130406 C369.282929,66.9084217 372.304629,67.8576071 372.134182,68.5945337 C370.017048,68.735043 368.892694,67.891987 367.491737,67.3299497 C368.436673,62.8710207 364.893164,62.7305114 363.381566,60.1221201 C368.230342,61.6408167 375.290446,65.4345686 378.551371,60.1221201 C377.959291,58.6916156 376.519461,56.4090864 374.692386,55.4957757 C374.030034,55.1445024 372.65599,55.3552664 371.601908,54.9696132 C369.706056,54.3014465 368.158575,52.4404452 364.927553,53.7050292 C363.877957,52.4404452 361.340685,51.5973893 359.803669,51.633264 C359.091977,50.9307173 360.045884,50.36868 360.045884,49.5958787 C358.003507,48.5779335 354.851728,47.1369655 352.603021,48.5779335 C351.548939,48.6840629 352.176903,47.1025855 351.052549,47.3133495 C348.941395,47.2789696 348.202791,49.3148601 346.169385,48.5779335 C344.624894,48.7184428 344.203261,50.3343001 342.833702,50.8963374 C341.709349,51.3522453 340.308392,50.9650973 339.210951,51.4225 C338.059684,51.8784079 337.458634,53.1071172 336.406047,53.4942652 C335.633054,53.7394091 334.894449,53.4942652 334.087067,53.7394091 C332.08805,54.4075758 330.364141,55.6004104 328.709008,56.302957 C329.274176,57.2177624 330.60486,57.322397 332.053662,57.322397 C331.10125,58.9023796 329.550779,59.4285422 328.709008,60.9397648 C328.392036,61.5018022 328.537066,62.4838727 328.185705,63.01153 C327.170498,64.5915126 324.923285,65.0130406 324.598837,67.1206805 C320.813114,70.5960442 312.619685,71.8247535 315.605503,80.4645824 C315.856688,81.4914963 315.192841,81.623037 314.84148,82.0086902 C316.593798,86.4347341 322.880909,83.9758208 324.598837,81.2373837 C326.84605,83.7650568 327.136109,88.2957353 329.239787,90.9997925 C331.522883,90.7890285 332.150847,88.9280273 334.65373,88.9280273 C336.163833,86.2239701 335.7422,82.8876209 339.281223,81.9743103 C339.666972,79.1297438 338.411045,77.9010345 336.198221,77.6200159 C336.68564,72.8800682 339.812002,70.8068082 343.149179,68.8755523 C343.391394,67.0504259 344.343805,65.9607312 344.940371,64.5212579 C346.727076,64.3463687 348.032343,63.6423272 350.073225,63.7484566 C349.651592,67.6124632 345.327615,68.0683711 343.922173,71.1939563 C344.695166,73.6080261 343.817512,77.6200159 345.191556,79.4107624 C348.975784,79.8681651 350.702684,78.2523079 353.156227,77.3389972 C354.038366,77.8651598 354.811359,78.4271971 355.974587,78.6035812 C357.024183,78.3584372 357.058572,77.1282332 357.520573,76.2851773 C359.900854,78.7082158 355.548469,79.5871465 354.670815,81.167129 C352.879624,79.9727997 348.914483,80.3240731 346.982747,81.167129 C346.873601,83.1327649 348.177373,83.7396456 348.769453,85.0296408 C348.202791,85.9070767 348.563122,87.733698 347.223467,87.8398274 C346.486357,87.0924373 346.341327,85.8024421 346.451969,84.2568395 C343.609686,85.5214234 342.582517,88.6111339 341.818495,91.9833578 C340.23812,93.5289604 337.564789,92.3346311 335.390839,92.7561591 C333.735707,93.0715577 332.92384,94.476651 331.522883,94.5469056 C329.067845,92.0177377 326.047639,95.8114896 324.075535,93.5289604 C324.247477,91.3854457 326.84605,91.7023391 327.412712,89.9459725 C326.179212,88.36599 324.211593,87.488554 324.075535,84.8188768 C322.034653,84.9952608 321.40669,86.5752434 319.965364,87.3824247 C319.860703,90.0521019 320.985057,91.5274498 322.034653,93.0371777 C321.515836,95.6007256 319.123594,94.3017617 317.405665,94.8279243 C316.317195,95.1791976 315.469444,96.8294348 314.310702,97.9176347 C311.916964,100.165784 309.041788,100.691947 308.654544,104.09855 C307.566074,105.011861 305.985699,104.801097 304.545869,105.363134 C302.612638,106.135936 301.524168,107.751793 298.367903,106.38108 C297.270462,109.331776 300.50597,110.032827 302.718794,110.49023 C304.158624,112.246597 304.400839,116.460382 302.718794,117.93573 C297.946271,118.742911 293.450351,115.968599 290.389776,118.180874 C290.52434,120.603912 291.759335,122.360279 291.407974,124.361789 C291.201643,125.520244 289.823114,126.012027 289.616783,127.170481 C289.34018,128.751958 290.389776,129.243741 290.389776,131.034488 C291.443858,131.315506 292.918077,131.771414 293.972159,131.279632 C294.851308,132.228817 295.407504,133.421651 296.291138,134.370837 C294.359403,135.352907 293.270933,137.179529 292.423182,139.251294 C289.752842,139.849206 288.628488,141.955351 287.794194,144.379884 C287.794194,145.39783 288.034913,146.205011 288.567187,146.696793 C287.092968,148.417285 285.120863,149.577235 282.656854,150.314161 C281.146751,151.438236 280.58906,154.036164 279.043073,156.495077 C277.290756,159.303769 273.252352,162.403943 276.721103,164.992902 C276.975279,167.206671 277.748272,170.119997 276.478889,171.6656 C275.35603,177.143969 278.693208,178.302424 280.870148,181.428009 C283.465731,185.185886 287.333687,191.437056 290.113173,191.963219 C296.712771,193.262183 305.84964,191.541691 310.406862,188.873509 C313.081687,189.224782 314.421343,190.839144 315.820804,192.455002 C318.1039,192.665766 320.668085,192.595511 322.252945,193.474442 C323.123123,197.055935 320.703968,198.461028 320.703968,200.918446 C320.703968,205.10682 326.143329,206.326561 325.832337,210.68235 C329.094757,211.77055 327.267683,217.985846 329.165029,220.444759 C327.412712,223.086035 325.129616,227.607745 325.832337,231.751275 C326.288358,234.631717 329.203903,237.12501 329.942508,240.250595 C330.2535,241.583939 329.902139,243.060782 330.192198,244.359745 C331.377853,250.117638 335.59717,253.700626 336.610883,257.739522 C337.383876,260.758978 336.721524,262.866618 339.184038,263.39278 C340.900472,263.744054 345.507033,262.900998 347.680983,262.619979 C356.071772,261.602034 359.866466,255.561628 363.877957,249.276077 C364.190443,247.730475 363.06609,247.6946 363.106459,246.465891 C366.645482,246.184872 369.00184,239.829067 366.187965,237.229644 C368.651975,232.383567 375.637321,231.751275 376.725792,225.923128 C377.222182,223.217576 375.91841,221.28632 375.430991,218.477628 C374.903202,215.281788 375.81674,211.911059 374.657997,208.715219 C377.051735,206.396816 378.165622,203.235356 380.31266,200.743557 C381.477382,199.372844 383.338846,198.776427 384.668035,197.652352 C390.008716,193.298058 393.103679,187.643304 394.710966,179.390624 C391.167458,179.321864 384.42283,183.149996 380.835962,179.918281 C380.559359,175.774751 375.857109,175.036329 373.885004,171.946619 C373.533644,171.348707 373.533644,170.253033 373.112011,169.383071 C372.726262,168.61027 371.781326,167.907723 371.56752,167.311306 C370.899187,165.695448 371.044217,164.36061 370.307107,162.957011 C369.706056,161.867317 368.616091,160.885246 367.988128,159.619167 C366.478025,156.563837 366.222354,152.841834 364.120171,150.103397 C364.435648,150.314161 364.822892,150.454671 365.423943,150.348541 C368.545819,145.327575 364.120171,143.219935 359.51361,143.396319 C357.906322,143.466574 356.287074,144.695283 355.16272,144.695283 C354.353843,144.660903 353.616733,143.817847 352.348845,143.396319 C351.088433,143.009171 349.542446,143.219935 348.49285,142.868662 C346.245638,142.175084 344.307922,139.849206 340.791326,141.605572 C340.23812,142.623518 340.866083,143.430699 340.791326,144.695283 C340.018333,145.22294 339.074892,145.572719 338.723532,146.486029 C336.962243,145.749103 336.515193,143.711718 333.840368,143.922482 C333.563765,139.076405 326.433388,142.23637 324.320739,139.568187 C325.095228,136.689241 323.338425,135.003129 323.544756,132.61447 C319.267128,132.192942 314.84148,132.228817 309.923928,132.861109 C304.931618,133.491906 302.478074,138.620497 297.064132,135.433625 C297.173278,133.8088 298.152602,133.071873 298.855323,132.086813 C302.890736,133.001618 305.318862,130.648834 307.069684,128.50532 C307.214714,127.346865 306.938111,126.574064 306.828965,125.696628 C307.987707,122.745932 312.413355,123.053857 312.233936,118.742911 C315.509813,118.427512 319.19237,119.831111 321.515836,116.671146 C323.860233,116.88191 325.446588,117.899855 325.626006,120.252639 C328.004792,122.324404 331.452611,123.343844 333.590677,125.662248 C333.493492,126.890957 333.770095,127.698138 334.36367,128.224301 C332.998597,129.79681 328.537066,126.961212 328.185705,129.769904 C329.203903,131.315506 331.908632,131.174997 332.536596,133.106253 C333.273705,129.488885 336.33428,129.735524 335.873773,124.889447 C336.936826,125.134591 338.582987,125.837137 339.74173,125.134591 C335.281693,122.360279 328.77928,120.358768 329.203903,113.579941 C333.563765,114.985034 335.003595,119.269074 339.50101,120.533658 C338.473841,126.680193 343.817512,128.50532 345.155672,133.142128 C349.191086,131.807289 345.894277,127.312485 346.942378,124.396169 C349.120814,124.677188 350.354313,124.046391 351.825542,123.624863 C351.644629,129.278121 354.57064,131.841669 358.776501,133.142128 C362.539796,132.75498 365.872488,132.158562 369.559532,132.367832 C369.629804,133.317017 368.931568,135.704181 369.810717,137.003145 C366.754628,138.514367 370.017048,145.642973 367.491737,148.066012 C368.761121,151.508491 371.42249,154.317182 373.147895,157.829916 C374.587725,160.708862 374.415783,163.553429 377.498785,164.501119 C378.380924,166.783648 379.891027,168.43538 381.091633,170.401016 C381.332353,172.499687 380.665515,174.580421 381.091633,176.054274 C385.055279,178.900336 396.47674,173.492221 399.075313,170.401016 C400.199667,170.575905 400.510658,169.979488 401.635012,170.155872 C404.128924,168.540015 405.528386,165.800083 408.584475,164.747758 C408.414028,161.728302 410.134947,160.672987 411.150155,158.847861 C409.853858,156.98686 407.219402,156.424822 405.502968,154.983854 C405.432696,154.106418 405.710794,152.912089 405.253278,152.420306 C402.689094,154.702836 397.696783,159.233514 395.001026,154.73871 C394.820112,153.755145 394.785724,153.68489 395.241745,152.947964 C394.613782,151.613125 393.380282,150.840324 391.904567,150.384416 C391.303517,148.918037 391.097186,147.083941 389.090693,147.048067 C390.008716,143.605588 394.649665,145.2917 395.772524,147.293211 C395.871204,151.964398 401.880217,152.982344 405.528386,151.166186 C406.241573,151.894144 406.338758,153.228982 407.075867,153.965909 C412.564568,154.070544 416.674739,155.264873 421.722369,153.965909 C423.30723,154.632581 423.1622,156.98686 424.286554,158.07506 C425.410908,158.356078 427.176681,157.907644 428.396725,158.601222 C428.928998,159.444278 427.623731,160.287334 427.383012,161.166265 C428.646415,163.378539 431.672601,161.375534 433.568453,161.166265 C431.418425,170.401016 437.363147,177.810641 439.997603,184.834613 C444.493523,183.605903 448.277751,178.97059 446.14118,173.526601 C448.424276,169.62971 454.188084,166.574379 457.692719,163.236535 C458.857442,162.18421 459.699212,160.357589 461.029896,160.155793 C465.104184,159.514533 467.497921,163.166281 470.275912,165.27392 C469.960435,168.329251 470.724457,170.296382 471.531839,172.193257 C473.744663,172.578911 473.648973,169.62971 474.869017,169.62971 C476.705062,169.62971 478.31534,175.282968 479.228878,176.828571 C479.013576,177.880896 477.297142,182.411574 477.442172,184.025937 C477.578231,185.573034 479.439694,185.957193 480.284455,187.889943 C480.599931,188.59249 480.353232,189.469926 480.525174,189.961708 C481.828946,193.438567 485.166123,197.371333 488.262582,196.634407 C488.503301,194.106734 485.311153,192.806275 486.993198,190.453491 C485.27527,188.907888 483.765167,187.187397 481.055953,186.589485 C479.690879,183.149996 480.284455,178.900336 480.284455,175.528112 C485.27527,176.652186 487.378947,180.620828 489.274799,184.800233 C490.992728,183.605903 492.466947,182.762847 493.917244,181.463884 C496.091194,179.462373 498.158988,176.371168 496.756536,172.472781 C495.910281,170.084123 491.55939,168.714904 491.344089,166.574379 C491.136263,164.466739 493.806603,162.604243 494.192352,161.166265 C499.186157,161.375534 502.764054,160.427843 506.521369,159.093005 C509.012291,158.215569 511.189231,158.215569 512.700829,156.529457 C513.762387,155.335128 515.335286,151.753635 516.809505,150.103397 C517.763412,149.049577 518.996911,148.417285 519.128485,147.539849 C519.273514,146.45165 518.114772,145.080936 517.872558,143.956862 C517.196749,141.14817 517.232633,137.285658 515.018314,135.740055 C515.62385,133.843179 517.872558,133.598036 519.38266,132.64885 C519.831206,129.52476 521.80331,127.874523 523.492831,125.977647 C524.968546,126.890957 523.204267,128.645829 523.735046,129.840158 C524.363009,130.683214 526.163171,130.296066 527.072223,130.858104 C526.961582,132.684725 525.94787,135.248273 527.072223,136.758001 C527.348826,136.723621 527.528245,136.828255 527.603002,137.003145 C530.092429,137.109274 531.396201,136.021074 532.486166,134.686235 C533.112635,130.016542 530.271847,128.856593 529.389708,125.696628 C530.479673,125.415609 531.251171,124.819192 532.486166,124.677188 C533.61052,123.940261 533.112635,122.464913 533.740598,121.587477 C535.009982,119.97162 536.726415,120.497783 539.401241,119.796731 C541.609579,119.198819 544.146851,116.636766 546.071111,113.896834 C547.760632,111.473795 550.21567,108.207701 550.95278,106.215159 C551.655501,104.345189 551.414781,102.659077 551.727268,101.324239 C552.042745,100.095529 553.167099,98.4452921 553.03104,97.2240568 C552.752942,94.5827804 549.408288,93.2823217 546.325286,94.6515402 C545.162059,94.1253776 544.463823,93.0715577 542.988109,92.8607937 C544.244036,90.6843939 546.492743,89.7352085 548.642771,87.733698 C550.21567,86.2239701 551.836414,83.2030195 553.76815,82.3255836 C556.152916,81.2373837 559.209005,81.9743103 562.759989,81.5527823 C563.006689,82.8173663 562.061754,82.9234956 561.986996,83.8711862 C563.25638,83.8009316 562.96632,82.1148196 563.532983,81.3076384 C567.330667,78.9548545 571.476721,83.6260423 575.862,81.3076384 C576.600605,76.8830893 579.729956,74.880084 584.61312,74.63494 C585.377143,75.4421213 584.191488,75.7231399 584.36343,76.7067052 C587.032275,77.9712892 588.578262,75.512376 589.521702,75.1611026 C587.91591,77.4451266 584.227371,81.833801 587.986182,77.9712892 C588.784592,77.164108 589.487314,76.74258 589.777373,75.899524 C590.294695,74.7754494 589.630848,72.5287949 591.845167,73.0908322 C592.833462,76.0041586 590.018092,77.0579786 587.986182,78.9892344 C586.259282,80.6394717 585.241084,82.642477 583.876011,83.3435288 C583.068629,83.7650568 582.039965,83.6604222 581.302855,84.1178249 C576.35839,87.2419153 576.951965,95.1089429 578.221349,102.09704 C582.572239,101.219604 584.70881,98.1642735 585.943805,94.1253776 C586.825944,93.5633403 588.156629,93.3884511 589.038768,92.8264137 C588.818981,89.1044113 593.183328,85.8726968 589.038768,84.0819502 C590.936115,80.9204903 592.2668,80.147689 596.230446,79.2014932 C596.832992,79.0594891 597.499829,78.4630719 598.030608,78.4271971 C599.853197,78.2523079 601.260135,79.5512718 602.913772,79.4466372 C604.775235,79.3405078 606.357105,76.7769599 608.314258,75.5841254 C611.410717,73.6872495 614.190203,72.5990496 617.838372,73.5467401 C620.160342,71.5093549 618.224121,67.2955698 615.520888,67.1206805 C617.029495,66.2417498 619.59368,66.4181339 621.416269,65.8202218 C622.195243,64.9427859 620.368168,63.3971833 620.897452,62.7305114 C622.927867,63.6079473 624.442455,65.0130406 627.326602,65.0474205 C628.271538,66.6632778 629.987971,67.5063338 631.677492,68.3837697 C633.470179,68.102751 633.434295,66.0309858 634.241677,64.7664019 C635.683003,64.3807486 637.154231,64.06535 638.629946,63.7484566 L638.629946,62.9756553 C636.381238,61.2192887 633.891811,59.8500702 630.870111,59.0428889" id="Fill-48"></path>
                            <path d="M236.715341,203.763013 C234.783605,203.235356 232.606665,204.254796 230.815474,202.745068 C229.378633,202.674813 229.378633,204.044032 227.965715,204.044032 C228.000104,203.37736 228.992884,203.656884 228.992884,202.990212 C227.965715,201.655373 225.124928,199.900501 223.082551,200.18152 C221.400506,200.392284 221.400506,202.112776 219.745374,202.253285 C220.421182,201.374354 221.822139,201.233845 222.068839,199.934881 C221.400506,199.057445 219.965161,198.951316 218.97238,198.390773 C219.394013,196.177004 218.416184,195.335443 217.185675,194.807785 C216.94047,193.78984 217.752337,193.298058 217.185675,192.727052 C215.925262,190.76889 214.235741,188.837634 211.526527,188.381726 C208.68574,187.924323 205.87037,188.837634 204.083664,186.836123 C204.820773,184.877961 202.401619,184.167941 200.988701,183.499774 C200.215708,183.499774 199.6939,183.737444 199.451685,184.272575 C198.850634,183.737444 200.431009,183.184375 200.215708,182.20081 C199.898735,181.323374 198.182302,181.815157 197.409309,181.428009 C197.22989,180.656702 197.651523,180.480318 197.651523,179.883901 C195.718293,179.075225 194.072131,180.303934 193.02403,181.14699 C191.609617,180.094665 190.038213,180.865972 188.381585,180.383158 C186.243519,179.741897 184.622775,176.828571 181.95393,179.602882 C181.008994,180.936226 182.726923,182.130556 181.708725,182.937737 C179.534775,181.955666 181.747599,178.338298 183.003526,177.529622 C181.466511,176.407043 180.233011,178.442933 178.652636,179.075225 C177.419136,179.567008 176.018179,179.109605 175.038855,179.848026 C173.624442,180.936226 173.805355,183.184375 172.474671,184.202321 C170.638625,182.20081 166.432764,182.060301 164.246853,183.676158 C159.785322,182.23519 159.860079,177.565497 160.909676,172.368147 C159.157358,170.296382 154.419224,171.525091 151.639738,171.103563 C152.131642,170.119997 152.654945,169.206687 152.412731,167.486195 C153.922834,165.976467 154.102252,163.166281 154.976915,161.060135 C153.221608,159.795551 149.88443,161.060135 148.304055,161.586298 C147.676092,162.569863 147.880927,164.396485 147.033177,165.167791 C144.400215,166.221611 141.317213,166.783648 138.81433,165.41443 C136.712147,162.535483 134.393168,156.635586 137.027624,152.807454 C136.916983,151.647505 136.565623,150.699815 136.504321,149.471105 C138.607999,148.45316 139.55144,146.3799 142.151508,145.853737 C145.778745,145.151191 149.848546,148.276776 151.433407,144.589154 C155.577966,143.605588 157.019292,146.626539 159.930352,145.361955 C162.213448,147.855248 162.247836,152.666945 165.054235,154.632581 C169.804331,151.508491 163.542637,147.048067 164.535417,142.025606 C167.446477,139.04053 171.205287,136.86413 174.30025,134.053943 C173.735083,131.279632 171.727095,130.50683 172.500088,128.154046 C173.624442,127.170481 172.851449,129.699649 173.805355,129.699649 C177.419136,127.768393 176.900319,121.657732 183.327974,122.500788 C184.065083,121.236204 183.112672,119.69957 183.327974,118.146494 C184.803688,116.77578 187.753622,116.88191 189.505939,115.82809 C190.072601,113.756325 187.753622,111.57843 188.492226,109.40203 C190.739439,108.558974 193.581721,108.31383 194.389103,106.065681 C189.686852,104.379569 185.673866,107.786173 183.327974,110.174831 C183.534305,105.678533 188.803218,106.24057 190.278932,102.974476 C194.629822,102.307804 197.830941,103.817532 201.063458,103.221115 C203.697915,102.729332 205.559378,99.4288574 209.558908,99.6381266 C209.207547,97.7771254 208.821798,97.0745788 208.794886,95.2838322 C208.334379,94.2300123 207.139753,95.4243415 206.477401,94.7576696 C206.22173,93.4930857 205.036075,93.9504884 205.945127,92.6859044 C204.711627,92.2643764 203.877333,91.4915751 202.077171,91.6664644 C201.340061,90.3331206 199.587744,90.0521019 198.739993,88.8577726 C199.306656,85.1701501 195.443185,82.2553289 193.856829,79.0953638 C191.684374,79.3405078 191.437674,81.4481477 190.521147,82.9578756 C189.396793,83.0281302 188.417469,83.274769 187.438145,83.485533 C186.762336,82.2553289 185.603594,81.5527823 184.864989,80.3943277 C184.693047,79.0953638 185.010019,78.3225625 185.397263,77.5856359 C183.293585,77.0579786 180.790702,74.0026481 177.949915,73.1954668 C176.970591,72.9488281 175.100156,73.3703561 173.590054,73.1954668 C171.943892,73.0190828 170.507052,72.0370122 169.731068,73.9682681 C171.135015,77.1984879 171.205287,80.3943277 168.71586,82.4660929 C170.989986,84.4676035 173.878618,86.7860074 171.522259,90.6843939 C170.673013,91.6320845 168.425801,91.1746817 167.412089,91.9474831 C168.425801,94.8279243 170.604237,100.446803 166.398376,100.165784 C163.61889,99.9908947 162.213448,95.3540869 163.301918,91.9474831 C161.721543,90.3675005 159.266504,91.2464312 157.405041,90.9295378 C153.958717,90.2972458 151.881952,87.5931886 149.426914,86.2942247 C147.495178,85.8726968 146.089736,87.1731554 145.076024,86.8203873 C144.860722,84.0460755 143.103919,82.7829863 141.206572,81.6947864 C140.891095,75.8292693 144.400215,73.7575041 148.15753,71.9308829 C148.372832,70.9129376 147.771781,70.0355017 148.15753,69.6139737 C150.274665,69.1132224 153.53559,68.558659 154.591166,66.2776245 C155.012799,64.9771659 153.392055,64.9771659 154.067863,64.2402393 C155.253518,63.7140767 156.412261,63.1864193 156.627562,61.6766914 C160.209945,61.1146541 163.095587,62.5900021 164.847904,59.8859449 C164.886778,58.3059623 163.798308,57.8485596 163.542637,56.5495957 C165.936374,55.4613958 162.288205,52.7917186 164.074911,50.8963374 C165.480353,51.5271346 167.024844,51.6676439 167.942867,52.1594266 C168.46617,51.9142827 168.500559,51.1758613 168.46617,50.36868 C169.901515,50.8963374 170.116817,52.6512092 172.574846,52.1594266 C172.851449,53.2835012 171.701678,53.0024826 171.797367,53.9501731 C172.790148,54.5211791 174.363047,54.4778305 174.893826,55.4957757 C174.612737,56.1624477 173.528752,55.9875584 172.574846,56.0234331 C172.053038,56.8649943 171.592532,57.7783049 171.556648,59.1131436 C171.556648,59.9561995 172.996479,59.3941622 173.347839,59.8859449 C175.002972,58.6557409 174.578349,55.6004104 177.45801,56.302957 C180.271885,57.0055036 179.355357,62.4838727 175.134545,61.9577101 C174.964098,63.2925487 177.419136,62.9412754 176.439812,64.2746192 C174.687495,65.7589359 169.695185,64.0294753 169.769942,67.3658245 C171.762979,69.1132224 174.823553,67.5063338 177.21131,68.1386258 C179.705222,68.769423 180.829576,71.7201189 182.617777,72.7739388 C186.410976,72.5990496 188.526615,75.4077413 191.609617,75.090848 C190.521147,72.8441935 188.066108,71.9667576 187.258727,69.4375897 C188.734441,69.6139737 189.8573,72.3180309 192.140396,72.5287949 C193.058418,72.3867908 192.671174,70.9831923 193.933082,71.2642109 C194.001859,66.2776245 188.140866,65.9607312 188.03172,61.99209 C191.934065,60.6931261 192.457368,64.9427859 194.981183,65.8560966 C196.637811,64.2402393 198.218185,62.5900021 199.864347,60.9741448 C198.354244,58.1998329 193.11972,59.1490183 191.403286,56.6198504 C189.26522,56.690105 187.610087,56.3388317 186.762336,54.5480852 C187.789505,53.4240105 189.8573,53.3537559 190.349204,51.7035187 C189.299608,50.5091894 187.222843,49.2804801 185.21635,49.9127721 C184.622775,48.7184428 183.955937,47.5599882 183.148556,46.5764229 C179.775494,45.733367 175.947907,45.3820937 174.653106,42.4672725 L172.851449,42.4672725 C173.066751,41.3431978 172.293757,40.7124006 173.101139,40.3955073 C168.922191,39.0262887 160.873792,37.8319594 157.681644,40.6406512 C158.068888,43.1354392 157.962732,43.6959817 157.14937,45.7677469 C153.852562,43.3805831 155.749909,39.8693447 158.951027,38.8140299 C157.114982,38.2176127 154.199437,38.0427234 152.267701,39.0606686 C149.497186,40.5360166 146.901603,48.5779335 152.521877,47.5599882 C152.593644,48.5420588 150.902628,47.8410069 150.440626,48.3312948 C151.530592,50.6496987 156.101269,49.560004 157.114982,51.9486626 C156.738204,55.1445024 155.604879,59.8156902 152.483003,58.6213609 C152.30209,57.1818877 153.040694,56.6198504 153.501201,55.7767944 C152.619062,53.1071172 149.571943,53.6003946 148.372832,55.5316505 C148.413201,53.4240105 147.495178,52.2999359 145.813133,51.9142827 C146.370825,47.6646229 143.842524,46.5061683 142.187391,44.468783 C142.612014,43.6616018 142.958889,42.8185458 143.45528,42.1414104 C146.234766,42.7826711 148.096229,40.7124006 149.111437,38.8140299 C146.586126,36.4971208 139.490138,36.8483941 138.331396,40.1144886 C138.81433,42.4313978 140.675793,43.1354392 140.118102,44.9964404 C139.626197,46.6810576 136.504321,47.1369655 136.78541,49.8768974 C137.764734,51.633264 140.63991,51.4927547 142.187391,52.687084 C142.999258,54.8291038 141.448787,55.5660304 140.118102,56.302957 C139.732353,57.322397 140.118102,59.0428889 138.81433,59.1131436 C138.150483,58.0593236 138.297008,56.1624477 137.800617,55.5316505 C139.068506,55.3552664 140.013441,54.8291038 140.364802,53.7394091 C138.853204,52.9322279 137.242926,52.2296812 136.007931,51.1758613 C135.130277,52.7917186 132.675239,52.8275933 131.899255,54.5211791 C132.456947,55.3911411 134.112079,55.2147571 135.236433,55.5316505 C134.885072,56.479341 134.393168,57.2521424 133.690447,57.8485596 C128.627864,57.743925 125.049967,58.1295783 122.379627,55.0398678 C123.683399,54.5480852 126.80079,56.479341 128.276504,55.0398678 C128.600952,53.7394091 127.186539,53.2476265 127.753201,52.47632 C128.566563,52.0891719 130.173851,52.47632 130.31888,51.4583747 C130.247113,49.3148601 127.40184,49.9127721 125.677931,49.4209895 C124.069148,47.8753868 124.311363,44.4344031 122.594929,42.9934351 C124.904938,41.2385632 124.166333,38.1129781 120.271464,38.6391407 C119.39381,39.201178 120.622824,39.83347 120.516669,40.4298872 C119.078333,40.2893779 118.89742,40.2893779 117.421706,40.4298872 C116.865509,41.5883418 118.194699,44.2236391 118.194699,44.7856764 C116.587411,43.7318564 116.373605,41.3088179 114.086023,40.9216699 C113.952955,42.2206338 113.251729,42.9934351 112.297822,43.4852177 C112.263434,40.6062713 108.574895,41.3790726 107.169453,42.4672725 C107.341396,41.6944712 108.153263,41.5539618 107.946932,40.3955073 C104.534997,40.2893779 94.4576771,44.3641484 100.741798,46.5764229 C101.369761,47.2789696 99.9329211,47.4897336 100.209524,48.6123134 C102.326658,50.824588 107.341396,48.5420588 110.264416,49.9127721 C107.559688,51.035352 102.072483,48.7528228 101.759996,51.4583747 C101.408635,54.6885945 108.257923,51.5973893 107.946932,55.5660304 C112.649183,56.3388317 117.070345,55.0398678 120.271464,53.4942652 C121.146127,53.5301399 121.255273,54.4075758 122.06415,54.5211791 C120.794767,54.5824651 117.843338,54.8291038 116.938772,56.0578131 C118.022756,57.7080503 117.070345,58.4808516 118.484758,59.9203248 C117.180986,60.3418528 116.829626,57.6377956 115.389795,57.356777 C112.789727,58.1639582 108.851498,57.6736703 105.865681,58.1295783 C105.768497,57.0757583 107.341396,57.743925 107.416153,56.8649943 C107.486425,55.7065397 106.990035,55.0742478 106.64316,54.3014465 C103.024894,54.1265572 99.5830557,54.3014465 96.5957434,53.0383573 C93.9268984,51.8784079 93.0178464,49.7020081 90.7003619,52.7917186 C89.4309785,52.8619732 89.9228833,51.1758613 88.9076756,51.000972 C87.458874,51.000972 88.0255363,53.0383573 86.5901911,53.0727372 C85.0800883,52.2730299 84.5478144,50.4748094 83.4952279,49.2102255 C82.1286597,49.2102255 82.8313808,51.2819907 81.707027,51.5271346 C80.0130206,51.7737733 79.1084541,51.2461159 78.0812852,50.7543333 C75.4199159,51.1758613 74.1505325,53.6347745 71.4114153,52.5465746 C69.7293701,52.687084 69.1985914,54.5480852 67.5509347,54.6183398 C66.4893773,54.6527198 65.3291399,53.1773718 63.6829784,52.5465746 C60.7375303,51.4583747 58.6203961,52.054792 56.7245443,50.4748094 C55.673453,50.0532814 54.9363434,51.2461159 53.9181454,51.2461159 C52.8296752,51.2461159 52.0910705,50.2281707 50.8276677,49.9830268 C49.8827321,49.7722628 48.6492323,50.1220413 47.49049,49.9830268 C44.890422,49.4553694 43.7316797,48.3312948 41.3379425,49.2804801 C40.1178991,49.4912441 40.671105,47.9097668 39.800927,47.7348775 C37.2636553,48.6481882 35.3408907,47.1728402 33.3732717,46.9620762 C29.2631008,46.5405482 27.1818502,49.5256241 23.3273502,50.0532814 C21.8516359,52.9681026 18.3350401,53.8096638 15.1085037,54.9337384 C16.969967,57.356777 20.4372228,58.1639582 22.3001813,60.5869967 C23.7130993,60.6587462 25.114056,60.6931261 25.9259232,61.359798 C25.114056,62.3433633 23.216709,62.2731087 21.8172474,62.6602567 C19.5326563,59.4644169 15.595923,62.835146 12.8239125,63.678202 C13.9482663,67.9622417 21.7424899,67.7514777 25.1544251,66.7694072 C25.6014753,67.2596951 25.3248723,68.4540244 25.3951444,69.3329551 C23.1120484,69.4734644 22.4795995,71.3598769 19.9812017,70.5960442 C18.6864007,72.2821562 16.1610902,72.7380641 16.1222162,75.7231399 C16.9340834,76.1805427 18.5802449,75.8292693 18.92712,76.74258 C18.7222843,77.6543958 17.5276584,77.5497612 16.8996949,78.0071639 C17.5979305,80.9204903 21.4658869,79.2014932 23.3273502,79.2702531 C23.7130993,80.8158557 22.3390552,82.9234956 24.6221512,83.3794036 C25.8526607,83.3091489 26.0589916,82.220949 26.6989164,81.588657 C27.9952125,83.0281302 29.6099759,83.2030195 31.8227998,82.5976336 C32.7677354,82.8876209 30.1332788,83.7396456 31.0513017,85.6978075 C29.1539548,86.7157527 27.4629387,87.944462 26.1681377,89.5603192 C21.3552457,90.5782645 18.0584371,93.0715577 14.6106183,95.4587215 C15.8710308,96.2673975 18.7611582,94.5469056 19.7404823,93.3884511 C27.752998,91.6320845 32.9830372,87.0924373 38.4971551,82.853241 C38.5674272,82.1148196 38.4223975,81.5527823 37.9663764,81.3076384 C40.0431415,79.5168918 41.0224656,76.6364506 44.3940317,76.1805427 C42.9198126,76.953344 41.7954588,78.0415439 41.0613395,79.5168918 C41.2766413,80.3240731 41.5876328,81.0266197 42.084023,81.5527823 C44.1174287,80.5004571 45.2058989,79.7276558 47.9853851,79.7620357 C48.6148438,78.9189798 47.8059669,77.8651598 47.7312094,76.953344 C51.1775331,76.6364506 53.07488,79.7620357 56.2401153,79.7620357 C57.255323,79.7620357 58.0283162,79.0953638 58.8013094,78.9892344 C59.1167864,78.9548545 59.3575057,79.5168918 59.8195075,79.5168918 C60.6268891,79.4810171 60.2755286,78.8487251 60.83322,78.9892344 C63.9640668,79.8681651 65.5803253,85.1357702 70.1166143,83.3435288 C71.1303269,84.8188768 72.8826442,85.5214234 73.1981211,87.699318 C75.7712764,88.9624072 77.308292,92.4048858 78.3354609,95.9161242 C79.2400274,96.0207588 79.8066897,96.4781615 80.8951599,96.4437816 C81.2106368,97.7771254 81.4184628,99.1822187 83.4593443,98.7621855 C82.4800202,99.8503854 83.9168606,101.500623 85.0053307,102.09704 C84.6539702,102.826493 82.9629541,101.430368 82.4411463,102.342184 C82.4411463,104.134425 84.3026096,104.06417 85.2460501,104.907226 C86.6873759,105.467769 87.0731249,107.013372 89.1140064,106.978992 C88.6579853,109.295901 91.0113534,116.213743 88.5832277,119.059804 C89.1842785,120.358768 89.7823391,122.254149 88.8388986,123.695117 C89.1842785,125.239225 90.4446911,125.871517 90.3833899,127.802773 C91.047237,128.435065 91.2924418,129.488885 92.4526792,129.59352 C92.8384283,132.228817 95.4370012,133.843179 95.0153685,135.774435 C102.181629,137.249783 102.603261,144.23788 106.858462,148.873193 C106.255916,148.804433 105.865681,148.918037 105.589078,149.119832 C106.0451,151.227472 108.851498,150.980833 109.939969,152.456181 C109.699249,156.248438 113.105204,156.318693 114.580918,158.356078 C116.126905,157.687911 115.13861,155.335128 113.567206,155.545892 C112.513124,149.577235 106.990035,148.066012 106.121352,141.920971 C106.713432,142.342499 107.767514,142.342499 108.429866,142.693772 C109.588608,146.592159 111.912073,149.296216 115.113192,151.191597 L115.113192,152.7372 C117.774561,155.019729 120.056162,157.723786 122.30487,160.427843 C122.379627,161.261931 121.641022,161.692427 121.783062,163.27241 C123.367922,165.940592 125.435716,166.291866 128.455922,167.626704 C131.296709,168.855414 134.536702,170.998928 137.449257,171.208197 C138.643883,171.314327 140.254161,170.471271 141.559428,170.682035 C143.736368,171.033308 144.820353,173.640205 146.198882,174.546041 C149.426914,174.123019 150.234296,176.160404 153.392055,175.809131 C154.378855,177.740386 156.101269,178.934716 156.487018,181.463884 C158.660968,182.20081 160.209945,183.570029 161.370182,185.326395 C162.805527,184.30845 164.074911,185.782303 166.251851,186.099197 C167.135486,185.957193 166.398376,184.202321 167.024844,183.780793 C171.341346,183.851047 171.522259,189.821199 170.638625,193.544696 C170.010661,194.034984 169.20328,194.351878 168.570831,194.84366 C168.113314,197.546223 166.047015,198.670297 164.70736,200.496918 L164.70736,203.341485 C165.791345,204.184541 166.954572,202.393794 167.521235,202.815322 C166.743756,204.606069 164.390388,204.816833 163.893998,206.924473 C166.784125,212.613606 170.892801,217.072535 172.645118,223.885743 C175.811848,226.975453 180.271885,228.7662 183.425159,231.857405 C184.307298,234.350698 183.257702,236.388083 182.906341,238.528608 C182.480223,241.26854 183.499916,244.219236 182.652166,246.993548 C182.230533,248.433021 181.008994,251.311968 180.86546,253.664752 C180.790702,254.99959 181.251209,256.228299 181.106179,257.528758 C180.72043,261.39127 178.761782,264.58711 177.528282,267.537806 C178.085974,272.312133 176.861445,275.333084 176.22451,280.108906 C178.761782,280.4258 177.347369,276.772557 178.797666,275.999756 C179.074268,278.914577 178.19512,281.337615 177.770497,284.499075 C176.996008,284.499075 176.197597,284.53495 176.22451,283.726274 C175.349847,284.322691 174.30025,284.744219 173.914501,285.798039 C174.011686,287.167258 174.721883,287.905679 176.4742,287.588786 C176.719405,288.642606 175.701207,289.372058 176.996008,289.372058 C176.755289,290.188208 175.210798,289.626171 174.687495,290.152334 C174.687495,293.313793 177.879643,295.981976 176.4742,298.125491 C176.755289,298.862417 177.598554,299.037306 177.251679,300.4424 C178.410421,301.425965 179.811378,302.162892 181.357364,302.760804 C182.797195,303.286966 182.133348,300.828053 183.148556,301.750332 C183.955937,302.831058 183.327974,303.251092 182.617777,304.059768 C183.776519,305.041838 184.975631,305.991023 186.243519,306.902839 L187.016512,306.902839 C188.6238,306.026898 191.644005,306.588935 192.671174,305.103124 C190.630293,304.200277 188.236556,303.708494 187.258727,301.777238 C187.113697,299.774233 186.630763,298.159871 185.46604,297.140431 C185.637983,295.526068 186.375092,294.472248 188.03172,294.331739 C187.753622,290.645611 191.609617,291.02977 191.644005,287.660535 C191.087809,286.60522 188.839101,287.203132 188.562499,285.868294 C188.417469,285.059618 189.009549,284.954983 188.803218,284.077547 C189.927572,283.551385 191.258256,283.270366 192.140396,282.531945 C192.210668,280.881707 192.877505,279.827888 193.155603,278.424289 C194.148384,278.458669 195.196485,278.564798 195.236854,277.649993 C195.196485,276.561793 193.856829,276.808432 192.913389,276.633542 C193.085331,275.614102 192.671174,275.1567 192.671174,274.315139 C194.279957,275.1567 195.271242,275.367464 197.304648,274.806921 C197.554338,273.365953 197.409309,271.856225 197.830941,270.451132 C201.589752,270.557261 206.547673,270.170113 207.105365,267.114783 C207.381968,265.64093 206.608974,262.44509 204.7819,261.706668 C206.015399,261.180506 207.947135,262.726108 209.668054,262.47947 C213.290805,261.953307 214.551218,256.826211 216.337924,254.262664 C219.298323,254.122154 219.187682,250.962189 221.475264,250.153513 C221.68309,248.152003 221.089515,246.957673 221.221088,244.992037 C222.139111,243.41056 224.316051,243.131036 225.089044,241.40905 C225.862037,241.23416 226.042951,241.655688 226.635031,241.655688 C228.181017,241.066745 228.675912,239.407539 231.27598,239.863447 C237.032313,237.12501 238.226938,229.855894 238.467658,221.603213 C239.240651,221.778103 239.421564,221.356575 240.01813,221.356575 C240.750754,217.03666 246.903301,215.843826 245.150984,209.522401 C244.971566,208.819854 244.51405,208.749599 243.917484,207.872163 C240.365005,208.573215 239.315409,204.46556 236.715341,203.763013 Z" id="Fill-49"></path>
                            <path d="M141.353097,19.4655964 C141.702962,18.8676844 143.349124,18.2353924 144.158001,18.9379391 C143.349124,18.972319 142.612014,19.1143231 142.612014,19.9573791 L142.612014,21.2204683 C144.579633,21.7122509 146.198882,23.3281082 148.266676,23.5388722 C151.530592,23.8542708 152.79848,21.1517084 155.226606,19.9573791 C155.012799,21.2907229 153.53559,21.3609776 153.682114,23.0560582 C154.840857,23.6793815 156.799505,23.3639829 157.79079,23.5747469 C157.611372,25.926036 153.185724,22.4506723 152.654945,25.1188547 C152.79848,25.9977854 154.274194,25.5762574 154.455108,26.4103447 C151.952224,27.15624 150.129635,27.999296 147.248478,28.2085652 C143.069531,28.5254586 139.419866,26.1382948 137.207042,27.1906199 C136.855682,30.5269691 140.39919,30.0008065 143.385008,30.0008065 C144.965382,31.1592611 146.019464,32.423845 145.461773,35.1279022 C147.420421,35.7945741 149.957693,36.9186488 152.131642,35.9007035 C154.033475,37.5853207 158.87627,36.3222315 161.124977,35.9007035 C161.862087,37.6211954 164.074911,36.3222315 166.251851,36.6720101 C166.674979,35.4791755 167.267059,34.4253556 167.024844,32.5643544 C161.370182,29.7197879 152.945005,35.5135555 149.281884,30.2459504 C153.571473,29.4387692 158.625084,31.0890064 163.446947,29.4731491 C165.659771,31.0890064 169.659301,29.6495332 170.638625,27.6824026 C169.840214,27.4013839 168.887803,27.2264947 168.328616,26.6644573 C168.922191,26.4103447 169.865632,26.4880733 170.397906,26.1382948 C170.819538,25.1891094 169.20328,24.9783454 169.865632,24.5926921 C172.053038,24.9783454 172.790148,23.9245254 173.975803,23.2922335 C174.120832,22.3804176 172.755759,22.4506723 173.453995,21.7481256 C175.737091,21.888635 176.584842,20.5896711 176.791172,18.6569204 C173.975803,18.5164111 172.574846,18.3415218 171.135015,19.6673917 C173.418111,16.3400113 180.307768,19.0081937 182.967642,16.3400113 C183.078284,15.2861913 181.21682,16.1995019 181.176451,15.3205712 L183.994811,15.3205712 C186.665152,12.6523888 191.720258,12.4072448 194.279957,9.66731293 C192.416998,9.80782226 188.587916,11.1067862 187.328999,9.42067422 C191.403286,9.42067422 197.409309,9.24578495 199.417297,6.33096377 C196.395596,4.57459716 193.085331,3.09924921 188.6238,4.54021722 C188.698557,3.93483128 189.8573,4.39970789 189.650969,3.52227198 C185.817401,4.04843457 179.775494,1.44901199 177.562671,4.04843457 C175.838761,2.46845201 172.61073,2.53870668 171.135015,4.2935785 C166.011132,2.2218133 163.583006,7.17401974 157.502226,5.83918112 C155.192217,8.64936769 147.384537,6.01556517 145.668104,9.45654894 C149.537555,10.1247156 150.370354,14.064956 155.432936,12.7928981 C155.990628,13.0739168 156.135658,13.8108433 156.738204,14.091862 C159.930352,13.45957 162.032534,13.5298247 164.70736,14.091862 C162.143175,15.6030847 158.805998,14.1621167 155.432936,15.111302 C154.591166,15.9184833 156.591679,16.5492805 155.675151,17.4192425 C154.344466,16.8661739 153.571473,15.7779739 152.868752,14.6180246 C148.653921,15.2503166 146.828341,10.2996049 143.103919,10.7570076 C140.54422,11.0709114 139.345109,13.8467181 137.980036,16.1636272 C138.993748,17.3579565 139.380992,19.1845778 141.353097,19.4655964" id="Fill-50"></path>
                        </g>
                    </g>
                </g>
            </g>
        </g>
    </g>
</svg>